<svg xmlns="http://www.w3.org/2000/svg" xmlns:xlink="http://www.w3.org/1999/xlink" width="920.002" height="661.406" viewBox="0 0 920.002 661.406">
  <defs>
    <linearGradient id="linear-gradient" x1="0.5" x2="0.5" y2="1" gradientUnits="objectBoundingBox">
      <stop offset="0" stop-color="#f1f2fe"/>
      <stop offset="1" stop-color="#d9e4fe"/>
    </linearGradient>
    <linearGradient id="linear-gradient-2" x1="0.5" y1="1" x2="0.5" gradientUnits="objectBoundingBox">
      <stop offset="0" stop-color="#d9e4fe"/>
      <stop offset="1" stop-color="#b7d1f9"/>
    </linearGradient>
    <clipPath id="clip-path">
      <path id="Background" d="M265.732,233.781C300.84,134.862,382.745,5.689,542.4,62.2c146.658,51.91,147.177,159.988,180.736,213.4,43.778,69.684,86.725,58.037,148.479,99.15s170.738,255.63-10.456,305.034-719,32.936-793.641-13.723,35.149-85.7,31.977-178.147C94.395,339.34,225.506,347.118,265.732,233.781Z" fill="none"/>
    </clipPath>
    <linearGradient id="linear-gradient-3" y1="0.5" x2="1" y2="0.5" gradientUnits="objectBoundingBox">
      <stop offset="0" stop-color="#6bbcff"/>
      <stop offset="1" stop-color="#5a8eeb"/>
    </linearGradient>
    <linearGradient id="linear-gradient-7" x1="0.401" y1="0.326" x2="0.627" y2="0.765" gradientUnits="objectBoundingBox">
      <stop offset="0" stop-color="#75e6b5"/>
      <stop offset="1" stop-color="#61bfa6"/>
    </linearGradient>
    <linearGradient id="linear-gradient-8" y1="0.5" x2="1" y2="0.5" gradientUnits="objectBoundingBox">
      <stop offset="0" stop-color="#27a89b"/>
      <stop offset="1" stop-color="#318180"/>
    </linearGradient>
    <linearGradient id="linear-gradient-9" x1="0" y1="0.5" x2="1" y2="0.5" xlink:href="#linear-gradient-7"/>
    <linearGradient id="linear-gradient-10" y1="0.5" x2="1" y2="0.5" gradientUnits="objectBoundingBox">
      <stop offset="0" stop-color="#332c57"/>
      <stop offset="1" stop-color="#2a2142"/>
    </linearGradient>
    <linearGradient id="linear-gradient-12" x1="-0.436" y1="0.119" x2="1.525" y2="0.866" xlink:href="#linear-gradient-8"/>
    <linearGradient id="linear-gradient-13" x1="0.225" y1="0.227" x2="0.712" y2="0.747" xlink:href="#linear-gradient-7"/>
    <linearGradient id="linear-gradient-16" x1="0.232" y1="0.213" x2="0.673" y2="0.737" xlink:href="#linear-gradient-7"/>
    <linearGradient id="linear-gradient-17" x1="-0.468" y1="0.112" x2="1.531" y2="0.873" xlink:href="#linear-gradient-8"/>
    <linearGradient id="linear-gradient-21" x1="0.337" y1="1.238" x2="0.694" y2="0.107" xlink:href="#linear-gradient-7"/>
    <linearGradient id="linear-gradient-22" y1="0.5" x2="1" y2="0.5" gradientUnits="objectBoundingBox">
      <stop offset="0" stop-color="#fff"/>
      <stop offset="1" stop-color="#f1f2fe"/>
    </linearGradient>
    <linearGradient id="linear-gradient-25" x1="0.334" y1="1.223" x2="0.697" y2="0.11" xlink:href="#linear-gradient-7"/>
    <linearGradient id="linear-gradient-29" y1="0.5" x2="1" y2="0.5" gradientUnits="objectBoundingBox">
      <stop offset="0" stop-color="#6bbcff"/>
      <stop offset="1" stop-color="#5fa9f8"/>
    </linearGradient>
    <linearGradient id="linear-gradient-30" x1="-0.076" y1="0.5" x2="1.076" y2="0.5" gradientUnits="objectBoundingBox">
      <stop offset="0" stop-color="#ff7a9e"/>
      <stop offset="1" stop-color="#c42c5b"/>
    </linearGradient>
    <linearGradient id="linear-gradient-31" x1="-0.16" y1="0.5" x2="1.16" y2="0.5" gradientUnits="objectBoundingBox">
      <stop offset="0" stop-color="#f9d375"/>
      <stop offset="1" stop-color="#fcb571"/>
    </linearGradient>
    <linearGradient id="linear-gradient-32" y1="0.5" x2="1" y2="0.5" gradientUnits="objectBoundingBox">
      <stop offset="0" stop-color="#ff7a9e"/>
      <stop offset="1" stop-color="#e65a7f"/>
    </linearGradient>
    <linearGradient id="linear-gradient-34" x1="0.5" x2="0.5" y2="1" gradientUnits="objectBoundingBox">
      <stop offset="0.392" stop-color="#f9d375"/>
      <stop offset="1" stop-color="#fcb571"/>
    </linearGradient>
    <linearGradient id="linear-gradient-36" x1="-0.853" y1="0.5" x2="0.298" y2="0.5" xlink:href="#linear-gradient-30"/>
    <linearGradient id="linear-gradient-37" x1="-0.852" y1="0.5" x2="0.467" y2="0.5" xlink:href="#linear-gradient-31"/>
    <linearGradient id="linear-gradient-38" x1="-0.679" y1="0.5" x2="0.321" y2="0.5" xlink:href="#linear-gradient-32"/>
    <linearGradient id="linear-gradient-39" x1="-1.249" y1="0.5" x2="-0.249" y2="0.5" xlink:href="#linear-gradient-22"/>
    <linearGradient id="linear-gradient-40" y1="0.5" x2="1" y2="0.5" gradientUnits="objectBoundingBox">
      <stop offset="0" stop-color="#fbcebe"/>
      <stop offset="1" stop-color="#ffb7b3"/>
    </linearGradient>
    <linearGradient id="linear-gradient-41" x1="0.322" y1="-0.376" x2="0.634" y2="1.828" xlink:href="#linear-gradient-10"/>
    <linearGradient id="linear-gradient-43" x1="0.665" y1="1.159" x2="0.284" y2="0.039" xlink:href="#linear-gradient-10"/>
    <linearGradient id="linear-gradient-46" x1="0.5" y1="0" x2="0.5" y2="1" xlink:href="#linear-gradient-32"/>
    <linearGradient id="linear-gradient-50" x1="0.5" y1="0" x2="0.5" y2="1" xlink:href="#linear-gradient-3"/>
    <linearGradient id="linear-gradient-51" x1="0.012" y1="0.065" x2="1.264" y2="0.933" xlink:href="#linear-gradient-32"/>
    <linearGradient id="linear-gradient-53" x1="0.395" y1="0.251" x2="0.712" y2="0.821" xlink:href="#linear-gradient-32"/>
    <linearGradient id="linear-gradient-54" x1="0.074" y1="0.309" x2="0.951" y2="0.309" xlink:href="#linear-gradient-10"/>
    <linearGradient id="linear-gradient-55" x1="0.075" y1="0.276" x2="0.953" y2="0.276" xlink:href="#linear-gradient-22"/>
    <linearGradient id="linear-gradient-57" x1="-0.017" y1="0.016" x2="1.017" y2="0.984" xlink:href="#linear-gradient-10"/>
    <linearGradient id="linear-gradient-58" x1="0.5" y1="1" x2="0.5" gradientUnits="objectBoundingBox">
      <stop offset="0" stop-color="#e2e5fe"/>
      <stop offset="0.5" stop-color="#f1f2fe"/>
      <stop offset="1" stop-color="#fff"/>
    </linearGradient>
    <linearGradient id="linear-gradient-59" x1="0.5" y1="1" x2="0.5" y2="0" xlink:href="#linear-gradient-31"/>
    <linearGradient id="linear-gradient-60" x1="0.288" y1="-0.373" x2="0.712" y2="1.373" xlink:href="#linear-gradient-31"/>
    <linearGradient id="linear-gradient-61" x1="0.25" y1="0.067" x2="0.75" y2="0.933" xlink:href="#linear-gradient-3"/>
    <linearGradient id="linear-gradient-63" x1="0.287" y1="0.129" x2="0.776" y2="1.02" xlink:href="#linear-gradient-22"/>
    <linearGradient id="linear-gradient-68" x1="0.393" y1="0.679" x2="0.816" y2="-0.116" xlink:href="#linear-gradient-3"/>
    <linearGradient id="linear-gradient-69" x1="0.5" x2="0.5" y2="1" gradientUnits="objectBoundingBox">
      <stop offset="0.312" stop-color="#6bbcff"/>
      <stop offset="1" stop-color="#5a8eeb"/>
    </linearGradient>
    <linearGradient id="linear-gradient-70" x1="0.25" y1="0.067" x2="0.75" y2="0.933" xlink:href="#linear-gradient-31"/>
    <linearGradient id="linear-gradient-71" x1="0.328" y1="0.025" x2="0.634" y2="1.084" xlink:href="#linear-gradient-31"/>
    <linearGradient id="linear-gradient-72" x1="0" y1="0.5" x2="1" y2="0.5" xlink:href="#linear-gradient-31"/>
    <linearGradient id="linear-gradient-79" x1="1.155" y1="0.757" x2="0.251" y2="-0.268" xlink:href="#linear-gradient-3"/>
    <linearGradient id="linear-gradient-83" y1="0.5" x2="1" y2="0.5" gradientUnits="objectBoundingBox">
      <stop offset="0" stop-color="#ff7a9e"/>
      <stop offset="1" stop-color="#e66e96"/>
    </linearGradient>
    <linearGradient id="linear-gradient-85" x1="0.733" y1="-0.148" x2="0.788" y2="0.872" xlink:href="#linear-gradient-3"/>
    <linearGradient id="linear-gradient-95" x1="0.056" y1="0.857" x2="1.044" y2="0.857" xlink:href="#linear-gradient-40"/>
    <linearGradient id="linear-gradient-96" x1="0.314" y1="0.215" x2="0.677" y2="0.802" xlink:href="#linear-gradient-10"/>
    <linearGradient id="linear-gradient-97" x1="0.382" y1="0.106" x2="0.957" y2="0.925" xlink:href="#linear-gradient-40"/>
  </defs>
  <g id="Grupo_1873" data-name="Grupo 1873" transform="translate(-40.941 -48.415)">
    <g id="Background-2" data-name="Background">
      <path id="Background-3" data-name="Background" d="M265.732,233.781C300.84,134.862,382.745,5.689,542.4,62.2c146.658,51.91,147.177,159.988,180.736,213.4,43.778,69.684,86.725,58.037,148.479,99.15s170.738,255.63-10.456,305.034-719,32.936-793.641-13.723,35.149-85.7,31.977-178.147C94.395,339.34,225.506,347.118,265.732,233.781Z" fill="url(#linear-gradient)"/>
      <path id="Ground" d="M40.942,633.127c1.61,11.294,9.194,22.072,26.573,32.936,74.637,46.659,612.447,63.126,793.641,13.723,36.184-9.866,60.785-26.32,76.512-46.659Z" fill="url(#linear-gradient-2)"/>
      <g id="Grupo_1835" data-name="Grupo 1835">
        <g id="Grupo_1834" data-name="Grupo 1834" clip-path="url(#clip-path)">
          <g id="Grupo_1833" data-name="Grupo 1833">
            <path id="Trazado_1912" data-name="Trazado 1912" d="M682.918,54.007a94,94,0,1,0,94,94A94,94,0,0,0,682.918,54.007Zm0,165.02a71.016,71.016,0,1,1,71.016-71.016A71.016,71.016,0,0,1,682.918,219.027Z" opacity="0.25" fill="url(#linear-gradient-3)"/>
            <path id="Trazado_1913" data-name="Trazado 1913" d="M301.412,55.379a61.069,61.069,0,1,0,61.068,61.068A61.068,61.068,0,0,0,301.412,55.379Zm0,107.2a46.134,46.134,0,1,1,46.135-46.135A46.135,46.135,0,0,1,301.412,162.582Z" opacity="0.25" fill="url(#linear-gradient-3)"/>
            <path id="Trazado_1914" data-name="Trazado 1914" d="M185.813,297.594a34.994,34.994,0,1,0,34.995,34.994A34.994,34.994,0,0,0,185.813,297.594Zm0,61.431a26.436,26.436,0,1,1,26.437-26.437A26.436,26.436,0,0,1,185.813,359.025Z" opacity="0.25" fill="url(#linear-gradient-3)"/>
            <path id="Trazado_1915" data-name="Trazado 1915" d="M874.011,365.527a30.19,30.19,0,1,0,30.19,30.19A30.19,30.19,0,0,0,874.011,365.527Zm0,53a22.808,22.808,0,1,1,22.808-22.808A22.807,22.807,0,0,1,874.011,418.525Z" opacity="0.25" fill="url(#linear-gradient-3)"/>
          </g>
        </g>
      </g>
    </g>
    <g id="Plant">
      <g id="Plant_3" data-name="Plant 3">
        <path id="Trazado_1916" data-name="Trazado 1916" d="M795.448,624.207s15.1-24.7,38.425-39.111S827.7,629.7,795.448,624.207Z" fill="url(#linear-gradient-7)"/>
        <path id="Trazado_1917" data-name="Trazado 1917" d="M795.448,624.207S835.385,558.7,852.4,498.261s-31.582-89.225-56.952-2.769S776.3,624.569,776.3,624.569Z" fill="url(#linear-gradient-8)"/>
        <g id="Grupo_1836" data-name="Grupo 1836">
          <path id="Trazado_1918" data-name="Trazado 1918" d="M784.127,624.207s12.007-63.356,22.986-95.834,22.643-57.866,22.643-57.866" fill="none" stroke="#75e6b5" stroke-linecap="round" stroke-miterlimit="10" stroke-width="2.745"/>
          <line id="Línea_41" data-name="Línea 41" x2="7.033" y2="13.669" transform="translate(806.941 495.437)" fill="none" stroke="#75e6b5" stroke-linecap="round" stroke-miterlimit="10" stroke-width="2.745"/>
          <line id="Línea_42" data-name="Línea 42" y1="12.808" x2="19.213" transform="translate(807.113 515.565)" fill="none" stroke="#75e6b5" stroke-linecap="round" stroke-miterlimit="10" stroke-width="2.745"/>
          <line id="Línea_43" data-name="Línea 43" x2="6.633" y2="16.869" transform="translate(788.815 551.301)" fill="none" stroke="#75e6b5" stroke-linecap="round" stroke-miterlimit="10" stroke-width="2.745"/>
          <line id="Línea_44" data-name="Línea 44" y1="12.403" x2="17.077" transform="translate(790.036 582.822)" fill="none" stroke="#75e6b5" stroke-linecap="round" stroke-miterlimit="10" stroke-width="2.745"/>
        </g>
        <path id="Trazado_1919" data-name="Trazado 1919" d="M776.3,624.569s-8.98-17.516-22.017-24.378-22.644,1.734-13.038,12.189S771.554,627.675,776.3,624.569Z" fill="url(#linear-gradient-9)"/>
        <rect id="Rectángulo_496" data-name="Rectángulo 496" width="59.696" height="10.516" rx="3.832" transform="translate(751.534 624.207)" fill="url(#linear-gradient-10)"/>
        <g id="Grupo_1837" data-name="Grupo 1837">
          <path id="Trazado_1920" data-name="Trazado 1920" d="M745.816,603.851l8.762,6.771,11.365,8.782" fill="none" stroke="#3cb18b" stroke-linecap="round" stroke-miterlimit="10" stroke-width="2.745"/>
          <line id="Línea_45" data-name="Línea 45" x2="7.39" y2="0.367" transform="translate(747.188 610.255)" fill="none" stroke="#3cb18b" stroke-linecap="round" stroke-miterlimit="10" stroke-width="2.745"/>
        </g>
        <g id="Grupo_1838" data-name="Grupo 1838">
          <path id="Trazado_1921" data-name="Trazado 1921" d="M835.017,588.755l-21.6,22.319-5.848,6.043" fill="none" stroke="#3cb18b" stroke-linecap="round" stroke-miterlimit="10" stroke-width="2.745"/>
          <line id="Línea_46" data-name="Línea 46" x1="12.45" y2="4.936" transform="translate(813.418 606.138)" fill="none" stroke="#3cb18b" stroke-linecap="round" stroke-miterlimit="10" stroke-width="2.745"/>
          <line id="Línea_47" data-name="Línea 47" y1="1.83" x2="7.776" transform="translate(826.326 596.074)" fill="none" stroke="#3cb18b" stroke-linecap="round" stroke-miterlimit="10" stroke-width="2.745"/>
        </g>
      </g>
      <g id="Plant_2" data-name="Plant 2">
        <path id="Trazado_1922" data-name="Trazado 1922" d="M634.908,632.964s-1.007-41.3-21.583-66.973-54.749-28.368-25.873,16.172S634.908,632.964,634.908,632.964Z" fill="url(#linear-gradient-9)"/>
        <path id="Trazado_1923" data-name="Trazado 1923" d="M634.908,632.964s-25.867-63.137-15.285-131.109,33.056-43.725,35.34,4.409S634.908,632.964,634.908,632.964Z" fill="url(#linear-gradient-12)"/>
        <path id="Trazado_1924" data-name="Trazado 1924" d="M634.908,632.964s0-45.645,37.036-104.433S741.9,474.447,716.623,525,634.908,632.964,634.908,632.964Z" fill="url(#linear-gradient-13)"/>
        <path id="Trazado_1925" data-name="Trazado 1925" d="M634.908,632.964s17.342-27.421,47.765-38.59S718.974,631.579,634.908,632.964Z" fill="url(#linear-gradient-8)"/>
        <g id="Grupo_1839" data-name="Grupo 1839">
          <path id="Trazado_1926" data-name="Trazado 1926" d="M634.908,485.762a460.351,460.351,0,0,0-2.906,73.6c1.73,39.714,2.906,46.915,2.906,46.915" fill="none" stroke="#75e6b5" stroke-linecap="round" stroke-miterlimit="10" stroke-width="2.745"/>
          <line id="Línea_48" data-name="Línea 48" x1="11.905" y2="16.487" transform="translate(632.409 497.446)" fill="none" stroke="#75e6b5" stroke-linecap="round" stroke-miterlimit="10" stroke-width="2.745"/>
          <line id="Línea_49" data-name="Línea 49" x1="6.795" y1="9.994" transform="translate(624.82 531.471)" fill="none" stroke="#75e6b5" stroke-linecap="round" stroke-miterlimit="10" stroke-width="2.745"/>
          <line id="Línea_50" data-name="Línea 50" x1="11.052" y2="12.18" transform="translate(633.262 565.99)" fill="none" stroke="#75e6b5" stroke-linecap="round" stroke-miterlimit="10" stroke-width="2.745"/>
        </g>
        <g id="Grupo_1840" data-name="Grupo 1840">
          <path id="Trazado_1927" data-name="Trazado 1927" d="M706.923,505.689s-34.979,44.791-44.385,66.15-7.575,18.394-7.575,18.394" fill="none" stroke="#3cb18b" stroke-linecap="round" stroke-miterlimit="10" stroke-width="2.745"/>
          <line id="Línea_51" data-name="Línea 51" y1="7.708" x2="16.234" transform="translate(698.037 509.673)" fill="none" stroke="#3cb18b" stroke-linecap="round" stroke-miterlimit="10" stroke-width="2.745"/>
          <line id="Línea_52" data-name="Línea 52" y1="12.351" transform="translate(672.625 541.181)" fill="none" stroke="#3cb18b" stroke-linecap="round" stroke-miterlimit="10" stroke-width="2.745"/>
          <line id="Línea_53" data-name="Línea 53" y1="6.068" x2="14.255" transform="translate(658.277 575.562)" fill="none" stroke="#3cb18b" stroke-linecap="round" stroke-miterlimit="10" stroke-width="2.745"/>
        </g>
        <g id="Grupo_1841" data-name="Grupo 1841">
          <path id="Trazado_1928" data-name="Trazado 1928" d="M690.168,606.278s-16.347,4.556-21.107,8.671" fill="none" stroke="#75e6b5" stroke-linecap="round" stroke-miterlimit="10" stroke-width="2.745"/>
          <line id="Línea_54" data-name="Línea 54" x1="1.802" y2="6.889" transform="translate(680.871 602.37)" fill="none" stroke="#75e6b5" stroke-linecap="round" stroke-miterlimit="10" stroke-width="2.745"/>
        </g>
        <rect id="Rectángulo_497" data-name="Rectángulo 497" width="59.696" height="10.516" rx="3.832" transform="translate(614.302 624.207)" fill="url(#linear-gradient-3)"/>
      </g>
      <g id="Plant_1" data-name="Plant 1">
        <path id="Trazado_1929" data-name="Trazado 1929" d="M174.286,632.964s1.007-41.3,21.583-66.973,54.748-28.368,25.872,16.172S174.286,632.964,174.286,632.964Z" fill="url(#linear-gradient-16)"/>
        <path id="Trazado_1930" data-name="Trazado 1930" d="M174.286,632.964s25.866-63.137,15.285-131.109-33.057-43.725-35.341,4.409S174.286,632.964,174.286,632.964Z" fill="url(#linear-gradient-17)"/>
        <path id="Trazado_1931" data-name="Trazado 1931" d="M174.286,632.964s0-45.645-37.036-104.433S67.292,474.447,92.571,525,174.286,632.964,174.286,632.964Z" fill="url(#linear-gradient-9)"/>
        <path id="Trazado_1932" data-name="Trazado 1932" d="M174.286,632.964s-17.343-27.421-47.765-38.59S90.219,631.579,174.286,632.964Z" fill="url(#linear-gradient-8)"/>
        <g id="Grupo_1842" data-name="Grupo 1842">
          <path id="Trazado_1933" data-name="Trazado 1933" d="M174.286,485.762a460.43,460.43,0,0,1,2.9,73.6c-1.729,39.714-2.9,46.915-2.9,46.915" fill="none" stroke="#75e6b5" stroke-linecap="round" stroke-miterlimit="10" stroke-width="2.745"/>
          <line id="Línea_55" data-name="Línea 55" x2="11.905" y2="16.487" transform="translate(164.88 497.446)" fill="none" stroke="#75e6b5" stroke-linecap="round" stroke-miterlimit="10" stroke-width="2.745"/>
          <line id="Línea_56" data-name="Línea 56" y1="9.994" x2="6.795" transform="translate(177.578 531.471)" fill="none" stroke="#75e6b5" stroke-linecap="round" stroke-miterlimit="10" stroke-width="2.745"/>
          <line id="Línea_57" data-name="Línea 57" x2="11.052" y2="12.18" transform="translate(164.88 565.99)" fill="none" stroke="#75e6b5" stroke-linecap="round" stroke-miterlimit="10" stroke-width="2.745"/>
        </g>
        <g id="Grupo_1843" data-name="Grupo 1843">
          <path id="Trazado_1934" data-name="Trazado 1934" d="M102.271,505.689s34.979,44.791,44.385,66.15,7.574,18.394,7.574,18.394" fill="none" stroke="#3cb18b" stroke-linecap="round" stroke-miterlimit="10" stroke-width="2.745"/>
          <line id="Línea_58" data-name="Línea 58" x1="16.234" y1="7.708" transform="translate(94.922 509.673)" fill="none" stroke="#3cb18b" stroke-linecap="round" stroke-miterlimit="10" stroke-width="2.745"/>
          <line id="Línea_59" data-name="Línea 59" y1="12.351" transform="translate(136.047 541.181)" fill="none" stroke="#3cb18b" stroke-linecap="round" stroke-miterlimit="10" stroke-width="2.745"/>
          <line id="Línea_60" data-name="Línea 60" x1="14.255" y1="6.068" transform="translate(136.662 575.562)" fill="none" stroke="#3cb18b" stroke-linecap="round" stroke-miterlimit="10" stroke-width="2.745"/>
        </g>
        <g id="Grupo_1844" data-name="Grupo 1844">
          <path id="Trazado_1935" data-name="Trazado 1935" d="M119.025,606.278s16.348,4.556,21.107,8.671" fill="none" stroke="#75e6b5" stroke-linecap="round" stroke-miterlimit="10" stroke-width="2.745"/>
          <line id="Línea_61" data-name="Línea 61" x2="1.802" y2="6.889" transform="translate(126.521 602.37)" fill="none" stroke="#75e6b5" stroke-linecap="round" stroke-miterlimit="10" stroke-width="2.745"/>
        </g>
        <rect id="Rectángulo_498" data-name="Rectángulo 498" width="59.696" height="10.516" rx="3.832" transform="translate(146.34 624.207)" fill="url(#linear-gradient-3)"/>
      </g>
    </g>
    <g id="Ornament">
      <g id="Cloud">
        <path id="Trazado_1936" data-name="Trazado 1936" d="M173.991,271.021h-2.979c0-6.966-7.42-13.78-16.573-13.78s-16.573,6.814-16.573,13.78h-3.724a8.708,8.708,0,0,0,0,17.414h39.849a8.708,8.708,0,0,0,0-17.414Z" fill="url(#linear-gradient-21)"/>
        <circle id="Elipse_157" data-name="Elipse 157" cx="2.212" cy="2.212" r="2.212" transform="translate(142.964 276.174)" fill="url(#linear-gradient-22)"/>
        <circle id="Elipse_158" data-name="Elipse 158" cx="2.212" cy="2.212" r="2.212" transform="translate(152.543 276.174)" fill="url(#linear-gradient-22)"/>
        <circle id="Elipse_159" data-name="Elipse 159" cx="2.212" cy="2.212" r="2.212" transform="translate(162.121 276.174)" fill="url(#linear-gradient-22)"/>
      </g>
      <g id="Cloud-2" data-name="Cloud">
        <path id="Trazado_1937" data-name="Trazado 1937" d="M767.745,136.771h-2.726c0-6.031-6.787-12.6-15.159-12.6s-15.159,6.573-15.159,12.6h-3.407c-4.327,0-7.835,4.115-7.835,8.443s3.508,8.442,7.835,8.442h36.451c4.327,0,7.835-4.115,7.835-8.442S772.072,136.771,767.745,136.771Z" fill="url(#linear-gradient-25)"/>
        <circle id="Elipse_160" data-name="Elipse 160" cx="2.024" cy="2.024" r="2.024" transform="translate(739.365 141.126)" fill="url(#linear-gradient-22)"/>
        <circle id="Elipse_161" data-name="Elipse 161" cx="2.024" cy="2.024" r="2.024" transform="translate(748.126 141.126)" fill="url(#linear-gradient-22)"/>
        <circle id="Elipse_162" data-name="Elipse 162" cx="2.024" cy="2.024" r="2.024" transform="translate(756.887 141.126)" fill="url(#linear-gradient-22)"/>
      </g>
      <g id="Paper_Plane" data-name="Paper Plane">
        <path id="Trazado_1938" data-name="Trazado 1938" d="M560.954,92.714l19.22,35.266,59.274-30.932Z" fill="#afabc6"/>
        <path id="Trazado_1939" data-name="Trazado 1939" d="M576.159,86.942l3.835,41.17,75.478-30.877Z" fill="url(#linear-gradient-29)"/>
      </g>
      <g id="Mail">
        <rect id="Rectángulo_499" data-name="Rectángulo 499" width="41.979" height="24.925" transform="matrix(0.924, 0.383, -0.383, 0.924, 811.008, 210.68)" fill="url(#linear-gradient-30)"/>
        <rect id="Rectángulo_500" data-name="Rectángulo 500" width="29.991" height="30.974" transform="matrix(0.924, 0.383, -0.383, 0.924, 823.641, 195.882)" fill="url(#linear-gradient-31)"/>
        <path id="Trazado_1940" data-name="Trazado 1940" d="M849.714,226.89l-24.152,3.4-14.595-19.623-9.657,23.259L840.036,250Z" fill="url(#linear-gradient-32)"/>
        <path id="Trazado_1941" data-name="Trazado 1941" d="M835.62,206.137l.323,4.964,4.272,2.548-4.621,1.841-1.1,4.85-3.179-3.826-4.954.45,2.656-4.205-1.958-4.572,4.82,1.227Z" fill="url(#linear-gradient-22)"/>
        <rect id="Rectángulo_501" data-name="Rectángulo 501" width="5.775" height="1.877" transform="matrix(0.924, 0.383, -0.383, 0.924, 810.228, 228.19)" fill="#f1f2fe"/>
        <rect id="Rectángulo_502" data-name="Rectángulo 502" width="5.775" height="1.877" transform="matrix(0.924, 0.383, -0.383, 0.924, 832.593, 237.476)" fill="#f1f2fe"/>
      </g>
      <path id="Star" d="M373.6,80.461l8.424,8.193,11.524-2.295L388.358,96.9l5.744,10.251-11.631-1.676-7.975,8.63-2-11.579L361.824,97.61l10.395-5.48Z" fill="url(#linear-gradient-34)"/>
      <g id="Dashed_Line" data-name="Dashed Line">
        <g id="Grupo_1845" data-name="Grupo 1845">
          <path id="Trazado_1942" data-name="Trazado 1942" d="M217.568,468.27a64.507,64.507,0,0,0-6.552-4.771l1.109-1.734a66.656,66.656,0,0,1,6.761,4.924Zm-10.032-6.864a79.486,79.486,0,0,0-7.272-3.631l.826-1.887a82.692,82.692,0,0,1,7.459,3.725ZM196.5,456.235c-2.491-.95-5.091-1.8-7.728-2.537l.551-1.983c2.7.75,5.361,1.624,7.911,2.6ZM184.826,452.7c-2.61-.6-5.3-1.1-8.006-1.475l.286-2.039c2.761.388,5.514.895,8.181,1.509Zm-12.052-1.96q-1.914-.191-3.906-.309-2.183-.133-4.281-.295l.159-2.053q2.08.162,4.246.292,2.032.123,3.987.318Zm-12.309-.965c-2.915-.284-5.682-.623-8.225-1.007l.307-2.035c2.508.378,5.239.713,8.118.995Zm-12.32-1.7c-2.915-.545-5.643-1.184-8.109-1.9l.574-1.975c2.4.7,5.064,1.323,7.913,1.855Zm-12.088-3.2a41.462,41.462,0,0,1-7.6-3.633l1.088-1.748a39.327,39.327,0,0,0,7.221,3.449Zm-11.049-6.134a22.713,22.713,0,0,1-5.409-6.627l1.816-.967a20.694,20.694,0,0,0,4.925,6.024Zm-7.041-10.6a28.051,28.051,0,0,1-1.132-8.2v-.226l1.372.019v.207a25.834,25.834,0,0,0,1.391,7.6Zm1.151-12.41-2.045-.231c.035-.309.073-.624.116-.941a21.517,21.517,0,0,1,2.3-7.254l1.819.962a19.508,19.508,0,0,0-2.08,6.566C119.189,415.129,119.152,415.427,119.118,415.724Zm4.35-10.711-1.6-1.3a28.417,28.417,0,0,1,6.34-5.658l1.143,1.712A26.4,26.4,0,0,0,123.468,405.013Zm9.331-7.278-.957-1.823a56,56,0,0,1,7.71-3.281l.671,1.946A54.057,54.057,0,0,0,132.8,397.735Zm11.3-4.377-.567-1.978c2.5-.717,5.224-1.37,8.088-1.94l.4,2.019C149.212,392.018,146.547,392.657,144.1,393.358Zm11.942-2.63L155.7,388.7c2.572-.429,5.334-.814,8.209-1.143l.234,2.045C161.3,389.924,158.578,390.3,156.04,390.728Zm86.329-1.875h-.653v-1.372h.653c2.773,0,5.454-.133,7.966-.3l.14,1.731C247.917,389.083,245.19,388.853,242.369,388.853Zm-4.337.537q-2.145-.068-4.4-.2l-3.848-.214.112-2.056,3.854.214q2.228.129,4.345.192Zm-69.812-.214-.2-2.05c2.608-.247,5.383-.457,8.248-.627l.122,2.056C173.554,388.722,170.8,388.931,168.22,389.176Zm86.4-.353-.228-2.045a74.387,74.387,0,0,0,8-1.316l.451,2.007A75.957,75.957,0,0,1,254.618,388.823Zm-28.942-.051q-4.143-.2-8.217-.355l.076-2.056q4.086.153,8.24.355Zm-45.183-.43-.091-2.056c2.663-.118,5.441-.208,8.256-.264l.041,2.058C185.9,388.136,183.14,388.225,180.493,388.342Zm32.857-.065q-4.157-.131-8.219-.2l.035-2.058q4.075.067,8.248.2ZM192.8,388.02l-.019-2.059c1.441-.013,2.891-.016,4.356-.018q1.935,0,3.9.018l-.019,2.059c-1.421-.014-2.824-.022-4.232-.019Q194.78,388,192.8,388.02Zm74.093-1.614-.6-1.97a39.453,39.453,0,0,0,7.409-3.025l.983,1.808A41.413,41.413,0,0,1,266.9,386.406Zm11.387-5.484-1.24-1.643a17.843,17.843,0,0,0,5.114-5.778l1.817.968A19.886,19.886,0,0,1,278.285,380.922Zm7.2-10.569-2.013-.43a13.434,13.434,0,0,0,.294-2.8,14.969,14.969,0,0,0-.806-4.768l1.952-.656a17.024,17.024,0,0,1,.912,5.424A15.507,15.507,0,0,1,285.486,370.353Zm-4.16-11.528a23.177,23.177,0,0,0-5.151-5.919l1.315-1.584a25.209,25.209,0,0,1,5.6,6.449Zm-8.379-8.223q-.741-.454-1.524-.871a33.565,33.565,0,0,0-5.756-2.341l.612-1.965a35.586,35.586,0,0,1,6.113,2.489q.836.445,1.63.932Zm-11.182-4.262c-2.383-.553-5.078-1.031-8.009-1.421l.272-2.041c3,.4,5.755.889,8.2,1.457ZM249.7,344.447c-2.5-.251-5.246-.46-8.165-.62l.113-2.056c2.95.162,5.728.373,8.258.629Zm-12.261-.81c-2.541-.1-5.226-.169-8.209-.214l.031-2.059c3,.046,5.7.116,8.258.215Zm-41.232-.159q-2.026,0-4.022-.012l.012-2.058c2.7.017,5.449.014,8.222,0l.01,2.058Q198.3,343.477,196.206,343.478Zm8.341-.032-.014-2.059,8.236-.056.012,2.058Zm-16.488-.02c-3.015-.043-5.716-.114-8.258-.215l.082-2.057c2.524.1,5.208.17,8.205.214Zm37.061-.048q-2.383-.018-4.793-.016l-3.432.006-.007-2.059,3.439-.006q2.415,0,4.807.016Z" fill="#b7d1f9"/>
        </g>
        <g id="Grupo_1846" data-name="Grupo 1846">
          <path id="Trazado_1943" data-name="Trazado 1943" d="M406.728,90.678l-.559-1.981c.031-.009,3.139-.883,8.035-2.075l.486,2C409.835,89.8,406.758,90.669,406.728,90.678Zm11.962-3-.462-2.006c2.7-.622,5.417-1.214,8.08-1.76l.413,2.017C424.074,86.468,421.372,87.056,418.69,87.675Zm81.082-2.1c-1.6-.407-4.279-1.024-7.983-1.658l.347-2.029c3.771.646,6.509,1.276,8.142,1.691Zm-69.02-.452-.386-2.022c2.8-.534,5.538-1.016,8.15-1.433l.324,2.033C436.249,84.119,433.528,84.6,430.752,85.128Zm57-1.839c-2.617-.372-5.351-.695-8.129-.957l.193-2.049c2.81.266,5.578.591,8.227.968ZM442.9,83.094l-.289-2.039c2.846-.4,5.614-.738,8.227-1l.2,2.049C448.454,82.363,445.715,82.694,442.9,83.094Zm32.642-1.1c-2.668-.194-5.421-.34-8.182-.433l.069-2.057c2.787.093,5.568.24,8.263.437Zm-20.424-.236-.145-1.713c2.832-.2,5.521.038,7.993.038h.319l-.014,1.372h-.305C460.541,81.453,457.9,81.56,455.116,81.756Z" fill="#f9d375"/>
        </g>
        <g id="Grupo_1847" data-name="Grupo 1847">
          <path id="Trazado_1944" data-name="Trazado 1944" d="M471.437,148.351l-.171-2.052c1.791-.149,3.66-.355,5.557-.611l.277,2.039C475.168,147.989,473.263,148.2,471.437,148.351ZM481.2,147.1l-.34-2.03c2.582-.434,5.283-.966,8.028-1.583l.452,2.009C486.563,146.125,483.824,146.664,481.2,147.1Zm12.172-2.559-.5-2c2.569-.641,5.232-1.363,7.913-2.147l.579,1.975C498.663,143.168,495.974,143.9,493.377,144.545Zm11.954-3.366-.614-1.964c2.549-.8,5.172-1.661,7.794-2.571l.676,1.944C510.543,139.506,507.9,140.378,505.331,141.179Zm11.753-3.975-.7-1.935c2.519-.916,5.1-1.9,7.681-2.911l.754,1.916C522.223,135.295,519.621,136.281,517.084,137.2Zm11.569-4.47-.777-1.9c2.5-1.022,5.05-2.1,7.573-3.2l.823,1.887C533.734,130.626,531.17,131.707,528.653,132.734Zm11.4-4.888-.845-1.877c2.521-1.134,5.033-2.3,7.462-3.455l.887,1.857C545.115,125.537,542.59,126.706,540.056,127.846Zm11.227-5.277-.908-1.846c4.578-2.251,7.3-3.725,7.33-3.74l.981,1.81C558.658,118.808,555.9,120.3,551.283,122.569Z" fill="url(#linear-gradient-29)"/>
        </g>
      </g>
      <g id="Mail-2" data-name="Mail">
        <rect id="Rectángulo_503" data-name="Rectángulo 503" width="49.163" height="29.191" transform="matrix(-0.924, 0.383, -0.383, -0.924, 242.546, 149.804)" fill="url(#linear-gradient-36)"/>
        <rect id="Rectángulo_504" data-name="Rectángulo 504" width="35.124" height="36.275" transform="matrix(-0.924, 0.383, -0.383, -0.924, 230.467, 139.016)" fill="url(#linear-gradient-37)"/>
        <path id="Trazado_1945" data-name="Trazado 1945" d="M186.023,141.829l28.285,3.978L231.4,122.825l11.309,27.24-45.352,18.829Z" fill="url(#linear-gradient-38)"/>
        <path id="Trazado_1946" data-name="Trazado 1946" d="M202.528,117.524l-.378,5.813-5,2.984,5.412,2.156,1.292,5.68,3.723-4.481,5.8.526-3.111-4.925,2.293-5.355-5.645,1.437Z" fill="url(#linear-gradient-39)"/>
        <rect id="Rectángulo_505" data-name="Rectángulo 505" width="6.763" height="2.198" transform="matrix(-0.924, 0.383, -0.383, -0.924, 233.109, 145.381)" fill="#f1f2fe"/>
        <rect id="Rectángulo_506" data-name="Rectángulo 506" width="6.763" height="2.198" transform="matrix(-0.924, 0.383, -0.383, -0.924, 206.916, 156.256)" fill="#f1f2fe"/>
      </g>
    </g>
    <g id="User_2" data-name="User 2">
      <g id="Feet">
        <path id="Trazado_1947" data-name="Trazado 1947" d="M134.675,618.031H112.718s-2.173,14.355,2.287,15.782,16.239,1.146,16.239,1.146Z" fill="url(#linear-gradient-40)"/>
        <path id="Trazado_1948" data-name="Trazado 1948" d="M134.349,618.031H131.66l-4.236,16.943c2.228.022,3.82-.015,3.82-.015l3.4-16.794Z" fill="#0f0f0f"/>
        <path id="Trazado_1949" data-name="Trazado 1949" d="M322.226,637.93l-90.98-14.066L130.558,634.445v-26.02l100.866-18.183,47.859,2.744S338,624.774,322.226,637.93Z" fill="url(#linear-gradient-41)"/>
        <g id="Grupo_1848" data-name="Grupo 1848">
          <path id="Trazado_1950" data-name="Trazado 1950" d="M299.354,621.119a.353.353,0,0,1-.085-.011c-.562-.144-56.29-14.371-62.318-13.715-6.1.679-97.874,12.913-98.8,13.037a.344.344,0,0,1-.091-.681c.926-.123,92.706-12.358,98.815-13.037,6.17-.7,60.264,13.143,62.564,13.731a.343.343,0,0,1-.085.676Z" fill="#dbdfef"/>
        </g>
        <path id="Trazado_1951" data-name="Trazado 1951" d="M238.837,590.667l-3.527-.2C229.136,596.725,217.472,615,217.472,615l3.417,9.954,2.791-.293Z" fill="#0f0f0f" opacity="0.5"/>
        <path id="Trazado_1952" data-name="Trazado 1952" d="M324.279,629.324l-57.634-37.062-3.419-.2c6.944,9.052,24.536,31.274,35.1,38.316a80.17,80.17,0,0,0,9.071,5.255l14.831,2.293C325.061,635.566,325.481,632.6,324.279,629.324Z" fill="#0f0f0f" opacity="0.5"/>
        <path id="Trazado_1953" data-name="Trazado 1953" d="M207.408,603.622l-22.3,20.242s-14.41-.515-13.38-6.261,21.614-24.617,21.614-24.617Z" fill="url(#linear-gradient-40)"/>
        <path id="Trazado_1954" data-name="Trazado 1954" d="M191.054,595.127l9.515,14.7,6.839-6.208-14.066-10.636S192.455,593.8,191.054,595.127Z" fill="#0f0f0f" opacity="0.5"/>
        <path id="Trazado_1955" data-name="Trazado 1955" d="M362.463,616.949,250,536.96a5.534,5.534,0,0,0-7.082.684l-53.7,54.656,31.447,32.936,22.448-43.8a5.537,5.537,0,0,1,8.745-1.484c14.543,13.828,55.308,56.767,70.361,57.979C340.752,639.421,362.463,616.949,362.463,616.949Z" fill="url(#linear-gradient-43)"/>
        <path id="Trazado_1956" data-name="Trazado 1956" d="M321.891,637.877a23.657,23.657,0,0,0-38.3-27.2c1.853,1.715,3.716,3.414,5.574,5.076a16.107,16.107,0,0,1,25.514,19.471A21.485,21.485,0,0,0,321.891,637.877Z" fill="#dbdfef" opacity="0.1"/>
        <path id="Trazado_1957" data-name="Trazado 1957" d="M193.488,616.652l-.27-.189a15,15,0,0,1-8.882,3.184c-2.985.117-5.763-1.717-7.707-3.448,2.036-5.061-2.17-9.72-8.675-4.693-5.274,4.076-11.884,11.162-15.391,15.064-.792.142-1.6.274-2.449.381-18.87,2.4-22.3,10.979-22.3,10.979h58.659a3.063,3.063,0,0,0,3.052-2.852,36.56,36.56,0,0,0,.007-5.725c-.194-2.16,2.086-4.723,4.3-6.672A3.839,3.839,0,0,0,193.488,616.652Z" fill="url(#linear-gradient-32)"/>
        <path id="Trazado_1958" data-name="Trazado 1958" d="M113.754,628.08c-1.1-2.6-.026-5.782,1.113-8.064,5.387-.225,8.412-5.33,1.63-8.945-7.444-3.968-7.935-4.23-19.857-8.124-.184-.316-.369-.631-.549-.961C87.922,587.018,78.578,587.2,78.578,587.2l18.189,49.2a2.935,2.935,0,0,0,3.7,1.542A43.1,43.1,0,0,0,106,635.9c2.025-.933,5.206.064,7.774,1.223a4.329,4.329,0,0,0,5.714-2.437l.1-.293A12.543,12.543,0,0,1,113.754,628.08Z" fill="url(#linear-gradient-32)"/>
        <g id="Grupo_1849" data-name="Grupo 1849">
          <path id="Trazado_1959" data-name="Trazado 1959" d="M332.339,619.771q-.375,0-.759-.025c-6.857-.457-38.9-27.774-62.3-47.721-11.291-9.625-21.042-17.937-22.138-18.156-2.33-.454-26.3,25.775-40.844,42.431a.343.343,0,1,1-.517-.451c3.842-4.4,37.363-42.662,41.394-42.662a.555.555,0,0,1,.1.009c1.213.243,8.532,6.444,22.449,18.307,22.01,18.762,55.273,47.117,61.9,47.558,9.921.666,15.387-12.687,15.44-12.823a.344.344,0,0,1,.638.256C347.649,606.63,342.275,619.771,332.339,619.771Z" fill="#dbdfef"/>
        </g>
        <g id="Grupo_1850" data-name="Grupo 1850">
          <path id="Trazado_1960" data-name="Trazado 1960" d="M186.823,635.871H142.909a.686.686,0,1,1,0-1.372h43.914a.686.686,0,1,1,0,1.372Z" fill="#dbdfef"/>
        </g>
        <g id="Grupo_1851" data-name="Grupo 1851">
          <path id="Trazado_1961" data-name="Trazado 1961" d="M97.965,632.441a.685.685,0,0,1-.643-.449L84.628,597.684a.686.686,0,1,1,1.287-.475l12.694,34.308a.686.686,0,0,1-.644.924Z" fill="#dbdfef"/>
        </g>
      </g>
      <g id="Head_and_Body" data-name="Head and Body">
        <path id="Trazado_1962" data-name="Trazado 1962" d="M308.764,466.26,290.15,514.038a.628.628,0,0,1-1.081.157l-7.556-9.764-8.793,15.136,12.224,17.962s10.293,14.631,21.271.908,10.917-43.149,12.008-56.266S315.086,460.3,308.764,466.26Z" fill="url(#linear-gradient-46)"/>
        <g id="Grupo_1852" data-name="Grupo 1852">
          <path id="Trazado_1963" data-name="Trazado 1963" d="M277.4,520.025a.339.339,0,0,1-.19-.058.343.343,0,0,1-.1-.476l5.489-8.234a.343.343,0,1,1,.571.382l-5.489,8.233A.345.345,0,0,1,277.4,520.025Z" fill="#e65a7f"/>
        </g>
        <g id="Grupo_1853" data-name="Grupo 1853">
          <path id="Trazado_1964" data-name="Trazado 1964" d="M294.286,527.035c-6.343,0-14.057-10.754-14.425-11.272a.343.343,0,0,1,.56-.4c.1.139,9.958,13.884,16.018,10.422,6.173-3.528,7.138-12.455,7.147-12.544a.343.343,0,1,1,.683.067c-.038.381-1.007,9.368-7.49,13.073A4.94,4.94,0,0,1,294.286,527.035Z" fill="#e65a7f"/>
        </g>
        <path id="Trazado_1965" data-name="Trazado 1965" d="M306.215,538.437a36.067,36.067,0,0,0,5.318-9.771,117.819,117.819,0,0,0-.586-18.819c-1.783-19.333-6.3-27.288-7.722-29.37l-2.23,5.723a142.091,142.091,0,0,0-3.014,14.664c-1.624,11.1.686,25.45-3.888,27.966s-21.373-9.263-21.373-9.263l12.224,17.962S295.237,552.16,306.215,538.437Z" fill="#0f0f0f" opacity="0.5"/>
        <path id="Trazado_1966" data-name="Trazado 1966" d="M281.513,504.431,267.79,485.983s2.11-3.812-3.431-14.182c-5.156-9.65-9.263-12.585-7.547-6.94s2.4,7.812,2.4,7.812a58.279,58.279,0,0,0-10.176-10.6c-5.489-4.143-6.292-3.268-5.949,2.279s-4.062,9.9-4.062,9.9,20.585,20.27,21.244,22.329,12.45,22.986,12.45,22.986Z" fill="url(#linear-gradient-40)"/>
        <path id="Trazado_1967" data-name="Trazado 1967" d="M289.55,451.06a19.532,19.532,0,0,1,0,13.271c-2.547,7.548-.685,17.545,10.421,19.556s19.967-7.662,19.967-7.662-6.861-24.931-12.007-29.391S289.55,451.06,289.55,451.06Z" fill="url(#linear-gradient-10)"/>
        <path id="Trazado_1968" data-name="Trazado 1968" d="M273.623,427.279s5.146,6.518,4.117,10.292-2.473,6.518.136,6.862,4.667-1.03,9.47,4.117,4.438,6.675,9.606,6.175a8.374,8.374,0,0,0,5.832-3.431,27.37,27.37,0,0,1,5.147,11.322,44.929,44.929,0,0,0,3.087,10.292s21.958-5.146,14.753-26.417-13.723-35.68-22.3-40.14-20.242-3.088-26.761,2.744S273.623,427.279,273.623,427.279Z" fill="url(#linear-gradient-40)"/>
        <path id="Trazado_1969" data-name="Trazado 1969" d="M322.927,451.061a188.24,188.24,0,0,1-13.28,18.257c-7.549,9.08-9.4,23.146-9.676,34.124-.193,7.736,11.282,36.123,18.079,52.22a13.913,13.913,0,0,1-5.937,17.5l-8.3,4.73s22.643,27.789,35.68,33.279,29.293,6.433,29.293,6.433,3.986-48.632-5.277-89.116S343.069,450.828,322.927,451.061Z" fill="url(#linear-gradient-50)"/>
        <path id="Trazado_1970" data-name="Trazado 1970" d="M332.66,455.411s-18.711,3.845-21,23.136.409,53.286,15.54,79.031,33.009,55.408,41.243,60.025,8.217,0,8.217,0l-.971-98.036s-10.808-24.13-18.584-39.225S339.3,455.995,332.66,455.411Z" fill="url(#linear-gradient-51)"/>
        <path id="Trazado_1971" data-name="Trazado 1971" d="M323.178,549.944l26.265-44.786-1.029-2.4L318.133,537.27A112.644,112.644,0,0,0,323.178,549.944Z" fill="#0f0f0f" opacity="0.5"/>
        <g id="Grupo_1854" data-name="Grupo 1854">
          <path id="Trazado_1972" data-name="Trazado 1972" d="M370.715,611.971a.342.342,0,0,1-.277-.141c-.1-.137-10.243-13.977-25.62-35.684-14.64-20.669-26.892-52.336-29.795-77.009-2.731-23.219,9.118-36.282,9.239-36.411a.343.343,0,1,1,.5.467c-.117.127-11.752,12.975-9.06,35.864,2.891,24.57,15.093,56.107,29.674,76.691,15.373,21.7,25.512,35.539,25.613,35.676a.343.343,0,0,1-.074.48A.34.34,0,0,1,370.715,611.971Z" fill="#e65a7f"/>
        </g>
        <path id="Trazado_1973" data-name="Trazado 1973" d="M376.059,556.822a31.551,31.551,0,0,1-7.393-52.6c-2.228-4.787-4.757-10.142-7.237-15.224a48.02,48.02,0,0,0,14.8,85.382Z" fill="#dbdfef" opacity="0.25"/>
        <path id="Trazado_1974" data-name="Trazado 1974" d="M267.79,431.739s16.125-10.979,21.614-12.694,5.833-.687,7.548,5.146l1.715,5.832s3.088-10.3,7.205-9.093,6.519,4.29,4.46,9.093-2.744,9.949,4.46,15.1,16.627,8.92,12.43,26.417S324.4,488,323.369,492.807s12.351-19.213,22.3-13.723,15.782,15.438,20.585,3.431,10.293-24.255-9.606-44.206-12.878-1.559-29.426-34.6-37.132-18.516-37.132-18.516S246.519,387.824,267.79,431.739Z" fill="url(#linear-gradient-10)"/>
        <path id="Trazado_1975" data-name="Trazado 1975" d="M322.683,499.325s10.789-17.647,20.6-12.35c11.99,6.471,10.539,14.409,0,28.59-7.671,10.321-25.027,32.867-33.9,44.374a9.011,9.011,0,0,1-12.57,1.68L271.45,544.726l10.063-16.239,9.764,4.207a6.192,6.192,0,0,0,8.247-1.625Z" fill="url(#linear-gradient-53)"/>
        <g id="Grupo_1855" data-name="Grupo 1855">
          <path id="Trazado_1976" data-name="Trazado 1976" d="M299.547,549.356c-6.036,0-19.465-9.309-20.06-9.723a.343.343,0,0,1,.393-.563c.15.1,15.036,10.425,20.332,9.549,4.384-.73,33.682-43.068,44.6-59.321a.343.343,0,1,1,.569.384c-1.609,2.395-39.486,58.686-45.057,59.614A4.8,4.8,0,0,1,299.547,549.356Z" fill="#e65a7f"/>
        </g>
        <g id="Grupo_1856" data-name="Grupo 1856">
          <path id="Trazado_1977" data-name="Trazado 1977" d="M242.4,501.243,220.429,482.73c-2.506-2.111-2.309-5.3.244-6.953l7.251-4.708c1.789-1.161,4.644-.714,6.481.913l16.289,14.431a5.446,5.446,0,0,1,1.569,5.995l-3.473,7.438A3.942,3.942,0,0,1,242.4,501.243Z" fill="#0f0f0f"/>
          <path id="Trazado_1978" data-name="Trazado 1978" d="M243.505,499.775l-21.971-18.513c-2.506-2.111-2.309-5.295.244-6.952l7.252-4.708c1.788-1.161,4.643-.715,6.48.912L251.8,484.945a5.448,5.448,0,0,1,1.569,6l-3.473,7.438A3.942,3.942,0,0,1,243.505,499.775Z" fill="url(#linear-gradient-54)"/>
          <path id="Trazado_1979" data-name="Trazado 1979" d="M242.681,497.466l-18.757-15.8c-2.139-1.8-1.971-4.521.208-5.936l6.191-4.019a4.857,4.857,0,0,1,5.532.779l13.907,12.32a4.648,4.648,0,0,1,1.339,5.118l-2.965,6.35A3.365,3.365,0,0,1,242.681,497.466Z" fill="url(#linear-gradient-55)"/>
        </g>
        <path id="Trazado_1980" data-name="Trazado 1980" d="M281.513,528.487s-28.132-13.494-30.534-19.784-5.489-16.811-7.548-18.755,0,8.691-1.715,9.377-13.38-8.844-16.468-13.342,1.029,18.965,7.891,26.837,38.311,31.906,38.311,31.906Z" fill="url(#linear-gradient-40)"/>
        <path id="Trazado_1981" data-name="Trazado 1981" d="M307.738,443.424l-4.954,7.87a24.338,24.338,0,0,1,2.917,4.727h0C309.3,448.4,307.738,443.424,307.738,443.424Z" fill="#0f0f0f" opacity="0.5"/>
        <path id="Trazado_1982" data-name="Trazado 1982" d="M248.512,526.568q1.193.981,2.4,1.962l7.5-12.933c-.89-.6-1.734-1.2-2.513-1.79Z" fill="#0f0f0f"/>
        <ellipse id="Elipse_163" data-name="Elipse 163" cx="1.372" cy="1.601" rx="1.372" ry="1.601" transform="translate(282.886 428.651)" fill="#0f0f0f"/>
        <g id="Grupo_1857" data-name="Grupo 1857">
          <path id="Trazado_1983" data-name="Trazado 1983" d="M279.627,429.5h-.018a.343.343,0,0,1-.325-.361c.008-.142.216-3.516,3-4.258a7.594,7.594,0,0,1,4.5.013.343.343,0,0,1-.254.637,7.092,7.092,0,0,0-4.074.013c-2.305.615-2.488,3.6-2.49,3.631A.343.343,0,0,1,279.627,429.5Z" fill="#0f0f0f"/>
        </g>
        <path id="Trazado_1984" data-name="Trazado 1984" d="M292.835,447.692a4.506,4.506,0,0,0,3.59-2.978c.984-2.683-.216-1.825-.216-1.825S293.679,447.307,292.835,447.692Z" fill="#ff7a9e"/>
        <g id="Grupo_1858" data-name="Grupo 1858">
          <path id="Trazado_1985" data-name="Trazado 1985" d="M276.938,543.812a.338.338,0,0,1-.2-.064.342.342,0,0,1-.082-.478l7.777-10.978a.343.343,0,0,1,.56.4l-7.777,10.978A.345.345,0,0,1,276.938,543.812Z" fill="#e65a7f"/>
        </g>
      </g>
    </g>
    <g id="Smartphone">
      <g id="Smartphone-2" data-name="Smartphone">
        <rect id="Rectángulo_507" data-name="Rectángulo 507" width="268.863" height="497.117" rx="12" transform="translate(375.69 141.723)" fill="url(#linear-gradient-57)"/>
        <rect id="Rectángulo_508" data-name="Rectángulo 508" width="249.566" height="461.436" rx="11.139" transform="translate(385.339 159.564)" fill="url(#linear-gradient-58)"/>
        <path id="Trazado_1986" data-name="Trazado 1986" d="M465.4,146.008a24.7,24.7,0,0,1-49.4.014,24.244,24.244,0,0,1,.388-4.187H402.514a37.613,37.613,0,0,0-.236,4.173,38.425,38.425,0,0,0,76.85.014,37.621,37.621,0,0,0-.237-4.187H465.017A24.082,24.082,0,0,1,465.4,146.008Z" fill="#fff" opacity="0.25"/>
        <path id="Trazado_1987" data-name="Trazado 1987" d="M550.489,616.547c0-33.348,27.346-60.326,60.7-60.326a61.126,61.126,0,0,1,33.995,10.318V538.516a88.731,88.731,0,0,0-33.995-6.941,85.122,85.122,0,0,0-85.241,84.972,83.1,83.1,0,0,0,2.783,22.069h25.986A59.583,59.583,0,0,1,550.489,616.547Z" fill="#fff" opacity="0.25"/>
      </g>
      <g id="Rate_1" data-name="Rate 1">
        <path id="Trazado_1988" data-name="Trazado 1988" d="M612.845,426.163,596.752,442.48a1.372,1.372,0,0,1-2.349-.964v-15.61Z" fill="url(#linear-gradient-59)"/>
        <rect id="Rectángulo_509" data-name="Rectángulo 509" width="211.338" height="88.744" rx="5" transform="translate(404.453 339.048)" fill="url(#linear-gradient-60)"/>
        <path id="Trazado_1989" data-name="Trazado 1989" d="M614.988,379.8a6.877,6.877,0,0,1-2.519.221c-20.072,0-35.564-14.94-35.564-34a20.728,20.728,0,0,1,1.548-6.572H559.237a35.088,35.088,0,0,0-.514,6.572c0,29,23.2,52.252,53.746,52.252a5.944,5.944,0,0,0,2.519-.411Z" fill="#fff" opacity="0.2"/>
        <circle id="Elipse_164" data-name="Elipse 164" cx="27.218" cy="27.218" r="27.218" transform="translate(416.916 355.46)" fill="#fff"/>
        <circle id="Elipse_165" data-name="Elipse 165" cx="9.378" cy="9.378" r="9.378" transform="translate(434.299 369.184)" fill="url(#linear-gradient-61)"/>
        <path id="Trazado_1990" data-name="Trazado 1990" d="M443.981,392.056h0a19.879,19.879,0,0,0-17.8,11.043,27.119,27.119,0,0,0,35.693.193A19.879,19.879,0,0,0,443.981,392.056Z" fill="url(#linear-gradient-50)"/>
        <path id="Trazado_1991" data-name="Trazado 1991" d="M492.8,357.669l2.775,5.624,6.206.9-4.491,4.377,1.06,6.181-5.551-2.918-5.551,2.918,1.06-6.181-4.491-4.377,6.206-.9Z" fill="url(#linear-gradient-63)"/>
        <path id="Trazado_1992" data-name="Trazado 1992" d="M517.6,357.669l2.775,5.624,6.206.9-4.491,4.377,1.06,6.181-5.551-2.918-5.551,2.918,1.06-6.181-4.491-4.377,6.206-.9Z" fill="url(#linear-gradient-63)"/>
        <path id="Trazado_1993" data-name="Trazado 1993" d="M542.386,357.669l2.775,5.624,6.206.9-4.491,4.377,1.06,6.181-5.551-2.918-5.551,2.918,1.06-6.181-4.491-4.377,6.206-.9Z" fill="url(#linear-gradient-63)"/>
        <path id="Trazado_1994" data-name="Trazado 1994" d="M567.178,357.669l2.775,5.624,6.206.9-4.491,4.377,1.06,6.181-5.551-2.918-5.551,2.918,1.06-6.181-4.491-4.377,6.206-.9Z" fill="url(#linear-gradient-63)"/>
        <path id="Trazado_1995" data-name="Trazado 1995" d="M591.969,357.669l2.775,5.624,6.206.9-4.491,4.377,1.06,6.181-5.551-2.918-5.551,2.918,1.06-6.181-4.491-4.377,6.206-.9Z" fill="url(#linear-gradient-63)"/>
        <rect id="Rectángulo_510" data-name="Rectángulo 510" width="99.165" height="6.862" transform="translate(483.823 383.42)" fill="#fcd6a5"/>
        <rect id="Rectángulo_511" data-name="Rectángulo 511" width="117.148" height="6.862" transform="translate(483.823 397.143)" fill="#fcd6a5"/>
      </g>
      <g id="Rate_2" data-name="Rate 2">
        <path id="Trazado_1996" data-name="Trazado 1996" d="M407.165,553.789l16.093,16.317a1.372,1.372,0,0,0,2.349-.964v-15.61Z" fill="url(#linear-gradient-68)"/>
        <rect id="Rectángulo_512" data-name="Rectángulo 512" width="211.338" height="88.744" rx="5" transform="translate(404.453 466.674)" fill="url(#linear-gradient-69)"/>
        <path id="Trazado_1997" data-name="Trazado 1997" d="M614.988,507.423a6.877,6.877,0,0,1-2.519.221c-20.072,0-35.564-14.94-35.564-34a20.728,20.728,0,0,1,1.548-6.572H559.237a35.089,35.089,0,0,0-.514,6.572c0,29,23.2,52.252,53.746,52.252a5.944,5.944,0,0,0,2.519-.411Z" fill="#fff" opacity="0.25"/>
        <circle id="Elipse_166" data-name="Elipse 166" cx="27.218" cy="27.218" r="27.218" transform="translate(416.916 483.086)" fill="#fff"/>
        <circle id="Elipse_167" data-name="Elipse 167" cx="9.378" cy="9.378" r="9.378" transform="translate(434.299 496.81)" fill="url(#linear-gradient-70)"/>
        <path id="Trazado_1998" data-name="Trazado 1998" d="M443.981,519.682h0a19.879,19.879,0,0,0-17.8,11.043,27.119,27.119,0,0,0,35.693.193A19.879,19.879,0,0,0,443.981,519.682Z" fill="url(#linear-gradient-71)"/>
        <path id="Trazado_1999" data-name="Trazado 1999" d="M492.8,485.295l2.775,5.624,6.206.9-4.491,4.377,1.06,6.181L492.8,499.46l-5.551,2.918,1.06-6.181-4.491-4.377,6.206-.9Z" fill="url(#linear-gradient-72)"/>
        <path id="Trazado_2000" data-name="Trazado 2000" d="M517.6,485.295l2.775,5.624,6.206.9-4.491,4.377,1.06,6.181L517.6,499.46l-5.551,2.918,1.06-6.181-4.491-4.377,6.206-.9Z" fill="url(#linear-gradient-72)"/>
        <path id="Trazado_2001" data-name="Trazado 2001" d="M542.386,485.295l2.775,5.624,6.206.9-4.491,4.377,1.06,6.181-5.551-2.918-5.551,2.918,1.06-6.181L533.4,491.82l6.206-.9Z" fill="url(#linear-gradient-72)"/>
        <path id="Trazado_2002" data-name="Trazado 2002" d="M567.178,485.295l2.775,5.624,6.206.9-4.491,4.377,1.06,6.181-5.551-2.918-5.551,2.918,1.06-6.181L558.2,491.82l6.206-.9Z" fill="url(#linear-gradient-72)"/>
        <path id="Trazado_2003" data-name="Trazado 2003" d="M591.969,485.295l2.775,5.624,6.206.9L596.46,496.2l1.06,6.181-5.551-2.918-5.551,2.918,1.06-6.181-4.491-4.377,6.206-.9Z" fill="url(#linear-gradient-72)"/>
        <rect id="Rectángulo_513" data-name="Rectángulo 513" width="99.165" height="6.862" transform="translate(483.823 511.046)" fill="#b7d1f9"/>
        <rect id="Rectángulo_514" data-name="Rectángulo 514" width="117.148" height="6.862" transform="translate(483.823 524.769)" fill="#b7d1f9"/>
      </g>
    </g>
    <g id="Pop_Up" data-name="Pop Up">
      <g id="Like">
        <path id="Trazado_2004" data-name="Trazado 2004" d="M359.664,325.923a31.156,31.156,0,0,0-9.538,59.23l-1.59,7.466a1.134,1.134,0,0,0,1.571,1.272l13.108-5.855a31.158,31.158,0,1,0-3.551-62.113Z" fill="url(#linear-gradient-46)"/>
        <path id="Trazado_2005" data-name="Trazado 2005" d="M360.465,325.854a30.962,30.962,0,0,0-10.572,2.861,14.218,14.218,0,1,1-17.111,21.5,30.841,30.841,0,0,0-.42,10.94,22.737,22.737,0,0,0,28.1-35.3Z" fill="#dbdfef" opacity="0.25"/>
        <path id="Trazado_2006" data-name="Trazado 2006" d="M363.533,350l-.054.054-.024-.025c-9.97-10.151-21.917,1.581-11.948,11.733l11.779,11.995,11.948-11.733-.023-.023.055-.053C385.377,352.018,373.645,340.071,363.533,350Z" fill="url(#linear-gradient-22)"/>
      </g>
      <g id="_5_Star" data-name="5 Star">
        <path id="Trazado_2007" data-name="Trazado 2007" d="M234.345,310.429l20.839,21.129a2.554,2.554,0,0,0,4.372-1.793V310.078Z" fill="url(#linear-gradient-79)"/>
        <rect id="Rectángulo_515" data-name="Rectángulo 515" width="288.904" height="121.315" rx="5" transform="translate(230.168 190.838)" fill="url(#linear-gradient-50)"/>
        <path id="Trazado_2008" data-name="Trazado 2008" d="M518.925,241.287a38.885,38.885,0,0,1-4.648.27,41.882,41.882,0,0,1-42.047-41.883,39.97,39.97,0,0,1,.927-8.435H450.9a60.683,60.683,0,0,0-.6,8.435,63.893,63.893,0,0,0,63.968,63.941c1.59,0,3.276-.178,4.648-.292Z" fill="#dbdfef" opacity="0.25"/>
        <circle id="Elipse_168" data-name="Elipse 168" cx="37.207" cy="37.207" r="37.207" transform="translate(247.205 213.273)" fill="#fff"/>
        <path id="Trazado_2009" data-name="Trazado 2009" d="M291.485,225.893s10.11.407,11.825,13.754-3.35,20.9.08,26.73,3.127,8.574,3.127,8.574H262.3s-3.774-1.688,0-11.651-.686-19.227,3.431-29.519S281.267,218.089,291.485,225.893Z" fill="url(#linear-gradient-10)"/>
        <circle id="Elipse_169" data-name="Elipse 169" cx="12.819" cy="12.819" r="12.819" transform="translate(270.968 232.033)" fill="url(#linear-gradient-40)"/>
        <path id="Trazado_2010" data-name="Trazado 2010" d="M284.2,263.3a27.175,27.175,0,0,0-24.346,15.123,37.169,37.169,0,0,0,48.815.255A27.176,27.176,0,0,0,284.2,263.3Z" fill="url(#linear-gradient-83)"/>
        <path id="Trazado_2011" data-name="Trazado 2011" d="M350.946,216.292l3.794,7.688,8.484,1.233-6.139,5.984,1.449,8.45-7.588-3.989-7.588,3.989,1.449-8.45-6.139-5.984,8.484-1.233Z" fill="#f9d375"/>
        <path id="Trazado_2012" data-name="Trazado 2012" d="M384.836,216.292l3.794,7.688,8.484,1.233-6.139,5.984,1.449,8.45-7.588-3.989-7.588,3.989,1.449-8.45-6.139-5.984,8.484-1.233Z" fill="#f9d375"/>
        <path id="Trazado_2013" data-name="Trazado 2013" d="M418.726,216.292l3.794,7.688L431,225.212l-6.139,5.984,1.449,8.45-7.588-3.989-7.588,3.989,1.449-8.45-6.139-5.984,8.484-1.233Z" fill="#f9d375"/>
        <path id="Trazado_2014" data-name="Trazado 2014" d="M452.617,216.292l3.794,7.688,8.484,1.233-6.139,5.984,1.449,8.45-7.588-3.989-7.588,3.989,1.449-8.45-6.139-5.984,8.484-1.233Z" fill="#f9d375"/>
        <path id="Trazado_2015" data-name="Trazado 2015" d="M486.507,216.292l3.794,7.688,8.484,1.233-6.139,5.984,1.449,8.45-7.588-3.989-7.588,3.989,1.449-8.45-6.139-5.984,8.484-1.233Z" fill="#f9d375"/>
        <rect id="Rectángulo_516" data-name="Rectángulo 516" width="135.561" height="9.38" transform="translate(338.668 251.495)" fill="#b7d1f9"/>
        <rect id="Rectángulo_517" data-name="Rectángulo 517" width="160.144" height="9.38" transform="translate(338.668 270.255)" fill="#b7d1f9"/>
        <path id="Trazado_2016" data-name="Trazado 2016" d="M269.163,242.015h19.212v-6.862l3.774,6.862h4.46s4.8-7.548-3.088-11.665S267.79,225.89,269.163,242.015Z" fill="url(#linear-gradient-10)"/>
      </g>
    </g>
    <g id="User_1" data-name="User 1">
      <g id="Feet-2" data-name="Feet">
        <path id="Trazado_2017" data-name="Trazado 2017" d="M823.649,591.637l6.413,15.544,2.343,14.556a2.847,2.847,0,0,0,3.73,2.451l19.738-7.384,25.829-4.645s5.081-15.521-5.47-16.919-22.3,3.412-28.99-1.986a25.359,25.359,0,0,1-8.4-12.28Z" fill="url(#linear-gradient-85)"/>
        <path id="Trazado_2018" data-name="Trazado 2018" d="M708.661,605.677a36.148,36.148,0,0,0,1.459,15.053c1.494,4.756,3.245,10.262,4.448,14.033a3.47,3.47,0,0,1-3.307,4.525H677.268a15.583,15.583,0,0,1,3.466-13.8c5.637-6.74,9.6-19.81,9.6-19.81Z" fill="url(#linear-gradient-50)"/>
        <path id="Trazado_2019" data-name="Trazado 2019" d="M789.184,401.6l57.065,184.189-24.27,10.286s-15.4-26.6-22.872-57.872-44.814-113.374-44.814-113.374l-11.9,8.4L711.722,611.17H685.671s1.867-44.761,6.068-72.3,7.236-122.624,7.236-122.624Z" fill="url(#linear-gradient-10)"/>
        <g id="Grupo_1859" data-name="Grupo 1859">
          <path id="Trazado_2020" data-name="Trazado 2020" d="M700.758,439.287a.686.686,0,0,1-.523-1.131l9.443-11.13v-9.354a.686.686,0,1,1,1.372,0v9.858l-9.769,11.515A.683.683,0,0,1,700.758,439.287Z" fill="#dbdfef"/>
        </g>
        <path id="Trazado_2021" data-name="Trazado 2021" d="M789.184,401.6,698.617,426.42l.358-10.326Z" fill="#0f0f0f" opacity="0.5"/>
        <path id="Trazado_2022" data-name="Trazado 2022" d="M876.232,595.24a46.179,46.179,0,0,0-9.629-.024c-1.729,2.182-4.194,7.068-2.641,16.285a31.821,31.821,0,0,0,.833,3.7l16.907-3.04S886.783,596.638,876.232,595.24Z" fill="#dbdfef"/>
        <path id="Trazado_2023" data-name="Trazado 2023" d="M881.7,612.159a28.119,28.119,0,0,0,.846-3.584c-7.289,1.291-28.859,5.308-39.34,9.392-5.361,2.088-8.631,3.476-10.639,4.39a2.773,2.773,0,0,0,3.566,1.831l19.738-7.384Z" fill="#afabc6"/>
        <path id="Trazado_2024" data-name="Trazado 2024" d="M714.568,635.114c-.59-1.852-1.314-4.3-2.073-6.692a17.952,17.952,0,0,0-11.769-7.724c-7.406-1.5-13.181-.66-17.607,1.47a34.869,34.869,0,0,1-2.385,3.691,16.222,16.222,0,0,0-3.466,14.13h33.993A3.76,3.76,0,0,0,714.568,635.114Z" fill="#dbdfef"/>
        <path id="Trazado_2025" data-name="Trazado 2025" d="M714.694,635.872H676.877a12.153,12.153,0,0,0,.391,4.117h33.993C713.379,639.989,714.928,637.244,714.694,635.872Z" fill="#afabc6"/>
        <g id="Grupo_1860" data-name="Grupo 1860">
          <path id="Trazado_2026" data-name="Trazado 2026" d="M690.81,607.4l-.056,0a.686.686,0,0,1-.629-.739L703.5,438.546a.706.706,0,0,1,.739-.63.686.686,0,0,1,.629.739l-13.379,168.11A.687.687,0,0,1,690.81,607.4Z" fill="#dbdfef"/>
        </g>
        <g id="Grupo_1861" data-name="Grupo 1861">
          <path id="Trazado_2027" data-name="Trazado 2027" d="M823.125,588.984a.688.688,0,0,1-.609-.367l-5.032-9.607c-3.577-6.828-9.918-27-14.549-41.724-1.947-6.194-3.629-11.542-4.7-14.634-3.61-10.38-39.874-96.525-40.239-97.394a.686.686,0,1,1,1.264-.533c.367.869,36.647,87.055,40.271,97.475,1.083,3.113,2.767,8.471,4.718,14.673,4.614,14.678,10.935,34.781,14.455,41.5l5.032,9.606a.686.686,0,0,1-.607,1.005Z" fill="#dbdfef"/>
        </g>
        <path id="Trazado_2028" data-name="Trazado 2028" d="M697.793,447.8c-.193,4.645-.408,9.6-.642,14.732a24.239,24.239,0,0,1-2.671,47.89c-.374,5.3-.767,10.267-1.174,14.723a38.874,38.874,0,0,0,4.487-77.345Z" fill="#dbdfef" opacity="0.1"/>
      </g>
      <g id="Body">
        <path id="Trazado_2029" data-name="Trazado 2029" d="M654.86,334.51l-3.667,27.028a6.808,6.808,0,0,0,1.174,4.829l26.914,35.715,3.589-23.925L672.678,361.44a6.812,6.812,0,0,1-.973-7.209l4.863-14.411Z" fill="url(#linear-gradient-40)"/>
        <path id="Trazado_2030" data-name="Trazado 2030" d="M654.335,338.382l18.164,13.5,1.072-3.177Z" fill="#0f0f0f" opacity="0.5"/>
        <path id="Trazado_2031" data-name="Trazado 2031" d="M689.872,265.011l-16.825,5.97a9.8,9.8,0,0,0-6.2,6.744l-15.491,59.061,38.513,20.657-4.2,60.57,106.786-16.8-24.508-87.88L783,305.275l-30.632-42a9.791,9.791,0,0,0-8.949-3.966Z" fill="url(#linear-gradient-50)"/>
        <path id="Trazado_2032" data-name="Trazado 2032" d="M714.252,285.472a41.422,41.422,0,0,0-6.524-22.363L693.5,264.625a29.49,29.49,0,0,1-35.411,46.5l-3.155,12.029a41.631,41.631,0,0,0,59.318-37.683Z" fill="#dbdfef" opacity="0.25"/>
        <g id="Grupo_1862" data-name="Grupo 1862">
          <path id="Trazado_2033" data-name="Trazado 2033" d="M741.241,397.773a.685.685,0,0,1-.672-.552L716.553,276.457a.686.686,0,1,1,1.346-.268l24.016,120.764a.685.685,0,0,1-.674.82Z" fill="#dbdfef"/>
        </g>
        <path id="Trazado_2034" data-name="Trazado 2034" d="M724.828,257.659l-7.646,12.6,5.952,5.339,6.044-16.3Z" fill="url(#linear-gradient-22)"/>
        <path id="Trazado_2035" data-name="Trazado 2035" d="M717.181,270.263l-4.9,7-23.225-12.6,6.543-3.466Z" fill="url(#linear-gradient-22)"/>
        <path id="Trazado_2036" data-name="Trazado 2036" d="M710.313,392.374a21.132,21.132,0,0,0-20.991-24.563,21.145,21.145,0,0,0-11.289,3.266l1.127,8.466a13.939,13.939,0,0,1,23.422,13.864Z" fill="#dbdfef" opacity="0.25"/>
        <g id="Like_Sign" data-name="Like Sign">
          <path id="Trazado_2037" data-name="Trazado 2037" d="M829,368.2,818.456,289a8.379,8.379,0,0,0-9.412-7.2l-132.1,17.584a8.38,8.38,0,0,0-7.2,9.412l10.542,79.2c.611,4.588,4.36,7.812,8.948,7.2l109.647-14.657v13.688c0,1.821,2.656,2.744,3.959,1.471L821.591,377.6A8.553,8.553,0,0,0,829,368.2Z" fill="url(#linear-gradient-46)"/>
          <path id="Trazado_2038" data-name="Trazado 2038" d="M825.778,344l-2.713-20.378a27.432,27.432,0,1,1-38.528-38.564L760.961,288.2A44.592,44.592,0,0,0,825.778,344Z" fill="#dbdfef" opacity="0.25"/>
          <path id="Trazado_2039" data-name="Trazado 2039" d="M747.518,317.111l-.106.145-.065-.048c-26.944-19.638-50.056,12.071-23.112,31.71l31.836,23.2,23.112-31.709-.061-.045.1-.145C798.788,313.386,767.079,290.274,747.518,317.111Z" fill="url(#linear-gradient-22)"/>
        </g>
        <path id="Trazado_2040" data-name="Trazado 2040" d="M682.169,404.008s-9.1-4.2-10.853-16.8,3.5-21.883,5.252-20.92,2.8,3.178,1.4,10.473,10.854.758,16.456,0,8.4,2.858,3.5,7,1.05,9.16,0,14S687.771,405.409,682.169,404.008Z" fill="url(#linear-gradient-40)"/>
        <path id="Trazado_2041" data-name="Trazado 2041" d="M824.85,366.323s6.875-4.271,7.024-14.543-4.981-17.183-6.288-16.237-1.928,2.824-.08,8.53-8.62,1.686-13.184,1.636-6.447,3.125-2.108,5.958.069,7.443,1.392,11.22S820.5,368,824.85,366.323Z" fill="url(#linear-gradient-95)"/>
        <path id="Trazado_2042" data-name="Trazado 2042" d="M669.543,389.16l3.489,4.63c-2.154-4.436-2.069-11.489-2.069-11.489A29.757,29.757,0,0,0,669.543,389.16Z" fill="#0f0f0f" opacity="0.5"/>
        <g id="Grupo_1863" data-name="Grupo 1863">
          <path id="Trazado_2043" data-name="Trazado 2043" d="M690.464,412.869a.686.686,0,0,1-.112-1.363l94.691-15.782a.686.686,0,1,1,.226,1.354L690.578,412.86A.729.729,0,0,1,690.464,412.869Z" fill="#dbdfef"/>
        </g>
      </g>
      <g id="Head">
        <path id="Trazado_2044" data-name="Trazado 2044" d="M723.843,212.291s12.187-.988,11.529-16.8-11.784-29.118-21.666-24.177-10.944,17.259-27.742,21.212-23.348,16.7-18.275,26.85c4.091,8.181.985,2.826,2.961,16.65s19.6,7.906,25.195,3.613S723.843,212.291,723.843,212.291Z" fill="url(#linear-gradient-96)"/>
        <path id="Trazado_2045" data-name="Trazado 2045" d="M722.328,209.724a2.042,2.042,0,0,1,3.479.667c1.3,3.915,1.988,13.312,1.193,21.258-1.317,13.176-4.8,17.863-4.8,17.863l2.249,8.777-7.264,11.974-19.5-8.191s-2.829-13.219-5.464-16.183-5.929.658-11.2-2.306-5.27-12.517-.329-11.529,8.234,4.612,9.552-4.282,2.322-13.505,12.36-12.516C710.593,216.042,718.689,213.7,722.328,209.724Z" fill="url(#linear-gradient-97)"/>
        <path id="Trazado_2046" data-name="Trazado 2046" d="M722.2,249.512s-2.608,9.566-8.49,8.725-17.531-10.7-17.531-10.7S712.684,262.327,722.2,249.512Z" fill="#0f0f0f" opacity="0.5"/>
        <g id="Grupo_1865" data-name="Grupo 1865">
          <g id="Grupo_1864" data-name="Grupo 1864">
            <path id="Trazado_2047" data-name="Trazado 2047" d="M696.614,222.941a.33.33,0,0,1-.306-.453l.082-.2a5.032,5.032,0,0,1,6.347-2.886l.134.048a.329.329,0,1,1-.217.621l-.134-.047a4.378,4.378,0,0,0-5.519,2.51l-.082.2A.33.33,0,0,1,696.614,222.941Z" fill="#0f0f0f"/>
          </g>
        </g>
        <g id="Grupo_1867" data-name="Grupo 1867">
          <g id="Grupo_1866" data-name="Grupo 1866">
            <path id="Trazado_2048" data-name="Trazado 2048" d="M722.91,219.268a.33.33,0,0,1-.253-.119l-.347-.415a4.041,4.041,0,0,0-5.563-.623l-.368.282a.329.329,0,1,1-.4-.523l.369-.282a4.7,4.7,0,0,1,6.467.723l.347.416a.33.33,0,0,1-.252.541Z" fill="#0f0f0f"/>
          </g>
        </g>
        <path id="Trazado_2049" data-name="Trazado 2049" d="M708.252,245.051l9.924-2.127S714.632,252.281,708.252,245.051Z" fill="#ff7a9e"/>
        <g id="Grupo_1868" data-name="Grupo 1868">
          <path id="Trazado_2050" data-name="Trazado 2050" d="M713.3,238.532a.329.329,0,0,1-.091-.646c1.148-.328,3.129-1.063,3.56-1.637.326-.434-.665-3.472-1.794-6.038a.33.33,0,1,1,.6-.266c.585,1.329,2.438,5.74,1.719,6.7-.706.94-3.581,1.783-3.906,1.876A.361.361,0,0,1,713.3,238.532Z" fill="#0f0f0f"/>
        </g>
        <path id="Trazado_2051" data-name="Trazado 2051" d="M703.2,221.514" fill="none" stroke="#0f0f0f" stroke-linecap="round" stroke-miterlimit="10" stroke-width="0.659"/>
        <g id="Grupo_1870" data-name="Grupo 1870">
          <g id="Grupo_1869" data-name="Grupo 1869">
            <path id="Trazado_2052" data-name="Trazado 2052" d="M717.8,224.478a.659.659,0,0,1-.483-1.107c.174-.187,1.74-1.82,3.29-1.4,1.613.44,1.7,1.339,1.7,1.515a.66.66,0,0,1-1.309.115,1.46,1.46,0,0,0-.733-.359c-.611-.167-1.6.616-1.978,1.022A.66.66,0,0,1,717.8,224.478Zm3.2-.857Zm-.021-.125Zm0,0v0Zm0,0v0Z" fill="#0f0f0f"/>
          </g>
        </g>
        <g id="Grupo_1872" data-name="Grupo 1872">
          <g id="Grupo_1871" data-name="Grupo 1871">
            <path id="Trazado_2053" data-name="Trazado 2053" d="M698.484,227.936a.725.725,0,0,1-.254-.046.71.71,0,0,1-.4-.91c.071-.187.548-1.189,3.063-2.561a2.72,2.72,0,0,1,2.469-.29,2.469,2.469,0,0,1,1.282,1.621.693.693,0,0,1-1.349.318,1.119,1.119,0,0,0-.508-.678,1.574,1.574,0,0,0-1.231.246c-2.051,1.119-2.439,1.858-2.443,1.866A.665.665,0,0,1,698.484,227.936Z" fill="#0f0f0f"/>
          </g>
        </g>
        <path id="Trazado_2054" data-name="Trazado 2054" d="M713.3,244.9a6.825,6.825,0,0,0,3.15-1.607l-6.9,1.479A6.468,6.468,0,0,0,713.3,244.9Z" fill="#fff"/>
      </g>
    </g>
  </g>
</svg>
