<svg id="_01" data-name="01" xmlns="http://www.w3.org/2000/svg" viewBox="0 0 4680 3120"><defs><style>.cls-1,.cls-69,.cls-83{fill:#fff;}.cls-2{fill:#ebebf7;}.cls-3{fill:#999faf;}.cls-4{fill:#ade6e8;}.cls-5{fill:#2a3071;}.cls-6{fill:#6dc9f3;}.cls-7{opacity:0.78;}.cls-8{fill:#007eb1;}.cls-9{fill:#a6a6b0;}.cls-10{fill:#f53f53;}.cls-11{fill:#fdae75;}.cls-12{fill:#00b3eb;}.cls-13{fill:#1e8887;}.cls-14{fill:#d7f6f5;opacity:0.58;}.cls-15{fill:none;}.cls-16{fill:#b0dae4;}.cls-17{fill:#fab483;}.cls-18{fill:#231f20;}.cls-19{fill:#fde8cc;}.cls-20{fill:#fac18a;}.cls-21{fill:#fd8270;}.cls-22{fill:#d0d0e1;}.cls-23{opacity:0.6;}.cls-24{fill:#ef7a77;}.cls-25{fill:#ab3c4d;}.cls-26{fill:#2a5751;}.cls-27{fill:#2cd1bf;}.cls-28{fill:#38726b;}.cls-29{fill:#1aa79d;}.cls-30{fill:#9aa2cf;}.cls-31{fill:#717eb4;}.cls-32{fill:#118477;}.cls-33{fill:#5e6788;opacity:0.63;}.cls-34{fill:#515974;}.cls-35{fill:#ec8d44;}.cls-36{fill:#76768b;}.cls-37{fill:#9796b2;}.cls-38{fill:#817fac;}.cls-39{fill:#6c6a8f;}.cls-40{fill:#f7b69e;}.cls-41{fill:#823333;}.cls-42{fill:#e30613;}.cls-43{fill:#ea4e5d;opacity:0.53;}.cls-44{fill:#f5a68a;}.cls-45,.cls-54{fill:#ead2e4;}.cls-46{fill:#812d2d;}.cls-47{fill:#f8d8b0;}.cls-48{fill:#b97e76;opacity:0.54;}.cls-49{fill:#854229;}.cls-50{fill:#ae5537;}.cls-51{fill:#fff0fa;}.cls-52{fill:#5a6785;}.cls-53{fill:#da3e37;}.cls-54{opacity:0.88;}.cls-55{fill:#feb95e;}.cls-56{fill:#ffe090;opacity:0.67;}.cls-57{fill:#ea5168;}.cls-58{fill:#424c62;}.cls-59{fill:#91acda;}.cls-60{fill:#753e65;}.cls-61{fill:#6b2c45;}.cls-62{fill:#6e3158;}.cls-63{fill:#215d7e;}.cls-64{fill:#0e4459;}.cls-65{opacity:0.64;}.cls-66{fill:#b14d82;}.cls-67{fill:#197caa;}.cls-68{fill:#009fe3;}.cls-69{opacity:0.83;}.cls-70{fill:#d6cce6;opacity:0.38;}.cls-71{fill:#744043;}.cls-72{fill:#643739;}.cls-73{fill:#82474b;}.cls-74{fill:#fa7b6b;}.cls-75{fill:#fee0ba;}.cls-76{fill:#197f8f;}.cls-77{fill:#4b1639;}.cls-78{fill:#fff3e4;}.cls-79{fill:#1f9fb5;}.cls-80{fill:#6f2558;}.cls-81{fill:#006cb4;}.cls-82{fill:#cdeafc;}.cls-83{opacity:0.65;}</style></defs><title>01</title><rect id="_01-2" data-name="01" class="cls-1" width="4680" height="3120"/><path class="cls-2" d="M3758.8,888.56c-19.92-17.39-39.55-36.39-51.27-61.07-19.52-41.11-14-90.17-15.54-136.41-5.91-174.82-126.38-331-276.45-393.84s-322.45-41.6-469.2,30c-154.15,75.17-282.15,197.94-421,300-357.48,262.59-744,180.11-1148,184.54-233.54,2.56-486.25,66-632.77,263.86-138,186.41-148.7,458.74-67.17,681.08,20.47,55.8,46.46,109.84,82.6,155.28,108.74,136.76,286.45,173.47,448.8,212.29C1608,2219.7,2005.42,2377.52,2413,2342.72c145.77-12.45,288.75-49.49,430.28-89.45,378.2-106.79,768.71-246.83,1037.82-555,63.84-73.1,120.41-156.17,150.7-251.47s32-204.29-9.86-294.24C3967.45,1035.69,3852.76,970.57,3758.8,888.56Z"/><ellipse class="cls-1" cx="2308.64" cy="1020.12" rx="29.33" ry="29.65"/><rect class="cls-1" x="2538.35" y="1227.32" width="918.42" height="1215.7"/><rect class="cls-3" x="991.21" y="968.2" width="2628.18" height="1613.69" rx="94.4"/><rect class="cls-4" x="1081.7" y="1065.28" width="2453.87" height="1447.27" rx="12"/><rect class="cls-5" x="1081.7" y="1066.28" width="451.7" height="1446.28"/><rect class="cls-6" x="1122.36" y="1735.88" width="368.01" height="198.59"/><rect class="cls-6" x="1122.36" y="2263.54" width="368.01" height="198.59"/><rect class="cls-6" x="1122.36" y="1999.61" width="368.01" height="198.59"/><rect class="cls-6" x="1122.36" y="1208.42" width="368.01" height="198.59"/><rect class="cls-6" x="1122.36" y="1472.15" width="368.01" height="198.59"/><g class="cls-7"><path class="cls-8" d="M3523.16,1066.28h-2429a12.52,12.52,0,0,0-12.42,12.55v80.8H3535.57v-80.8A12.52,12.52,0,0,0,3523.16,1066.28Z"/></g><rect class="cls-9" x="1617.26" y="1225.05" width="924.51" height="613.31"/><path class="cls-2" d="M2481,1776c0,11.57-10.95,21-24.45,21H1703.49c-13.5,0-24.45-9.38-24.45-21V1285.65c0-11.57,11-21,24.45-21h753.06c13.5,0,24.45,9.38,24.45,21Z"/><polygon class="cls-10" points="1848.72 1519.2 1846.12 1515.96 1951.67 1429.27 2050.6 1469.17 2155.27 1400.65 2216.24 1429.26 2343.11 1337.83 2345.51 1341.23 2216.68 1434.08 2155.6 1405.41 2051.05 1473.86 1952.39 1434.07 1848.72 1519.2"/><ellipse class="cls-11" cx="1844.77" cy="1517.58" rx="14.08" ry="13.73"/><ellipse class="cls-11" cx="1949.78" cy="1435.54" rx="14.08" ry="13.73"/><ellipse class="cls-11" cx="2046.58" cy="1472.67" rx="14.08" ry="13.73"/><ellipse class="cls-11" cx="2212.84" cy="1428.56" rx="14.08" ry="13.73"/><ellipse class="cls-11" cx="2152.94" cy="1402.79" rx="14.08" ry="13.73"/><polygon class="cls-10" points="2349.65 1362.56 2345.51 1362.56 2345.51 1337.68 2311.73 1339.44 2311.51 1335.26 2349.65 1333.28 2349.65 1362.56"/><rect class="cls-12" x="1880.53" y="1574.5" width="21.39" height="98.48"/><rect class="cls-12" x="1935.95" y="1534.16" width="21.39" height="138.82"/><rect class="cls-12" x="1989.13" y="1603.89" width="21.39" height="69.41"/><rect class="cls-12" x="2039.86" y="1556.53" width="21.39" height="115.92"/><rect class="cls-12" x="2154.8" y="1602.85" width="21.39" height="69.41"/><rect class="cls-12" x="2205.53" y="1556.33" width="21.39" height="115.92"/><rect class="cls-12" x="2096.09" y="1524.05" width="21.39" height="148.75"/><rect class="cls-12" x="2261.46" y="1465.21" width="21.39" height="207.59"/><polygon class="cls-13" points="2417.61 1674.66 1802.67 1674.66 1802.48 1303.81 1806.62 1303.81 1806.8 1670.48 2417.61 1670.48 2417.61 1674.66"/><rect class="cls-12" x="1750.94" y="1362.58" width="29.34" height="4.18"/><rect class="cls-12" x="1750.94" y="1403.88" width="29.34" height="4.18"/><rect class="cls-12" x="1750.94" y="1442.96" width="29.34" height="4.18"/><rect class="cls-12" x="1750.94" y="1478.94" width="29.34" height="4.18"/><rect class="cls-12" x="1750.94" y="1520.24" width="29.34" height="4.18"/><rect class="cls-12" x="1750.94" y="1559.32" width="29.34" height="4.18"/><rect class="cls-12" x="1750.94" y="1597.07" width="29.34" height="4.18"/><rect class="cls-12" x="1750.94" y="1638.37" width="29.34" height="4.18"/><rect class="cls-12" x="2233.65" y="1705.78" width="179.3" height="4.18"/><rect class="cls-12" x="2272.15" y="1730.23" width="140.79" height="4.18"/><rect class="cls-12" x="2233.65" y="1756.77" width="179.3" height="4.18"/><rect class="cls-13" x="1690.42" y="1907.53" width="777.79" height="68.22"/><rect class="cls-13" x="1690.42" y="2035.02" width="777.79" height="68.22"/><rect class="cls-13" x="1690.42" y="2172.92" width="777.79" height="68.22"/><rect class="cls-13" x="1690.42" y="2302.98" width="777.79" height="68.22"/><path class="cls-14" d="M1802.81,1066.28l-604,1444.37H1447.5l671.1-1443.92Z"/><rect class="cls-15" x="1620.68" y="1227.32" width="918.42" height="1215.7"/><rect class="cls-14" x="2538.72" y="1227.32" width="917.66" height="608.77"/><ellipse class="cls-10" cx="3207.15" cy="1517.5" rx="233.13" ry="235.66"/><path class="cls-1" d="M3000.11,1409.17l207,108.33-96.46-213.77S3035.15,1329.14,3000.11,1409.17Z"/><path class="cls-16" d="M2965.25,1372.32l207,108.33-96.47-213.77a222.75,222.75,0,0,0-48.86,29.43A229.33,229.33,0,0,0,2965.25,1372.32Z"/><path class="cls-12" d="M3207.15,1517.5l235.37,11.65c.29-15.81.48-110.3-73.94-181.74-13-12.45-69-63.34-154.81-65.51a230.59,230.59,0,0,0-103.08,21.83Q3158.92,1410.62,3207.15,1517.5Z"/><path class="cls-17" d="M3207.15,1517.5,3163.41,1749c-22.09-4.49-76.42-18.73-123.11-67.19-9.76-10.12-66.06-70.46-66.32-163.93a239.78,239.78,0,0,1,26.13-108.74Z"/><rect class="cls-10" x="2590.61" y="1419.5" width="254.82" height="14.14"/><rect class="cls-10" x="2590.61" y="1375.93" width="306.57" height="14.14"/><rect class="cls-10" x="2590.61" y="1332.54" width="241.04" height="14.14"/><rect class="cls-6" x="2539.14" y="1835.05" width="917.66" height="608.77"/><rect class="cls-5" x="2722.25" y="2245.54" width="691.1" height="34.11"/><path class="cls-18" d="M3415.35,2281.65h-695.1v-38.11h695.1Zm-691.1-4h687.1v-30.11h-687.1Z"/><rect class="cls-5" x="2623.12" y="2336.55" width="790.24" height="34.11"/><path class="cls-18" d="M3415.35,2372.66H2621.12v-38.11h794.23Zm-790.23-4h786.23v-30.11H2625.12Z"/><rect class="cls-19" x="2580.78" y="1878.28" width="850.5" height="310.37"/><path class="cls-20" d="M3049.24,2053.57s121.23-41.69,155.87-39.12,226.17,129,226.17,129v45.19H3016.35Z"/><path class="cls-21" d="M2581.24,2106.23s222.81-152.17,290.23-137.27,408,219.69,408,219.69H2580.78Z"/><path class="cls-14" d="M2774.41,1066.28,2031,2511.07l522.81,1.49,768.41-1446.28Z"/><path class="cls-3" d="M736.87,2718.2h3137.4s26.82,111.84-76,140.69L804.47,2860a100.72,100.72,0,0,1-44.68-30.16C722.55,2786,735.42,2724.61,736.87,2718.2Z"/><polygon class="cls-22" points="736.87 2717.07 1035.51 2566.54 3571.66 2566.54 3874.28 2717.07 736.87 2717.07"/><rect class="cls-1" x="3244.95" y="2768.1" width="157.19" height="41.78" rx="12"/><rect class="cls-1" x="3469.48" y="2768.1" width="157.19" height="41.78" rx="12"/><rect class="cls-15" x="1620.68" y="1835.05" width="917.66" height="608.77"/><g class="cls-23"><path class="cls-3" d="M2112.84,2644.5c0,25.9-243.52,48.7-365.53,55.85-53.14,3.12-28.78.07-240.43,3.21-157.44,2.34-319.34,6.23-514.31-32.42-53.9-10.68-67.39-16.1-67.45-22-.29-28.12,306.84-61.51,581.76-63.72C1796.9,2583.12,2112.79,2615,2112.84,2644.5Z"/></g><g class="cls-23"><ellipse class="cls-3" cx="2826.16" cy="2653.42" rx="203.04" ry="43.71"/></g><g class="cls-23"><ellipse class="cls-3" cx="3466.98" cy="2647.21" rx="164.66" ry="35.45"/></g><path class="cls-24" d="M2898.54,1558.5l-.18,16.25a8.14,8.14,0,0,0,.18-16.25Z"/><path class="cls-25" d="M2777.9,1799.89c-2.44.54-10.89-17-10.8-36.52.05-10.77,2.68-19.2,5.46-28.1a146.49,146.49,0,0,1,12.41-28.61,251.33,251.33,0,0,0-7.69,62.48C2777.33,1787.29,2779.88,1799.45,2777.9,1799.89Z"/><rect class="cls-26" x="3462.42" y="2217.57" width="4" height="293.54" transform="translate(-94.45 144.72) rotate(-2.36)"/><path class="cls-26" d="M3502.5,2552.71l-4,0c.94-148.29.13-296.63-2.42-440.89-2.47-139.92-4.83-180.42-13.32-228.1-24-135-83.77-262.56-177.53-379l3.11-2.51c94.2,117,154.2,245.15,178.36,380.84,8.53,48,10.91,88.56,13.38,228.74C3502.63,2256,3503.44,2404.39,3502.5,2552.71Z"/><path class="cls-26" d="M3526.38,2543.44l-4,0c0-2.44,1.11-245.93,0-402.35-1.11-157.59,33.8-179.77,35.29-180.63l2,3.44c-.09,0-8.69,5.56-17.06,30.07-7.74,22.63-16.84,66.53-16.27,147.09C3527.49,2297.48,3526.39,2541,3526.38,2543.44Z"/><path class="cls-27" d="M3825.64,1489s-226.23,246.2-284.2,500.46c0,0,81.83-40.1,147.21-125.85s114.12-241.5,114.12-241.5h-25.7S3837.64,1552.4,3825.64,1489Z"/><path class="cls-26" d="M3557.13,2471.87c0-.63-1-63.23,0-92.81,1-30.51,32.13-53,33.45-53.92l2.32,3.26c-.31.22-30.8,22.28-31.77,50.8-1,29.48,0,92,0,92.61Z"/><path class="cls-26" d="M3426.61,2483.19l-4-.05c0-.82,1-82.5,0-97.7-2.66-40.27-33.95-62.36-50.76-74.22-8.05-5.69-12.1-8.54-11.37-11.84l3.91.86a.68.68,0,0,0,0-.24c.35,1.31,5.35,4.84,9.76,7.95,17.35,12.25,49.66,35.05,52.44,77.23C3427.62,2400.53,3426.65,2479.83,3426.61,2483.19Z"/><path class="cls-28" d="M3266.62,1851.89l-11.06,13.89-69.32,87.12a174.41,174.41,0,0,0,61.14,17.36c11.08,1,80.8,7.4,99.8-29.45a39.9,39.9,0,0,0,4.47-17.65C3351.75,1894.69,3317.64,1866.43,3266.62,1851.89Z"/><path class="cls-29" d="M3132.64,1877.94a1,1,0,0,1,.56-.27c3.9-.57,9.9,9.63,11.63,12.2,9.44,14,40.76,11,48,10.26,42-4.1,69.1-41.57,73.78-48.24a324.31,324.31,0,0,1-38.2,121.13,320.22,320.22,0,0,1-72.37,88.85,110.39,110.39,0,0,1,.8,16.08c-1,42.48-26.67,74-41,89-11.4-25.49-24.08-52-38.22-79.31-16-31-32.29-59.79-48.41-86.53C3117.08,1894.72,3131.27,1879.1,3132.64,1877.94Z"/><path class="cls-26" d="M3440.12,2533.56l-15.95-265.77c-2-77.77-18.16-152.29-48.07-221.56a580.79,580.79,0,0,0-46.9-87.21l3.35-2.19a584.65,584.65,0,0,1,47.22,87.81c30.12,69.74,46.4,144.76,48.39,223l16,265.7Z"/><path class="cls-29" d="M3400.15,1931s-45.43,124.55-6.41,180.74c0,0,18.36,24.25,20,45.88l-30.74-6.18s2.86,63.87,75.21,79.32c0,0,52.13-46.35,4.67-149.88S3400.15,1931,3400.15,1931Z"/><path class="cls-30" d="M3299,2472.82h0a12.1,12.1,0,0,0,10.25,5.71h377.72a12.09,12.09,0,0,0,8.09-3.13h0c8.29-7.5,3-21.39-8.09-21.39H3309.22A12.26,12.26,0,0,0,3299,2472.82Z"/><path class="cls-31" d="M3323.94,2478.53a194.32,194.32,0,0,0,101.65,170.75h152.87a203.14,203.14,0,0,0,48.15-41c42.43-49.54,49.08-106.46,50.44-129.8Z"/><path class="cls-1" d="M3113.89,2167.42c-12.4-48.08-33.8-168.16,35-244.54a166.34,166.34,0,0,1,26.41-23.62l2.34,3.25a162.09,162.09,0,0,0-25.78,23c-67.52,74.94-46.35,193.41-34.12,240.87Z"/><path class="cls-32" d="M3058.79,2288.59s255.26-8.26,326.26,30c0,0,29.59-85.58-95.51-105.23l-11,32.47-33.24-32.47S3090.91,2173,3058.79,2288.59Z"/><path class="cls-28" d="M3606,2217.69c-41.63,32.1-60.42,70.76-49.42,93.36,5.08,10.45,15.67,15.66,19,17.32,8.21,4,22.65,8.11,80.33-10.76,11.59-3.79,25-8.53,39.74-14.42l64.71-54Z"/><path class="cls-29" d="M3606,2217.69c3,9.87,30.25,94.78,109.1,119.2,28,8.66,53.26,6.88,70.32,3.82l-30.57,42.54s75.41,44.48,80.5,83c7.12-9.1,45.78-60.33,35.53-130.52-7.38-50.62-36.08-82.84-47-94l-67.49-54.5c-14.17,36.39-33.78,44.77-41.27,47.13-10.26,3.23-18.51,1.72-55.75-5.81C3647.43,2226.19,3629,2222.44,3606,2217.69Z"/><path class="cls-1" d="M3839.48,2463.66l-4-.55c12-86.94-21.5-144-51.77-176.47-32.86-35.32-69.09-50.24-69.45-50.39l1.5-3.71c.37.15,37.3,15.34,70.77,51.25a203.86,203.86,0,0,1,43.62,71.45C3841.77,2388.1,3844.9,2424.58,3839.48,2463.66Z"/><path class="cls-33" d="M3364.88,2478.53h311.86a211.48,211.48,0,0,1-16,73.46c-23.13,55.44-64,85.53-82.25,97.29a263.75,263.75,0,0,1-108.58-38.51c-56.56-35.64-84.69-83.63-96.07-106.15Q3369.34,2491.57,3364.88,2478.53Z"/><path class="cls-34" d="M3469.14,2479s111.86,128.5,187.75,81.57c0,0,18.92-37.41,19.85-82.07Z"/><path class="cls-27" d="M3210.33,1383.09s339.31,193.48,274.4,500.25c0,0-177.94-61.9-235-271.58l36.22-5.72S3252.38,1498.54,3210.33,1383.09Z"/><path class="cls-1" d="M3482.77,1883.75c-21.17-102.93-68.3-197.89-104.11-259.43-38.83-66.72-73.09-109.62-73.43-110l3.12-2.5c.34.42,34.75,43.52,73.73,110.48,36,61.81,83.33,157.21,104.61,260.69Z"/><path class="cls-24" d="M1047.6,1687l9,15.54S1033.66,1697.14,1047.6,1687Z"/><path class="cls-35" d="M1023.45,1790.22s-140.78-4.31-201.1,91.57-11.63,583.45,424.27,437.3S1023.45,1790.22,1023.45,1790.22Z"/><ellipse class="cls-36" cx="1627.4" cy="2623.86" rx="156.09" ry="33.84"/><ellipse class="cls-37" cx="1627.4" cy="2614.62" rx="156.09" ry="33.84"/><path class="cls-38" d="M1574.88,2163.32l29.71,435.7s16.92,25.16,49.08,1.95l18.52-451.2-109.86-14.84Z"/><path class="cls-39" d="M1575.2,2159.37s35.82,88.55,94.66,71.24l2.33-71.24Z"/><path class="cls-40" d="M1067.42,1710.73l1.68,49.63-58.71,44.54,181.37-7.52a155.19,155.19,0,0,0-49.82-32.32c-2.92-1.16-5.8-2.19-8.64-3.12l-.15-26.06Z"/><path class="cls-24" d="M1066.06,1711.18a85.15,85.15,0,0,0,18.88,27.58c18.46,17.91,39.93,22,48.36,23.18l-.15-26.06Z"/><path class="cls-40" d="M1151.83,1626.93a142.8,142.8,0,0,1,7.62,46.73c-.14,19.6.29,45.22-16.32,57.2-6.86,5-14.45,6-19.3,6.24a98.58,98.58,0,0,1-21.6-3.9,102.28,102.28,0,0,1-40.94-24,21.62,21.62,0,0,1-8.16.54c-9.91-1.27-20.47-9.92-20-19.07,0-.41.45-6.54,5.36-9.5,4.33-2.6,10.49-1.76,15.35,2.32l-19.55-49.25,27-23,22.94-24.38,51,1.57Z"/><path class="cls-24" d="M1115.11,1609.73c.81,2.44,4.71,15-1.88,27.76-5.87,11.35-17.83,18.55-31.11,18.91.94-2.27,1.73-4.3,2.37-6a38.14,38.14,0,0,0,1.87-5.64,22.27,22.27,0,0,0,.37-6.4,61.42,61.42,0,0,1-24.73,29.92,71,71,0,0,0-3,9.6c-1.11,4.62-1,6.29-1.65,6.39-2.75.45-10.27-30.37-10.27-30.37h0l22.75-33.62,19.73-12.42,9.79-12,9.08-5.6c3.91,1.42,36.6,13.88,41.35,41.32a40.26,40.26,0,0,1,.09,13,65,65,0,0,0-9.17-15.47A65.85,65.85,0,0,0,1115.11,1609.73Z"/><path class="cls-41" d="M1109.37,1598.12s18.43,41.68-27.25,58.28c0,0,12.48-17.72,4.24-21,0,0-10.17,22.81-25.32,28.47a28.73,28.73,0,0,0-2.32,4.81,32.08,32.08,0,0,0-.65,19.12,11.79,11.79,0,0,0-5.1-5.32,11,11,0,0,0-3.73-1.13c-1.39-.15-7.62-.69-10.84,3.06-4,4.68-2.66,15.16,6.29,22.79,0,0-14,5.49-20-9.85,0,0-.6,4.91,1.52,7.94,0,0-40.13-4.24-23.92-38.14a69.23,69.23,0,0,0,.42-15.74,80.29,80.29,0,0,0-2.52-13.33c-3.6-16.18,7-32.88,8-34.34,11.86-18.15,32-21.55,35.46-22.08,1.82-3.81,6.28-11.72,15.31-16.55,12.62-6.74,29-4.66,42.06,5.11a12.19,12.19,0,0,0,6.32-10.56,12.32,12.32,0,0,0-9-11.6c.73,0,11.29.2,16.75,9a19.88,19.88,0,0,1,2.47,13.74c2.78-.32,29.79-3,45.5,16.13,1.74,2.12,14.64,17.82,9.43,34a27.34,27.34,0,0,1-5.57,9.65,37.42,37.42,0,0,0-12.9-29.26s14.2,26.79-4.1,43.17C1149.86,1644.53,1144.68,1603.38,1109.37,1598.12Z"/><ellipse class="cls-18" cx="1148" cy="1660.76" rx="4.54" ry="7.06"/><ellipse class="cls-18" cx="1106.64" cy="1665.84" rx="4.54" ry="7.06"/><path class="cls-42" d="M1146.3,1698.91l-28.43,7.08c2.27,8.44,11,13.16,18.71,10.69C1143.61,1714.42,1148,1706.68,1146.3,1698.91Z"/><ellipse class="cls-43" cx="1089.64" cy="1686.98" rx="20.92" ry="21.14"/><path class="cls-43" d="M1158.33,1656.66a21.26,21.26,0,0,0,.55,35.22A267.52,267.52,0,0,0,1158.33,1656.66Z"/><path class="cls-44" d="M1256.85,1916.51l21.39,27.83a195.84,195.84,0,0,0,29.29-29.8c10.7-13.56,13.7-21.2,24.6-34.86a189.37,189.37,0,0,1,27-27.6l30.78-13.29v4l-5.46,6.54-8.48,4.26s-3.93,4.27-2,7,25.2-3,25.2-3l16-7.53c1.87-1.23,8.2-5.15,11.52-2.93,3.63,2.41,3.19,11.85-2.58,23.26L1404.75,1891l-44.59,11.81.31-.56s-10.89,17.77-18.68,33.41a259.19,259.19,0,0,0-15,37.3,90.11,90.11,0,0,1-24.67,31.95,85.34,85.34,0,0,1-10.92,7.53,227.14,227.14,0,0,1-43.44-19.3c-18.32-10.55-63.08-36.43-64-68.8-.12-4-.54-18,8.85-25.8a22.43,22.43,0,0,1,10.17-4.63Z"/><path class="cls-45" d="M1201.51,1798.55c2.29,2.73,5.67,6.85,9.59,12a238.91,238.91,0,0,1,17.62,25.53c9.42,15.86,25.6,46,44.83,85.5-42.1,44.2-65.34,49.35-79,44.09,0,0-16.34-6.28-43.74-113.87Z"/><path class="cls-24" d="M1059.84,1767.39s50.9,37.07,86.84-.35l6.52,3.23s-24.58,48.37-97.57,0Z"/><path class="cls-46" d="M1545.24,2517.5s47.19,36.31,74.49,45,26,37.73,26,37.73l-69.72-1.64s-21.39-11.84-30.8,0h-22.32l-27.43-74.22-2.36-17.1h46.08Z"/><path class="cls-47" d="M1541.44,2509.81s47.19,36.31,74.5,45,26,37.73,26,37.73l-69.73-1.65s-21.39-11.84-30.8,0h-22.32l-27.43-74.22-2.36-17.09h46.08Z"/><path class="cls-46" d="M1401.49,2548c27.93,17.94,51.32,33.25,71.16,45.66,8.8,5.51,24.86,15.42,26.9,31.53a28.11,28.11,0,0,1-.12,7.79l-68.51-2.69s-20.44-12-29.43,0h-21.32l-26.2-75.34-2.26-17.35h44Z"/><path class="cls-48" d="M1494.09,2526.34a105.48,105.48,0,0,0,76.77,4.21l-26.62-18.85q-51.51-7.42-55.28,2.93Q1487.39,2519,1494.09,2526.34Z"/><path class="cls-47" d="M1399.23,2541.21s47.19,36.86,74.5,45.67,26,38.3,26,38.3l-69.72-1.67s-21.4-12-30.81,0h-22.32l-27.43-75.34-2.36-17.36h46.08Z"/><path class="cls-49" d="M1248.54,2120.6s132.88,20.12,164.31,61.42,137.61,332.77,137.61,332.77-35.65,19.83-55.28,12.14S1349,2273.47,1349,2273.47l-197.53-117.55S1143.67,2072,1248.54,2120.6Z"/><path class="cls-48" d="M1355.39,2564.85s64.6,20,81.46,3L1410,2549.29S1342.45,2532.73,1355.39,2564.85Z"/><path class="cls-50" d="M1039.28,2162.83a197.08,197.08,0,0,0,22.49,51.22c51.43,82.37,149,98.92,173.36,102.35,6,16.59,14,37.83,24.13,62.26,3.73,9,14.19,34,32.27,72.14,14.28,30.14,33.5,68.94,58.09,114l73.82-9.72-71-291.24c-5.41-24.83-15.79-38.77-24-46.83-15.3-15-29.42-15.77-78-38.55-5.91-2.78-1.64-.86-29.29-14.48-92.79-45.69-102.46-48.37-114.21-47.47C1094,2117.55,1068.41,2123.67,1039.28,2162.83Z"/><path class="cls-51" d="M1056.7,1767.87l-65.49,41.62A1401.18,1401.18,0,0,0,984,2044.67c4.21,77.09,11.95,97.79,26.81,111.41,60.24,55.18,209.69-31.29,220.58-37.73l-41-91.73c1.74-33.27,4.06-60.46,5.9-79.44,5.24-54.06,11.44-91.87,5.42-147.36-.06-.53-.11-1-.14-1.27l-50-31.16a58.54,58.54,0,0,1-24.07,17.83C1092.3,1798.76,1058.11,1769.12,1056.7,1767.87Z"/><ellipse class="cls-52" cx="1091.76" cy="2619.24" rx="107.46" ry="38.46"/><path class="cls-49" d="M1053.41,2155S1217,2266.74,1231.34,2278s84.71,270.47,171.31,276.39l20.79.71-73.82,9.72a1506,1506,0,0,1-84.5-172.32c-13.6-32.8-17.1-44.4-23.9-59.57C1218.64,2282.53,1170.07,2216.05,1053.41,2155Z"/><ellipse class="cls-3" cx="1091.76" cy="2608.75" rx="107.46" ry="38.46"/><path class="cls-53" d="M1054.17,1874.21A562.24,562.24,0,0,0,1205,1857.73a351.43,351.43,0,0,1-6.36,81.94c-18.8,4.39-46.21,10.16-79.84,14.91-47.55,6.72-57.76,4.37-64.58-1.79C1032.2,1932.94,1052,1879.76,1054.17,1874.21Z"/><path class="cls-54" d="M1096.26,2053.86a257.75,257.75,0,0,1-42.88-78.48,195.53,195.53,0,0,0,19.94-3.73,139,139,0,0,0,5.22-23.34,145,145,0,0,0,.74-30.11c-2-29.94-3-44.9-10.67-62.48-2.3-5.27-15.85-36.31-40.28-46a54.6,54.6,0,0,0-26.13-3.51,44.3,44.3,0,0,0-11,3.27,384.87,384.87,0,0,0-15.61,35.45,311.83,311.83,0,0,0-12.51,39.39c-1.66,6.83-3,13.42-4.1,19.73,0,0,.81,10,1.1,21.44.48,19-4.54,23.07-2,29.82,5.52,14.79,47.73,20.38,52.82,20.88a179.73,179.73,0,0,0,22,.82c-36.34,27.85-16.26,169.52,42.59,189.22,14.89,5,29.87,1.37,59.65-5.83a267.27,267.27,0,0,0,69.51-27.64C1181.23,2123.73,1134.89,2102,1096.26,2053.86Z"/><path class="cls-40" d="M971.19,1965.43,982.56,2040s42.27,33.81,199.78,27.71c0,0,33.93,19.86,51.58,17.53s30,23.89,30,23.89l28.77,2.66-10.33-57.76-90.31-19.91s-126.33-41.35-146.3-37.55l1-21.53,1.56-32.79L975.13,1954Z"/><path class="cls-24" d="M1046.59,1978.86s-33.22,8.59-36.2,5.21,69.63,59.47,82.3,76a425.81,425.81,0,0,1,47.78-2.44c26.21.15,35.34,2.68,42.58,6.08,4.58,2.15,12.86,6.76,15.14,8,8.25,4.59,14.94,8.66,19.54,11.54a86.29,86.29,0,0,1-18.55-5.77,87.32,87.32,0,0,1-16.84-9.81c-11.42.2-28.09.47-48.21.65-122.15,1.15-140-2.72-152.18-15.43-7.38-7.7-22.89-29.28-10.76-85.6l75.89,1.3Z"/><path class="cls-52" d="M1052.93,2340.43l24,261.25s13.67,15.09,39.66,1.17l15-270.55-88.79-8.9Z"/><path class="cls-55" d="M833.33,1866.45a835.39,835.39,0,0,1,119.72,76.21c161.41,123.3,243.6,280,284.66,380.81-18.25,7.83-144,59.24-276-7.54-13-6.56-123.24-64.57-164-193.73-8.28-26.25-28.71-94.15-5-173.87A272.11,272.11,0,0,1,833.33,1866.45Z"/><path class="cls-56" d="M781.78,2018.24A593.07,593.07,0,0,1,933.49,2126.7c82.37,81.32,122.66,168.89,142,221.35-31-2.91-81.85-12-133.09-43.17-41.52-25.26-69.35-56.56-80.36-69.12s-18.1-22.39-20.36-25.57a325.8,325.8,0,0,1-38.9-73.37C785,2089.66,781.73,2046.53,781.78,2018.24Z"/><path class="cls-51" d="M991.21,1809.49a114.59,114.59,0,0,0-23.14,26.15c-16.82,26.18-18.63,52.66-18.63,65.29,0,0,3.25,45.18-.93,57.78s102.82,20.9,123.13,0c0,0,5.55-72.93-13.61-109-15.23-28.66-25.18-37.28-32.51-40.17C1011.81,1804.19,998.42,1807.18,991.21,1809.49Z"/><path class="cls-18" d="M1093,1655.76l-1.41-1.53c10.28-9.6,17.63-7.1,17.94-7l-.69,2C1108.79,1649.19,1102.29,1647.1,1093,1655.76Z"/><path class="cls-18" d="M1152.23,1647.7c-3.83-4.39-11.69-1.54-11.77-1.51l-.72-2c.38-.14,9.27-3.38,14,2.09Z"/><path class="cls-57" d="M1129.91,1667.83a32,32,0,0,0,5.22,6.76c2.66,2.62,4.14,3.19,4.65,4.89s0,4.82-5.39,9.87"/><path class="cls-1" d="M1372,2533.82a2.08,2.08,0,0,1-1.92-1.33l-6-15.29a2.09,2.09,0,0,1,1.17-2.71,2.06,2.06,0,0,1,2.68,1.18l6,15.29a2.11,2.11,0,0,1-1.17,2.71A2.06,2.06,0,0,1,1372,2533.82Zm-13.52-34.75a2.08,2.08,0,0,1-1.92-1.33l-7.57-19.46a2.09,2.09,0,0,1,1.16-2.71,2.06,2.06,0,0,1,2.69,1.18l7.57,19.46a2.11,2.11,0,0,1-1.17,2.71A2.06,2.06,0,0,1,1358.44,2499.07Zm-15.14-38.92a2.09,2.09,0,0,1-1.93-1.33l-7.57-19.46a2.1,2.1,0,0,1,1.17-2.71,2,2,0,0,1,2.68,1.18l7.58,19.46a2.11,2.11,0,0,1-1.17,2.71A2.06,2.06,0,0,1,1343.3,2460.15Zm-15.14-38.92a2.08,2.08,0,0,1-1.93-1.33l-7.57-19.46a2.1,2.1,0,0,1,1.17-2.71,2.05,2.05,0,0,1,2.68,1.18l7.57,19.46a2.1,2.1,0,0,1-1.16,2.71A2.06,2.06,0,0,1,1328.16,2421.23ZM1313,2382.3a2.07,2.07,0,0,1-1.93-1.32l-7.57-19.46a2.09,2.09,0,0,1,1.17-2.71,2.05,2.05,0,0,1,2.68,1.18l7.57,19.46a2.09,2.09,0,0,1-1.17,2.71A2,2,0,0,1,1313,2382.3Zm-15.15-38.92a2.07,2.07,0,0,1-1.92-1.32l-7.57-19.46a2.09,2.09,0,0,1,1.17-2.71,2.05,2.05,0,0,1,2.68,1.18l7.57,19.46a2.1,2.1,0,0,1-1.17,2.71A2,2,0,0,1,1297.87,2343.38Zm-15.14-38.92a2.07,2.07,0,0,1-1.92-1.32l-7.57-19.46a2.09,2.09,0,0,1,1.16-2.71,2.06,2.06,0,0,1,2.69,1.18l7.57,19.46a2.1,2.1,0,0,1-1.17,2.71A2,2,0,0,1,1282.73,2304.46Zm-15.26-38.83a2.12,2.12,0,0,1-1.3-.45L1250,2252.11a2.11,2.11,0,0,1-.33-2.94,2.05,2.05,0,0,1,2.91-.33l16.15,13.07a2.1,2.1,0,0,1,.32,2.94A2,2,0,0,1,1267.47,2265.63Zm-32.3-26.13a2,2,0,0,1-1.29-.46L1217.73,2226a2.1,2.1,0,0,1-.32-2.94,2,2,0,0,1,2.9-.33l16.15,13.07a2.11,2.11,0,0,1,.33,2.94A2.05,2.05,0,0,1,1235.17,2239.5Zm-32.3-26.14a2,2,0,0,1-1.29-.46l-16.15-13.07a2.11,2.11,0,0,1-.32-2.94,2.06,2.06,0,0,1,2.91-.33l16.15,13.07a2.11,2.11,0,0,1,.32,2.94A2.05,2.05,0,0,1,1202.87,2213.36Z"/><path class="cls-58" d="M1053.41,2345.58s46.11,6.7,77.28,2.89l-1.46,26.34c-3.16,2.1-29.55,19.07-55.91,7.86a50.57,50.57,0,0,1-17.68-12.78Z"/><path class="cls-24" d="M1047.26,1685.84l9.31,14.55S1035.84,1699.64,1047.26,1685.84Z"/><rect class="cls-59" x="1065.63" y="2116.43" width="1173.37" height="42.94" rx="20.53"/><path class="cls-60" d="M3047,1708.16c0-.62,0-1.24-.06-1.87a23.77,23.77,0,0,0-.61-3.73c-.17-.61-.28-1.24-.5-1.84l-.71-1.78a18.76,18.76,0,0,0-1.85-3.37,20.49,20.49,0,0,0-5.52-5.31c-4.26-2.79-8.94-4.17-13.29-5.72s-8.56-3.16-12-5.77a23.05,23.05,0,0,1-7.71-10,26.92,26.92,0,0,1-1.42-12.77c.91-8.94,4.06-18.11,4.86-27.91a57.24,57.24,0,0,0-.55-14.83,54.77,54.77,0,0,0-1.82-7.24,54,54,0,0,0-2.86-6.89,56.88,56.88,0,0,0-8.26-12.23A74.71,74.71,0,0,0,2984,1577a94.47,94.47,0,0,0-12.14-7.62l-1.57-.85-1.61-.76-3.22-1.5-.83-.34a61.83,61.83,0,0,0-5.59-2.77s-13.45-9.76-16.69-41.41-11-42.39-33.59-44.78c0,0-49.06-53.09-111.11,4.67s5.12,93.11,5.12,93.11l9.53,29.85s5.42,13.23,10.36,17.31c-3.94,10.68-9.36,16.1-13.54,19.07-5.45,3.87-9.79,4.28-14.79,9.3a31.37,31.37,0,0,0-7.87,14.31s-3.22,11.08,3,16.3,215.26,82.74,215.26,82.74c5.26-1.26,20.85-5.75,26.75-18.57a24.39,24.39,0,0,0,1-2.66l.44.3a114.79,114.79,0,0,0,7.47-12.09,63,63,0,0,0,5.35-13.34,35.52,35.52,0,0,0,.75-3.58c.09-.6.22-1.2.27-1.82l.15-1.84A13,13,0,0,0,3047,1708.16Zm-3.62,8.53a61.09,61.09,0,0,1-4.59,13.08,121.22,121.22,0,0,1-5.71,10.73c4.41-17.77-8.09-43.58-36.57-57.93a50.38,50.38,0,0,1-12.66-16.56c-8.67-18.34-3.16-36.19-1.61-40.74a35.29,35.29,0,0,0,1-42.51,67.77,67.77,0,0,1,14.89,18.8,44.87,44.87,0,0,1,4.24,12.62,51.69,51.69,0,0,1,.55,13.4,122.85,122.85,0,0,1-2.13,13.67,126.39,126.39,0,0,0-2.38,14.25,31.66,31.66,0,0,0,2,15,27.6,27.6,0,0,0,9.52,11.84c4.14,3,8.84,4.65,13.32,6.07s8.93,2.62,12.62,4.89a17,17,0,0,1,4.71,4.23,15.29,15.29,0,0,1,1.63,2.76l.66,1.48c.22.5.33,1,.5,1.56C3044.61,1707.57,3044.29,1712.22,3043.39,1716.69Z"/><path class="cls-61" d="M3004.77,1764c5.26-1.27,20.85-5.75,26.75-18.58a23.46,23.46,0,0,0,1-2.65l.44.3a113.91,113.91,0,0,0,7.47-12.1,63.18,63.18,0,0,0,5.35-13.33,36.1,36.1,0,0,0,.75-3.58c.09-.61.22-1.21.27-1.82l.15-1.85a12.81,12.81,0,0,0,0-1.86c0-.62,0-1.25-.06-1.87a23.58,23.58,0,0,0-.61-3.73c-.17-.62-.28-1.25-.5-1.84l-.71-1.78a18.42,18.42,0,0,0-1.85-3.37,20.53,20.53,0,0,0-5.52-5.32c-4.26-2.79-8.94-4.16-13.29-5.71s-8.56-3.17-12-5.77a23.11,23.11,0,0,1-7.71-10.05,26.94,26.94,0,0,1-1.42-12.78c.91-8.94,4.06-18.1,4.86-27.91a57.16,57.16,0,0,0-.55-14.82,50.67,50.67,0,0,0-4.68-14.14,56.81,56.81,0,0,0-8.26-12.22,74.79,74.79,0,0,0-10.68-9.86,94.47,94.47,0,0,0-12.14-7.62l-1.57-.84-1.61-.76-3.22-1.51-.83-.34a61.83,61.83,0,0,0-5.59-2.77s-13.45-9.75-16.69-41.41c-.13-1.3-.28-2.55-.42-3.78a86.34,86.34,0,0,0-2.32,33c3.36,26.7,18.53,44.07,24.58,50.31,3.62,1.65,8.41,4.57,11.17,9.78,7.8,14.77-11.14,28.15-9.61,50.8,1.74,25.84,28.95,46.65,32.7,49.45,11.87,8.86,20,9.86,22.59,18.07C3024.54,1740.84,3014.42,1754.12,3004.77,1764Zm-8.25-81.06a50.38,50.38,0,0,1-12.66-16.56c-8.67-18.35-3.16-36.2-1.61-40.74a35.3,35.3,0,0,0,1-42.51,67.77,67.77,0,0,1,14.89,18.8,48.78,48.78,0,0,1,2.59,6.15,49.32,49.32,0,0,1,1.65,6.46,51.73,51.73,0,0,1,.55,13.4,122.49,122.49,0,0,1-2.13,13.67,126.77,126.77,0,0,0-2.38,14.25,31.7,31.7,0,0,0,2,15.06,27.57,27.57,0,0,0,9.52,11.83c4.14,3,8.84,4.65,13.32,6.08s8.93,2.61,12.62,4.88a16.92,16.92,0,0,1,4.71,4.24,15,15,0,0,1,1.63,2.76l.66,1.48a15.58,15.58,0,0,1,.5,1.55c1.29,4.19,1,8.85.07,13.31a61.17,61.17,0,0,1-4.59,13.09,121.05,121.05,0,0,1-5.71,10.72C3037.5,1723.11,3025,1697.29,2996.52,1683Z"/><path class="cls-62" d="M2951.8,1682l-1.88-.88c4-8.84,1.58-19.37-1.22-26.65-5.56-14.5-17.44-29-27-33.12-15.82-6.71-17.43-38.55-17.49-39.9l2.07-.1c0,.32,1.61,31.88,16.22,38.07,10.06,4.26,22.44,19.33,28.18,34.29C2953.57,1661.33,2956.16,1672.45,2951.8,1682Z"/><path class="cls-40" d="M2921.38,2281.94s3.69,23.49,8.55,29,45.2,127.35,60.48,201.63l-9.52,81.33a192,192,0,0,1-12.21,19.64q-2.78,3.9-5.57,7.45c-1.82,8.32.47,12.51,1.59,14.13,6.66,9.6,26.17,6.46,37.74,1a47.71,47.71,0,0,0,16.34-12.86,173.19,173.19,0,0,1,21.74-55.58v26.22h9.08l-2-54.54L3023,2502.74a423.79,423.79,0,0,1-9-58.92c-4.18-51.83,3.57-77.11-10-113.84a147.8,147.8,0,0,0-18.69-35.08l-1.86-96.73-62.12,10.07Z"/><path class="cls-40" d="M2788.83,2285.5c.25,5.42.71,12.84,1.6,21.65.74,7.34,1.51,13,1.81,15.16.06.5.11.82.11.84.73,5.07-.12,68.25-3.07,208.95a244.06,244.06,0,0,1-14.72,36.29c-5,9.94-9.63,17.38-12.81,22.48a299.69,299.69,0,0,1-19.56,28.22c-11.85,15-16,17-15.31,22,1.22,9.17,16.81,15.86,29.3,16.06,18,.29,30-13,32.27-15.56a72,72,0,0,1,39.94-40.84q1.64,14.77,3.25,29.55l10.43-1.51q.43-26.62.88-53.27-3.79-20.61-7.58-41.2a125.89,125.89,0,0,1-2.71-35.17,124.62,124.62,0,0,1,4.16-24.82c7.88-29.91,18.13-79,21.55-112.2a331.23,331.23,0,0,0,.83-57.79q19.35-116.87,38.71-233.73l-116.42,117.93Q2785.17,2237,2788.83,2285.5Z"/><path class="cls-40" d="M2905.21,1760.31c7.92-31.52,16.92-67.93,22.34-91.65-8.21-7-16-12.52-20.64-18.41-8.95-11.46-10.77-61.16-10.77-61.16l-6-1.57-45.59,35.63-3.19,11.08c2.32,9.67.5,15.94.5,15.94-4.28,4.09-27.47,16-27.47,16l-42.66,55L2729,1792.86l-87.24-58.95s-13.33-12-21.49-19.56-8.43-6.09-9.21-6.09c-5.21,0,1.72,15.67,1.72,15.67s-10.81.64-19.31-2.69-24.7-10.45-24.7-10.45c-2.82-.32-2.67,3.48-2.67,3.48-3.44-.79-2.5,3.8-2.5,3.8a2.33,2.33,0,0,0-3.31,2.12l34.47,31.11,38.79,8.18c5,4.88,12.6,12.49,21.51,22.17,19.68,21.38,25.33,30.7,40,44.45a210.49,210.49,0,0,0,29.83,23.21c24.07,1.42,55.43-59.29,55.43-59.29Z"/><path class="cls-24" d="M2897,1587.52c-1.43,9-6.87,38.73-24,53.19a119.2,119.2,0,0,1-14,10.07c-11.86,7.07-16.87,6.74-22.65,11.75-4.3,3.73-9.12,10.49-10.64,23.79.36-21.22,2.84-27.75,5.37-29.16,1-.57,3-1.77,6.93-4.16a22.12,22.12,0,0,0,2.62-1.79l1.25-1h0s.47-4.73.49-7.56a30.49,30.49,0,0,0-1.64-9.91l38.94-33Z"/><path class="cls-40" d="M2796.63,1539.06c.91,8.32,4.74,41.11,14.66,65.54,3.09,7.62,6.87,14.65,14,20.37a40.34,40.34,0,0,0,15.41,7.73c15.91,3.67,38.77-12.36,53.38-41.06a28.89,28.89,0,0,1,2.91-4.12,33.41,33.41,0,0,1,7.19-6.16c2.62-1.93,5.77-5.57,7.75-13.08.85-7.63-2.13-14.12-7-16.11a9.8,9.8,0,0,0-6-.37s-10.95-3.27-19.58-19.82-7.91-29.5-7.91-29.5-7.23-14.66-24.18,1.52a47.15,47.15,0,0,0-3.65,3.33,49,49,0,0,0-7.6,10,35.16,35.16,0,0,1-16.87,19.09A34.15,34.15,0,0,1,2796.63,1539.06Z"/><path class="cls-24" d="M2850.19,2275.65v28.73a385.16,385.16,0,0,1-4,80.93c-3.44,21.58-8.39,40.16-15.27,83.18-1.87,11.66-3.26,21.32-4.18,27.85a95.09,95.09,0,0,0,11.32,51.88c-1-6.87-1.93-12.42-2.55-16.12-1.92-11.51-2.76-15.14-3-21.64a97.36,97.36,0,0,1,.34-13,131,131,0,0,1,5.75-28.79c7.78-24.43,14.66-69.38,16.9-84a444.86,444.86,0,0,0,4.8-80.26q2.39-14.37,4.76-28.73S2850.19,2246.91,2850.19,2275.65Z"/><path class="cls-24" d="M2973.44,2249.55q3.33,22.9,6.65,45.8a230.53,230.53,0,0,1,21.8,57.5c7.66,33.26,4.13,53.41,9,117.65,1.18,15.69,2.41,28.43,3.22,36.38a46.44,46.44,0,0,0,6,9,47.37,47.37,0,0,0,20.74,14c-2-2.7-4.8-6.73-8.08-11.75-5.16-7.89-7.78-12-9.68-16.93-.87-2.29-1.55-4.58-3.43-15.35-.28-1.56-2.51-14.35-3.3-20.83-3.7-30.34,4.46-85.33-10.95-131.39a146.88,146.88,0,0,0-20-38.77l-.3-55c-3.32-5-9-6.24-11.87-4.37C2970.05,2237.58,2968.92,2244.36,2973.44,2249.55Z"/><path class="cls-24" d="M2739.58,1775.05l-10.71,19.69s5.76,53.69-36.22,29.11c0,0,24.43,23.2,32.19,25.46s53.06-49.42,53.06-49.42S2751.41,1790.74,2739.58,1775.05Z"/><path class="cls-60" d="M2909.28,1475.64a11.37,11.37,0,0,0,5.33.84c7.35-.67,13.7-9.16,12.86-16.33a11.4,11.4,0,0,0-1.11-3.71,5.06,5.06,0,0,0-2.77-2.44c-2.53-.79-5.09,1.2-6.27,3a7.21,7.21,0,0,0-1.15,3.28,27.36,27.36,0,0,1-.52,4.43c-.55,2.78-1.35,6.77-4.49,9.6A11.42,11.42,0,0,1,2909.28,1475.64Z"/><ellipse class="cls-18" cx="2856.54" cy="1557.43" rx="5.55" ry="7.37"/><ellipse class="cls-18" cx="2809.64" cy="1567.05" rx="5.55" ry="7.86"/><path class="cls-57" d="M2826.14,1569.38a23,23,0,0,1-.76,12.32c-.75,2-1.66,3.34-1.33,5.15.57,3.16,4.14,5.15,7,6.33a35.73,35.73,0,0,0-2.59-19.53A33.41,33.41,0,0,0,2826.14,1569.38Z"/><path class="cls-42" d="M2828.62,1604.73l24-2.85c.54,7.7-3.44,14-8.61,15.36-4.68,1.2-9-2-9.72-2.54A14.9,14.9,0,0,1,2828.62,1604.73Z"/><ellipse class="cls-43" cx="2871.47" cy="1575.7" rx="17.29" ry="17.48"/><path class="cls-43" d="M2810.71,1603a17.52,17.52,0,0,0-9-31.14C2803.29,1578.89,2806.6,1592.19,2810.71,1603Z"/><polygon class="cls-51" points="2821.05 1686.16 2902.21 1689.09 2934.07 1819.13 2934.76 1857.26 2852.46 1859.07 2777.9 1847.76 2784.47 1714.06 2821.05 1686.16"/><path class="cls-63" d="M2920.27,1831.5a604.23,604.23,0,0,1,48.34,125c2.38,9,10.59,41,16.45,88.75,5.72,46.55,10,114.11,1.12,197.61a101.14,101.14,0,0,1-20.09,19.17c-71.11,51-186.22-11.48-200-19.17a1757.68,1757.68,0,0,1,20.09-309.8c5.82-37.64,12.66-73.7,20.23-108.11Z"/><path class="cls-64" d="M2952.6,2270.19s47-235-13.34-358.59a321.22,321.22,0,0,1,24.21,46.12c25,58.79,26.45,111.11,27.37,163.37,1,58.46-4.66,121.81-4.66,121.81h0a99.92,99.92,0,0,1-20.09,19.17A97.38,97.38,0,0,1,2952.6,2270.19Z"/><path class="cls-45" d="M2889.48,1688.9c-1.73,28.23-1.75,49.42-1.4,63.93a107.67,107.67,0,0,1-.21,13,102.3,102.3,0,0,1-28.92,62.57l23.05,1.2,22.57-140.72Z"/><path class="cls-53" d="M2912,1653.31s-44.7,133.38-25.44,287.49,24.84,140.33,24.84,140.33,65.82,18.87,79-62.05c0,0-6.22-51.32-54.4-151.09l-.55-57.58,13.61,20s64.75-18,61.51-53.45C3010.58,1776.93,2963.94,1673.09,2912,1653.31Z"/><path class="cls-53" d="M2831.26,1655.93c-10.18,53.47-19.27,110.29-26.62,170.26-10.86,88.66-16.43,172-18.44,248.77a55.84,55.84,0,0,1-18.63-9.94,59,59,0,0,1-19.18-29.58l31.86-237.56s-45.58-6.89-47.4-42.07c0,0,36.89-68,67.65-83.93Z"/><path class="cls-1" d="M2798.24,1745.23,2870.73,1909H2758.06l-76.72-162.08Z"/><path class="cls-18" d="M2803.87,1556.13l-1.6-1.33c4-4.89,11.67-2.32,12-2.21l-.66,2C2813.53,1554.55,2806.92,1552.36,2803.87,1556.13Z"/><path class="cls-40" d="M3002.66,1799.77s-8,13.57-47.3,28.47l9.69,18.16s-73.77,19.29-103.68,16.25c0,0-14.28-28.08-23.82-22.05l2.75,5.5-.18,17.6h-14l-19.63-11.62s-6.27-2.47-4.83,4c0,0-5.51-2-4.15,4.33,0,0-6-1.12-3.41,4.57l26.39,24.9,32-2.1a442.38,442.38,0,0,0,113.28,6c5.09-.38,4.66-.79,14.35-2.14,22.71-3.14,27.52-2.67,31.72-6.63,4.76-4.48,5.49-11.6,5-22.57C3016.16,1848.51,3013.37,1826.77,3002.66,1799.77Z"/><path class="cls-18" d="M2849.23,1547.79l-1-1.85a19.76,19.76,0,0,1,8-2.29,19.46,19.46,0,0,1,7.45,1l-.66,2a17.17,17.17,0,0,0-6.66-.9A17.37,17.37,0,0,0,2849.23,1547.79Z"/><path class="cls-45" d="M2817.49,1785.71a34.83,34.83,0,0,1,24.21-7.91c16.15,1.16,24.94,13.72,26.05,15.36,1.53,2.24,3.06,4.49,4.6,6.73a95.91,95.91,0,0,0-15-7.53A97.63,97.63,0,0,0,2817.49,1785.71Z"/><path class="cls-64" d="M2892.76,2027.75c.75.33.39,4.38-14.05,44.4-21.26,58.9-26.52,67.4-35.89,73.23-16.34,10.17-35.44,8.62-48,6.11.84-.5,2.17-1.31,3.79-2.34,24.39-15.53,38.73-34.37,45.55-43.73C2873.52,2065.12,2890.28,2026.65,2892.76,2027.75Z"/><path class="cls-64" d="M2803.08,2044.38a61.49,61.49,0,0,0,32.13,0c26.9-7.44,38.84-31.36,40.8-35.46Z"/><path class="cls-64" d="M2826.54,2550.8c-9.66,4.69-11.06,13.22-18.76,25.48-2.35,3.72-20.29,32.29-40.08,31.28-6.55-.34-7.92-3.65-14.42-5.64-3.47,5.19-7.75,11.27-13,18-12.08,15.36-16.29,17.38-15.61,22.49,1.13,8.47,16.4,16.14,29.89,16.38,19.28.36,32.06-14.39,34.34-17.12A66.56,66.56,0,0,1,2826.3,2602l2.55,29.43,13.31-1.64q.45-27.18.89-54.35l-5-27.26A27,27,0,0,0,2826.54,2550.8Z"/><path class="cls-64" d="M3005.09,2575.44c-4.12,38.83-30.2,28.07-30.2,28.07h0c-2,3.19-4.14,6.45-6.47,9.74q-2.82,4-5.66,7.57c-1.85,8.46.48,12.72,1.62,14.37,6.77,9.76,26.6,6.56,38.36,1a48.52,48.52,0,0,0,16.61-13.08,185.78,185.78,0,0,1,21.17-55.46v26.22h9.08q-.48-28-.94-56l-18.25-27.19S3009.21,2536.61,3005.09,2575.44Z"/><path class="cls-24" d="M2958,1833.25s38-18.09,45.83-8.26,16.11,60.27-12.61,65.26c3.75-.35,6.9-.81,9.26-1.22,7.43-1.29,9.21-2.33,10.38-3.23a14.9,14.9,0,0,0,4.23-5.48c2.13-4.26,2.15-8.27,2-13.22-.4-10.86-1.38-17.64-1.38-17.64-1.49-10.42-2.24-15.62-3.64-21.41,0,0-1.49-6.11-9.4-28.28a142.72,142.72,0,0,1-18.66,14.17,156.82,156.82,0,0,1-23.14,12c-2.25,1-4.15,1.73-5.5,2.26Z"/><path class="cls-24" d="M2796.63,1539.06l.8,6.7s32.35.56,41.66-19c6.64-14,17.77-28.21,27.43-27a9.46,9.46,0,0,1,4.6,2,13.18,13.18,0,0,0-7.08-5.14c-4.23-1.2-7.83.55-11.42,2.25a32.45,32.45,0,0,0-11.48,9.41,38.85,38.85,0,0,0-6.06,10.58,36.14,36.14,0,0,1-12,14.26c-6.36,4.3-12.59,5.09-16.94,5.65A48.34,48.34,0,0,1,2796.63,1539.06Z"/><path class="cls-24" d="M2871.47,1502.48s2.21,59.82,27.49,49.32a39.27,39.27,0,0,1-9-5.7c-1.47-1.24-6.09-5.35-10.62-14.12A75.67,75.67,0,0,1,2871.47,1502.48Z"/><path class="cls-62" d="M3011.36,1757.18l-2-.66c5.36-16.47,5.47-30.91.34-42.92-5-11.62-12.75-16.46-21-21.58-7.7-4.78-15.66-9.72-20.89-20.53-6.5-13.46-3.34-24.85-.28-35.87s6.22-22.39-.21-36.14c-4.13-8.83-10.46-13.28-17.16-18-7.68-5.4-15.61-11-20.22-23.51a57.78,57.78,0,0,1-2.53-28.62l2,.31a55.79,55.79,0,0,0,2.43,27.59c4.38,11.91,12.05,17.3,19.46,22.52,6.63,4.66,13.49,9.49,17.85,18.82,6.76,14.45,3.49,26.22.33,37.59-3.09,11.14-6,21.65.15,34.39,5,10.27,12.32,14.83,20.11,19.67,8.17,5.06,16.61,10.3,21.83,22.53C3017,1725.27,3016.89,1740.21,3011.36,1757.18Z"/><path class="cls-25" d="M2935.46,1810.41c8.28,12.16,13.61,20,13.61,20h0s-12.05-35.91-16.35-62.81c-2.66-16.63-4-40.17,2-69.94a170.5,170.5,0,0,0,.7,112.78Z"/><path class="cls-25" d="M2966,1936.8s34.32,130.4-38.49,146.24c5.35.1,23.86-.23,40.38-13.91,22.44-18.58,22.53-46.36,22.48-50.05-1.93-10.16-4.34-20.9-7.38-32.11A425,425,0,0,0,2966,1936.8Z"/><g class="cls-65"><path class="cls-66" d="M2899,1468.73a78,78,0,0,0-42.37-.33c-9.49,2.66-29.41,8.23-38,24.85-5,9.73-2.56,16.32-10.8,26.72a54.36,54.36,0,0,1-14.52,12.42,62.89,62.89,0,0,1-20.31,8.08,46,46,0,0,1-1.38-15.62c1-11.74,6.44-19.78,11.38-26.9,2.6-3.76,11.74-16.38,29.3-27.66,8.95-5.75,19.45-12.5,34-14.74C2871.15,1451.72,2891.45,1463.71,2899,1468.73Z"/></g><ellipse class="cls-1" cx="2898.47" cy="1783.26" rx="5.48" ry="5.54"/><ellipse class="cls-1" cx="2896.97" cy="1820.96" rx="5.48" ry="5.54"/><ellipse class="cls-1" cx="2896.97" cy="1849.39" rx="5.48" ry="5.54"/><path class="cls-67" d="M1491,2115.81l-296.13.62c-.73,0-7.7-.54-11.54-4.76a7.31,7.31,0,0,1-1.31-8.44h309Z"/><path class="cls-68" d="M1350.31,1976.3l153.22-.64,59.17-.25q-26.73,70.52-53.45,141l-90.62-.34-126.89-.48Q1321,2046,1350.31,1976.3Z"/><ellipse class="cls-69" cx="1449.76" cy="2012.4" rx="12.79" ry="12.92"/><path class="cls-70" d="M1427.57,1976l-112.71,140.15H1368l106.75-140.4Z"/><path class="cls-70" d="M1532.08,1975.66l-99.55,140.52,76.72.25q26.54-70.38,53.08-140.77Z"/><ellipse class="cls-52" cx="1885.35" cy="2658.67" rx="107.46" ry="38.46"/><ellipse class="cls-3" cx="1885.35" cy="2648.17" rx="107.46" ry="38.46"/><path class="cls-52" d="M1846.52,2379.86l24,261.25s13.68,15.08,39.66,1.17l15-270.55-88.79-8.9Z"/><path class="cls-40" d="M1939.66,1830.66l-14.73,49.46-67.08,28.29q-17-20.22-34-40.46a54.11,54.11,0,0,0,27.41-16,54.93,54.93,0,0,0,13.42-27.06L1843.88,1801l100.59-7.18Z"/><path class="cls-24" d="M1880,1814.45a92.73,92.73,0,0,0,20.4,25.58A91.69,91.69,0,0,0,1931.7,1858q4-13.65,8-27.31l-29.26-23.39Z"/><path class="cls-40" d="M1934.49,1680.37s25.45,9.43,29.08,53c0,0,4.93,14.8,20.17,19.9,0,0,11,8.5-7.75,17.59a63.66,63.66,0,0,1,2.36,12.7,67.61,67.61,0,0,1-7.18,35.53,31.68,31.68,0,0,1-4.9,4.87c-18.47,14.67-47.83,3.39-53.41,1.14L1890,1814.45c-13.4,1.38-25.59-4.4-30.58-14.44-4.12-8.3-4.86-22.61,3.62-27.56,7.93-4.63,18.49,2.06,18.92,2.35l8-85.46Z"/><path class="cls-24" d="M1961.71,1720.53a9.18,9.18,0,0,1-2.51-3.91c-.23-.75-.22-1.1-.39-1.68-.34-1.2-1.28-2.79-4-4.32a27.5,27.5,0,0,1-7,17,25.32,25.32,0,0,1-7.34,5.45,21.28,21.28,0,0,0-5.57-12.29,20.71,20.71,0,0,0-10.61-6,47.65,47.65,0,0,1,1.18,37.07c-2.25,5.88-4.57,8.49-6.7,12.3-2.48,4.42-5.17,11.28-5.44,21.57l-24.6-29-2.54-52.33,15.65-19.57,37.74-1.54,11-2a156.39,156.39,0,0,1,9.06,28.1Q1961,1715.2,1961.71,1720.53Z"/><path class="cls-24" d="M1875.07,1783.1q5.61,10.45,11.2,20.92a12.4,12.4,0,0,1-14.89-7.11A12.53,12.53,0,0,1,1875.07,1783.1Z"/><path class="cls-71" d="M1961.62,1718.53a22.24,22.24,0,0,0,8.12-6.85c8.26-11.65,2.5-30.06-4.47-39.11-11.57-15-37.72-18.89-63.35-7.06a80.9,80.9,0,0,0-38.43-4.52c-29.15,3.77-46.91,22.73-51.82,28.35,0,0-8.1,34-21.12,94.54s64,69.17,89.49,30.57a28.39,28.39,0,0,1-22.76-31.75,15.38,15.38,0,0,1,11.58-11.64c7.2-1.5,12.57,3.21,13.14,3.74,0,0,24.23,33.7,42.55,32.47,0,0-17.73-19.68-9.7-37.46s14.17-35.28,9.55-45.45-7.25-14.71-7.25-14.71,24.79-3.62,23.4,23.42c0,0,18-16.73,9.74-32.78.62.15,8.8,2.3,11.25,9.89A14.52,14.52,0,0,1,1961.62,1718.53Z"/><path class="cls-72" d="M1833.05,1650c-18.16-7.49-40.12-.49-51.82,16.55a48,48,0,0,0-10.14,8.52c-10.65,11.88-16.31,31-9.28,47.47,9.81,23,38.67,27.38,57,23.85,3.57-.68,17.63-4.12,27.18-17a42.8,42.8,0,0,0,6.53-13.14l1.32-3.89C1866.49,1688.49,1855.58,1659.28,1833.05,1650Zm8.81,32.56c-.66-1.07-15-23.39-39.92-22.49a40.54,40.54,0,0,0-14,3c14.57-11.23,33-12.77,45.42-4.71,15.84,10.32,15.88,32.61,15.86,34.28v0A31.52,31.52,0,0,0,1841.86,1682.54Z"/><path class="cls-73" d="M1802.86,1747.45c-1,1-12.45,11.88-28.38,8.7a32.19,32.19,0,0,1-24.25-22.39,24,24,0,0,0,32.81,9.89Z"/><ellipse class="cls-18" cx="1951.12" cy="1751.1" rx="4.91" ry="8.83" transform="translate(-497.31 813.85) rotate(-20.96)"/><ellipse class="cls-43" cx="1935.95" cy="1775.05" rx="18.91" ry="19.11"/><path class="cls-18" d="M1966.92,1794.3c-2.71,0-5.34-1.21-7.82-3.6l2.86-3c1.79,1.72,3.56,2.54,5.29,2.43a7.4,7.4,0,0,0,4.66-2.57l3.23,2.61a11.52,11.52,0,0,1-7.58,4.13C1967.35,1794.3,1967.13,1794.3,1966.92,1794.3Z"/><path class="cls-40" d="M2145.16,2091.77l39.75-8.71s17.13,13.06,24.58,20.83a117.92,117.92,0,0,1,12.66,15.92h-68.52l-32.89-9.93Z"/><polygon class="cls-74" points="2003.15 1942.47 2200.22 1942.47 2140.7 2122.04 1901.53 2122.04 1983.74 1942.47 2003.15 1942.47"/><polygon class="cls-75" points="1983.3 1956.74 2180.36 1956.74 2120.85 2136.31 1881.68 2136.31 1963.88 1956.74 1983.3 1956.74"/><path class="cls-24" d="M1980.11,2517.57l9.32,69-4.32,7.63,2.94,14.34,8,2.51a47.53,47.53,0,0,1,32.83-13.73q3.57-49.74,7.13-99.48Z"/><path class="cls-76" d="M1947.34,2347.64l21.12,160.87s14.53,21.26,50.33,9.06,37.72-59.62,37.72-59.62l29-174.65-164-12.2Z"/><path class="cls-77" d="M1997.31,2655.53s-.67-44.45,10.25-44.26,15,44.26,15,44.26l73.31-2.59c-6.92-23.63-23.13-14.33-33.73-25.68-4.17-4.45-8.61-12-12.48-19.5-32.63-41.46-66.44-18.43-66.44-18.43l1.43,66.2Z"/><path class="cls-40" d="M2083.56,2513.35l-27.51,79.17s12.45,31.37,23.06,42.71,26.81,2.05,33.73,25.68l-73.31,2.59s-4.07-44.07-15-44.26-10.25,44.26-10.25,44.26h-12.67l-1.43-66.21,14.1-15.4,5.52-79,13.18-8c5.19-1,21-3.15,36.49,6A50.4,50.4,0,0,1,2083.56,2513.35Z"/><polygon class="cls-78" points="2041.37 1956.74 1910.17 2146.29 1987.75 2146.29 2110.87 1956.74 2041.37 1956.74"/><polygon class="cls-78" points="2154.8 1956.74 2039.86 2146.29 2080.02 2146.29 2180.36 1956.74 2154.8 1956.74"/><path class="cls-79" d="M2085.54,2169.21s83.6,78.53,94.84,110.13-83.3,229.17-83.3,229.17-68,30.42-82.79-17.13c0,0,10.77-134.51,38.93-174.31l-141.63-37.73Z"/><path class="cls-77" d="M2013.83,2662.88c1.78-22.34,5.74-39.06,10.52-39.32s10.61,16.32,14.72,39.32l73.31-2.59c-6.92-23.63-23.13-14.34-33.73-25.68-4.17-4.46-8.61-12-12.48-19.51-32.63-41.46-66.44-18.43-66.44-18.43l1.43,66.21Z"/><path class="cls-80" d="M1819.06,1865.9s36.17,18.3,105.87,14.22,147.32,198.14,147.32,198.14,34.46,12.33,59.79,7.81c0,0,17.84-8.18,21.59,38,0,0-61.37,88.4-135.69,51.9s-301.47-33.88-301.47-33.88S1671.85,1907.86,1819.06,1865.9Z"/><path class="cls-55" d="M1692.36,1958c-15.62,23.34-84,130.95-54.08,263.53,5.82,25.81,21.84,91.71,77.49,141.83,76.79,69.16,197.86,80.08,311,33.78,65.81-34.54,111.31-78.58,105.23-112.37-1.87-10.38-9.71-26-12.44-31.37a219,219,0,0,0-36.72-52.19c-46.38-50.13-48.88-100.28-116.83-186.92-15.17-19.34-29.2-34.88-40.13-46.33-15.4-12-49.55-35.12-98.69-41.28C1758.73,1918.13,1707.47,1948.34,1692.36,1958Z"/><path class="cls-1" d="M1950.62,1734.7a16.18,16.18,0,0,0-7.26,2.83,16.37,16.37,0,0,0-5.4,6.58"/><path class="cls-18" d="M1939.84,1745l-3.76-1.73a18.13,18.13,0,0,1,14.29-10.62l.51,4.15a14,14,0,0,0-6.33,2.46A14.23,14.23,0,0,0,1939.84,1745Z"/><path class="cls-56" d="M1649,2045.31s297.89-44.78,361.51,224.57c0,0,5.14,108.95,75,88.43,0,0-63.6,56-164.47,63.34-32.1,2.34-111.75,9.46-185.46-43.58-76.57-55.1-100-141.16-104.48-186.61-2.48-25.41-1.67-65.21,7.45-107.65A374.11,374.11,0,0,1,1649,2045.31Z"/><path class="cls-57" d="M1963.57,1733.36c1.56,5.78,3.34,11.79,5.38,18,2.26,6.89,4.63,13.38,7,19.47a23.93,23.93,0,0,0,6.41-4.21c2.51-2.31,4.74-4.37,4.74-7.3,0-3.13-2.54-5.38-3.4-6.08a40.16,40.16,0,0,1-7.8-4.63A42.11,42.11,0,0,1,1963.57,1733.36Z"/><path class="cls-73" d="M1806.91,1741a52.14,52.14,0,0,1-15-2.18c-5.1-1.54-13.64-4.1-19.84-12.43-9.06-12.18-5.79-26.63-5.39-28.23a33,33,0,0,1,4.62-10.37l.07-.1,6-7,1.57,1.36-5.92,7a31,31,0,0,0-4.29,9.66c-.15.6-3.6,14.87,5,26.47,5.79,7.77,13.92,10.21,18.78,11.67,19.12,5.75,37-1.65,45.94-6.57l1,1.84C1832.57,1735.81,1820.68,1741,1806.91,1741Z"/><path class="cls-73" d="M1814.8,1735.46c-9.23,0-16.65-1.89-22.17-5.66-7.3-5-8.32-11.42-8.36-11.69l2-.31c0,.06,1,5.87,7.55,10.32,6.36,4.31,19.3,8.15,44.81,2l.48,2A105.22,105.22,0,0,1,1814.8,1735.46Z"/><path class="cls-72" d="M1818.85,1746.37c-8.8,21.46-3.16,45.08,12.61,57.4,16.28,12.72,36.36,8,39.15,7.25l9.43,3.43c-2.39,3.4-13.54,18.51-34.55,22.79-23.12,4.72-40.51-7.28-43.44-9.38a56.09,56.09,0,0,1-9.83-14.71c-13.36-29.16,3.32-60.38,6.26-65.7Z"/><ellipse class="cls-1" cx="2902.21" cy="1583.14" rx="6.98" ry="7.06"/><path class="cls-52" d="M1851.35,2432.38s32,32.39,70.47,0v-8.81c-8.49.76-17.53,1.26-27.07,1.38a356.6,356.6,0,0,1-44.28-2.19Z"/><path class="cls-81" d="M3205.51,830.41c-110.6,0-200.59-91-200.59-202.76s90-202.76,200.59-202.76,200.6,91,200.6,202.76S3316.12,830.41,3205.51,830.41Zm0-382.35c-98,0-177.66,80.56-177.66,179.59s79.7,179.59,177.66,179.59,177.67-80.56,177.67-179.59S3303.48,448.06,3205.51,448.06Z"/><path class="cls-82" d="M3385.84,626.32c0,99.79-80,180.69-178.76,180.69s-178.76-80.9-178.76-180.69,80-180.7,178.76-180.7a177.54,177.54,0,0,1,44.14,5.55C3328.6,471,3385.84,541.92,3385.84,626.32Z"/><polygon class="cls-5" points="3209.51 626.77 3198.08 625.86 3206.78 514.65 3218.21 515.56 3209.51 626.77"/><polygon class="cls-5" points="3241.41 560.26 3211.73 520.88 3174.16 555.35 3166.46 546.77 3213.28 503.81 3250.53 553.24 3241.41 560.26"/><polygon class="cls-5" points="3331.36 696.81 3202.79 636.84 3207.59 626.32 3336.17 686.29 3331.36 696.81"/><polygon class="cls-5" points="3273.24 709.42 3271.36 697.99 3328.2 688.46 3301.41 637.8 3311.52 632.34 3345.85 697.24 3273.24 709.42"/><ellipse class="cls-5" cx="3205.51" cy="627.65" rx="18.89" ry="19.09"/><path class="cls-83" d="M3272.43,458.08,3042.76,697.57s10.24,37.64,48.49,66.37l247.23-260.13S3305.48,467.59,3272.43,458.08Z"/><path class="cls-83" d="M3373.51,560.26,3166.46,801.54a111.19,111.19,0,0,0,40.62,5.47l176.1-211.91S3382.52,579.87,3373.51,560.26Z"/><rect class="cls-81" x="3188.44" y="453.05" width="37.27" height="11.46" transform="translate(2716.66 3661.17) rotate(-89.43)"/><rect class="cls-81" x="3188.44" y="795.81" width="37.27" height="11.46" transform="translate(2373.92 4000.55) rotate(-89.43)"/><rect class="cls-81" x="3370.83" y="609.21" width="11.59" height="36.87" transform="translate(2715.84 3997.94) rotate(-89.44)"/><rect class="cls-81" x="3031.74" y="609.21" width="11.59" height="36.87" transform="translate(2380.08 3658.87) rotate(-89.44)"/><polygon class="cls-81" points="3337.81 763.94 3311.8 737.52 3319.93 729.35 3345.93 755.77 3337.81 763.94"/><polygon class="cls-81" points="3096.35 523.29 3070.35 496.86 3078.48 488.69 3104.48 515.12 3096.35 523.29"/><polygon class="cls-81" points="3078.48 763.94 3070.35 755.77 3096.35 729.35 3104.48 737.52 3078.48 763.94"/><polygon class="cls-81" points="3319.93 523.29 3311.8 515.12 3337.81 488.69 3345.93 496.86 3319.93 523.29"/></svg>