<svg xmlns="http://www.w3.org/2000/svg" xmlns:xlink="http://www.w3.org/1999/xlink" width="730" height="604.604" viewBox="0 0 730 604.604">
  <defs>
    <clipPath id="clip-path">
      <path id="Trazado_1665" data-name="Trazado 1665" d="M3236.221,1190.829l-58.8-9.938-11.651-1.97-12.246-2.073h0l-20.838-3.521-12.566-41.85a100.2,100.2,0,0,1,10.612-10.741c3.675-3.129,7.727-5.876,11.133-6.5,8.75-1.59,32.483-3.183,32.483-3.183s17.632-6.1,20.815-1.854,33.147,18.56,38.449,25.19C3237.913,1139.783,3236.78,1177.078,3236.221,1190.829Z" transform="translate(-3120.12 -1107.703)" fill="none"/>
    </clipPath>
    <clipPath id="clip-path-2">
      <path id="Trazado_1672" data-name="Trazado 1672" d="M3204.86,870.645s6.63,21.925,6.894,27.8,12.2,18.871,15.9,18.606a24.5,24.5,0,0,0,7.951-2.48l-1.857,8.312s-4.873,3.714-7.614,4.508,4.7,9.812,13.977,11.4,24.662-9.546,24.662-9.546-7.694-9.281-8.487-15.9-.256-19.358-.256-19.358,8.256-2.652,7.576-9.015-9.166-.531-9.166-.531-5.3-19.622-4.245-24.131-6.63,6.894-10.607,6.365c3.183-4.509.8-7.422.8-7.422s-2.387,5.565-7.951,7.155c-.531-3.978-2.387-3.978-2.387-3.978s-4.242,3.183-7.694,3.978a9.632,9.632,0,0,1,.531-3.978s-1.857,4.773-5.3,4.509S3212.285,861.63,3204.86,870.645Z" transform="translate(-3204.86 -859.257)" fill="none"/>
    </clipPath>
    <clipPath id="clip-path-3">
      <path id="Trazado_1676" data-name="Trazado 1676" d="M3276.427,1021.484a26.092,26.092,0,0,0,10.358-.795c5.26-1.593-4.145,7.968-7.333,6.694S3276.427,1021.484,3276.427,1021.484Z" transform="translate(-3276.425 -1020.51)" fill="none"/>
    </clipPath>
    <clipPath id="clip-path-4">
      <path id="Trazado_1682" data-name="Trazado 1682" d="M3055.976,1188.663l-12.246-2.077h0l-3.88-.656-16.957-2.865-33.8-5.717c-1.818-4.3-3.652-8.692-5.021-12.087-3.978-9.9-16.172-17.681-9.81-19.537s38.713-24.923,38.713-24.923a73.138,73.138,0,0,1,7.95,9.676,55.411,55.411,0,0,1,8.294,17.1c2.183,8.386,10.023,19.117,16.293,26.731l.231.274c4.531,5.476,8.192,9.266,8.192,9.266Z" transform="translate(-2972.452 -1120.8)" fill="none"/>
    </clipPath>
    <clipPath id="clip-path-5">
      <path id="Trazado_1686" data-name="Trazado 1686" d="M3254.32,1345.573l-11.651-1.97-12.246-2.072h0c-.816-.58-1.485-1.062-1.857-1.352-1.695-1.326,7.027-5.3,7.027-5.3s-9.679-2.124-11.8-3.988c-1.351-1.19,2.89-1.936,8.417-1.634a42.922,42.922,0,0,1,9.879,1.634C3248.424,1332.8,3252.533,1341.123,3254.32,1345.573Z" transform="translate(-3223.543 -1329.187)" fill="none"/>
    </clipPath>
    <clipPath id="clip-path-6">
      <rect id="Rectángulo_449" data-name="Rectángulo 449" width="253.765" height="154.827" transform="translate(0)" fill="none"/>
    </clipPath>
    <clipPath id="clip-path-7">
      <path id="Trazado_1694" data-name="Trazado 1694" d="M2728.394,2374.648s15.9-6.893,16.442-42.427-8.189-47.189-8.189-47.189-25.754-5.3-31.058,12.728S2728.394,2374.648,2728.394,2374.648Z" transform="translate(-2704.923 -2284.306)" fill="none"/>
    </clipPath>
    <clipPath id="clip-path-8">
      <path id="Trazado_1697" data-name="Trazado 1697" d="M2233.97,1892.12v29.17h34.474v-23.336Z" transform="translate(-2233.97 -1892.12)" fill="none"/>
    </clipPath>
    <clipPath id="clip-path-9">
      <path id="Trazado_1703" data-name="Trazado 1703" d="M1939.443,2002.944s-3.183-2.121,8.484-6.894,42.96-4.242,49.323,0,12.2,11.667,12.2,11.667,44.55,9.548,50.913,21.215,20.152,47.73,20.152,47.73,10.608,27.578,16.971,36.064,14.852,39.775,0,45.079-55.155-24.926-55.155-24.926l-152.209,13.787s-24.926,8.486-31.819-7.425,6.363-60.459,16.97-83.794S1910.8,2004.006,1939.443,2002.944Z" transform="translate(-1856.397 -1992.667)" fill="none"/>
    </clipPath>
    <clipPath id="clip-path-10">
      <path id="Trazado_1708" data-name="Trazado 1708" d="M1975.429,2387.691s-17.5-75.839-11.669-94.4,167.743-14.426,178.273-3.765-7.5,99.764-7.5,99.764S2042.782,2422.156,1975.429,2387.691Z" transform="translate(-1962.57 -2280.447)" fill="none"/>
    </clipPath>
    <clipPath id="clip-path-11">
      <path id="Trazado_1712" data-name="Trazado 1712" d="M1476.369,2159H1514.2s1.416,29.142-18.914,28.434S1476.369,2159,1476.369,2159Z" transform="translate(-1476.348 -2159)" fill="none"/>
    </clipPath>
    <clipPath id="clip-path-12">
      <path id="Trazado_1722" data-name="Trazado 1722" d="M1408.829,1063.477l-28.552,4.826-31.35,5.3-17.4,2.944-16.037,2.711-44.745,7.568c-1.057-10.492-4.1-44.024-1.436-58.535,3.175-17.327,10.259-41.016,16.619-46.33s20.886-8.463,20.886-8.463,41.7-9.192,57.961.354c5.681,3.334,15.644,20.789,25.213,39.718h0c6.635,13.121,13.08,26.952,17.755,37.267Z" transform="translate(-1268.24 -969.512)" fill="none"/>
    </clipPath>
    <clipPath id="clip-path-13">
      <path id="Trazado_1730" data-name="Trazado 1730" d="M1442.955,735.477s1.062,9.812,0,14.054,5.57,12.728,5.57,12.728-8.222,7.161-8.75,11.138.528,13.259-15.9,9.545a47.135,47.135,0,0,0,3.447,11.138s-.256,11.048-5.834,10.828-19.091-9.489-19.091-9.489l-1.477-27.578s-8.6-6.9-5.417-12.728,9.279-1.326,10.077,1.326,12.992-14.321,12.992-20.951,12.464,5.481,13.259.972S1437.918,737.334,1442.955,735.477Z" transform="translate(-1394.794 -733.458)" fill="none"/>
    </clipPath>
    <clipPath id="clip-path-14">
      <path id="Trazado_1735" data-name="Trazado 1735" d="M1519.967,870.017s-7.437-.531-10.076-1.944,1.582,7.6,5.642,6.894S1519.967,870.017,1519.967,870.017Z" transform="translate(-1509.07 -867.923)" fill="none"/>
    </clipPath>
    <clipPath id="clip-path-15">
      <path id="Trazado_1738" data-name="Trazado 1738" d="M1573.456,1141.25h0c-.123.467-7.891,30.519-8.417,38.767-.292,4.535-.844,11.028-1.282,15.975l-31.35,5.3L1515,1204.237l.893-11.382s.256-2.439.641-6.188c1.118-11.089,3.293-33.617,2.9-38.11C1534.278,1152.444,1573.456,1141.25,1573.456,1141.25Z" transform="translate(-1515 -1141.25)" fill="none"/>
    </clipPath>
    <clipPath id="clip-path-16">
      <path id="Trazado_1742" data-name="Trazado 1742" d="M1495.386,1327.734c-1.385,1.48-11.864-.641-12.359-.741a7.449,7.449,0,0,1,2.88,5.129l-17.4,2.957-16.037,2.711c3.67-8.168,9.425-18.978,14.511-19.855,1.054-.182,2.072-.318,3.06-.426,6.729-.726,11.666.118,12.441.426C1483.364,1318.288,1496.8,1326.223,1495.386,1327.734Z" transform="translate(-1452.47 -1317.221)" fill="none"/>
    </clipPath>
    <clipPath id="clip-path-17">
      <path id="Trazado_1748" data-name="Trazado 1748" d="M2329.473,1019.063h-37.852l-12.331-95.2-.511-3.932,2.7-.174,33.846-2.18,1.787-.115.564,4.609Z" transform="translate(-2278.78 -917.46)" fill="none"/>
    </clipPath>
    <clipPath id="clip-path-18">
      <path id="Trazado_1755" data-name="Trazado 1755" d="M2303.768,670.242s-.531,13.257,0,19.091-5.386,28.55-18.827,25.369c.882,6.186-.354,9.9,6.186,11.313A113.566,113.566,0,0,1,2302.8,729.2s-12.551,29.875-50.205,4.065c12.2-7.95,13.257-9.369,14.319-12.905s-1.416-18.391-1.416-18.391-10.076-.531-9.9-7.073,6.189-5.3,6.189-5.3,4.949-16.388,3.359-21.515S2297.669,680.583,2303.768,670.242Z" transform="translate(-2252.59 -667.118)" fill="none"/>
    </clipPath>
    <clipPath id="clip-path-19">
      <path id="Trazado_1759" data-name="Trazado 1759" d="M2376.423,795.57a66.452,66.452,0,0,1-9.356,1.259c-3.149,0,2.888,6.509,6.481,5.04S2376.423,795.57,2376.423,795.57Z" transform="translate(-2366.186 -795.57)" fill="none"/>
    </clipPath>
    <clipPath id="clip-path-20">
      <path id="Trazado_1767" data-name="Trazado 1767" d="M2187.539,1008.208h-49.161s-9.546-1.608-9.9-12.718,7.425-66.968,10.961-72.625,29.2-20,29.2-20,.377,2.239,1.082,6.03c.3,1.649.67,3.59,1.087,5.776,2.206,11.372,5.935,29.216,10.533,45.668C2186.765,979.786,2187.534,999.042,2187.539,1008.208Z" transform="translate(-2128.464 -902.86)" fill="none"/>
    </clipPath>
    <clipPath id="clip-path-21">
      <path id="Trazado_1770" data-name="Trazado 1770" d="M2480.168,990.118c-.751,4.809-4.57,11.472-10.038,16.49h-42.437c-.323-8.368-1.485-37.036-2.683-51.4-.934-11.233-3.124-31.545-4.494-43.95h0c-.256-2.377-.492-4.455-.677-6.132-.316-2.767-.5-4.416-.5-4.416h0c17.332.572,32.528,10.664,38.9,17.64C2465.367,926.143,2482.643,974.251,2480.168,990.118Z" transform="translate(-2419.34 -900.71)" fill="none"/>
    </clipPath>
    <clipPath id="clip-path-22">
      <path id="Trazado_1773" data-name="Trazado 1773" d="M2266.37,1209.854l9.315-35.794h80.24l1.887,1.818-9.061,33.976Z" transform="translate(-2266.37 -1174.06)" fill="none"/>
    </clipPath>
    <clipPath id="clip-path-23">
      <path id="Trazado_1797" data-name="Trazado 1797" d="M1488.268,1357.553q-7.322,2.713-15.062,5.24c-68.861,22.482-162.992,33.676-288.106,22.482-57.315-5.129-104.476-15.355-142.714-29.329q-7.621-2.783-14.788-5.77c-226.861-94.517-103.929-331.864,56.494-373.047,0,0,138.233-66.424,269.309-37.608s176.451,71.3,186.077,96.994,2.383,80.443,70.624,122.292C1656.864,1187.482,1640.59,1301.133,1488.268,1357.553Z" transform="translate(-903.247 -932.273)" fill="none"/>
    </clipPath>
  </defs>
  <g id="_02" data-name="02" transform="translate(-903.245 -360)">
    <path id="Trazado_1660" data-name="Trazado 1660" d="M2050.232,2694.287c-5.9,0-12.054-1.539-17.952-1.539-28.932-.654-57.961-.58-86.979-.839q8.489.936,17.288,1.719c56.725,5.027,107.137,5.537,151.767,2.539-5.986-.542-11.972-1.367-17.953-1.367C2081.007,2694.287,2065.619,2694.8,2050.232,2694.287Z" transform="translate(-778.078 -1744.768)" fill="#dae5ed"/>
    <path id="Trazado_1661" data-name="Trazado 1661" d="M1488.265,1357.545c152.322-56.422,168.6-170.071,121.837-198.746-68.244-41.849-61-96.586-70.624-122.292s-55-68.171-186.077-96.995-269.309,37.608-269.309,37.608c-160.423,41.175-283.363,278.519-56.494,373.047q7.157,2.978,14.788,5.771c34.362,12.567,75.928,22.087,125.589,27.611,28.735.256,57.5.185,86.159.839,5.843,0,11.94,1.539,17.783,1.539,15.242.513,30.485,0,45.728.513,5.932,0,11.861.826,17.783,1.367,54.228-3.678,99.839-12.636,137.77-25.021Q1480.951,1360.261,1488.265,1357.545Z" transform="translate(0 -436.406)" fill="#fdffe8"/>
    <g id="Grupo_1737" data-name="Grupo 1737" transform="translate(1405.842 452.927)" opacity="0.63">
      <path id="Trazado_1662" data-name="Trazado 1662" d="M2890.08,882.56l37.754,6.2,33.8,5.55,20.838,3.419h0l12.246,2.013,11.651,1.911,58.8,9.651,11.477,1.885,17.465-155.247L2903.513,731.68Z" transform="translate(-2890.08 -731.68)" fill="#ecaf9f"/>
    </g>
    <path id="Trazado_1663" data-name="Trazado 1663" d="M3195.114,1109.2c-3.183-4.244-20.814,1.854-20.814,1.854s-23.728,1.593-32.484,3.183c-3.406.621-7.458,3.367-11.133,6.5a100.234,100.234,0,0,0-10.612,10.741l12.566,41.85,20.838,3.521h0l12.246,2.072,11.651,1.97,58.8,9.938c.567-13.751,1.693-51.036-2.621-56.422C3228.262,1127.765,3198.3,1113.447,3195.114,1109.2Z" transform="translate(-1655.244 -559.873)" fill="#823f2c"/>
    <g id="Grupo_1738" data-name="Grupo 1738" transform="translate(1464.839 547.829)" clip-path="url(#clip-path)">
      <path id="Trazado_1664" data-name="Trazado 1664" d="M3192.441,1077.523c-2.257-.564-41.244,0-41.244,0l-56.935,5.078-11.672,14.388,13.5,37.518c1.693-.846,14.023-22.5,19.609-27.362,5.111-4.447,11.844-12.977,15.075-11.567s13.982,16.157,26.11,13.154,16.388-7.679,16.388-7.679,13.8,11.169,17.465,17.091c-6.206,7.335-4.124,9.007-8.833,21.994s-.033,21.915-3.219,30.006,33.207,11.192,33.207,10.064,14.5-68.85,14.5-68.85S3194.7,1078.087,3192.441,1077.523Z" transform="translate(-3092.215 -1085.077)" fill="#aa5d4b"/>
    </g>
    <path id="Trazado_1666" data-name="Trazado 1666" d="M3246.75,779.331s2.388-9.746-11-12.962-4.9,2.09-4.9,2.09-13.523-.256-17.371,1.326,4.452,2.549,4.452,2.549-10.153.1-19.962,10.71.794,21.612.794,21.612l50.913,14.318s10.413-9.415,12.9-20.286S3252.58,778.005,3246.75,779.331Z" transform="translate(-1710.064 -303.399)" fill="#d06d24"/>
    <path id="Trazado_1667" data-name="Trazado 1667" d="M3247.072,803.814s2.085-8.525-9.62-11.333-4.288,1.829-4.288,1.829-11.821-.231-15.183,1.159,3.893,2.226,3.893,2.226-8.876.092-17.439,9.364.695,18.891.695,18.891l44.5,12.515s9.1-8.227,11.284-17.732S3252.171,802.655,3247.072,803.814Z" transform="translate(-1715.271 -323.017)" fill="#af5519"/>
    <path id="Trazado_1668" data-name="Trazado 1668" d="M3256.037,893.951s8.255-2.652,7.576-9.015-9.166-.531-9.166-.531-5.3-19.622-4.245-24.131-6.63,6.894-10.607,6.363c3.183-4.506.8-7.419.8-7.419s-2.388,5.565-7.95,7.155c-.531-3.978-2.388-3.978-2.388-3.978s-4.242,3.183-7.694,3.978a9.634,9.634,0,0,1,.531-3.978s-1.857,4.773-5.3,4.509-5.3-5.3-12.729,3.711c0,0,6.63,21.925,6.894,27.8s12.2,18.871,15.9,18.607a24.5,24.5,0,0,0,7.951-2.48l-1.857,8.312s-4.873,3.714-7.614,4.509,4.7,9.812,13.977,11.4,24.662-9.545,24.662-9.545-7.694-9.281-8.487-15.9S3256.037,893.951,3256.037,893.951Z" transform="translate(-1718.288 -373.793)" fill="#ffb4b9"/>
    <g id="Grupo_1739" data-name="Grupo 1739" transform="translate(1486.572 485.435)" clip-path="url(#clip-path-2)">
      <path id="Trazado_1669" data-name="Trazado 1669" d="M3202.6,835.622l-13.972,7.64,1.975,11.146s2.116-7.081,8.818-4.965,7.263.9,11.071-.4,9.969,3.978,13.592,0-1.721,2.934,3.911.818,8.753,13.064,14.388,15.842c4.5-8.958,0-31.637,0-31.637Z" transform="translate(-3192.793 -840.53)" fill="#f77b82"/>
      <path id="Trazado_1670" data-name="Trazado 1670" d="M3405.843,959.677c-2.257-1.559-4.373,3.59-4.373,3.59C3402.316,966.83,3408.1,961.237,3405.843,959.677Z" transform="translate(-3351.047 -933.705)" fill="#f77b82"/>
      <path id="Trazado_1671" data-name="Trazado 1671" d="M3314.086,1034.176a113.438,113.438,0,0,1-10.917,9.876s-13.906,7.056-3.75,7.337S3319.023,1028.965,3314.086,1034.176Z" transform="translate(-3272.409 -988.738)" fill="#f77b82"/>
    </g>
    <path id="Trazado_1674" data-name="Trazado 1674" d="M3286.785,1020.69a26.094,26.094,0,0,1-10.359.8s-.159,4.616,3.026,5.9S3292.045,1019.1,3286.785,1020.69Z" transform="translate(-1771.5 -494.15)" fill="#823f2c"/>
    <g id="Grupo_1740" data-name="Grupo 1740" transform="translate(1504.925 526.36)" clip-path="url(#clip-path-3)">
      <path id="Trazado_1675" data-name="Trazado 1675" d="M3294.361,1034.14c-2.321,0-4.2,1.331-4.2,2.975s1.88,2.978,4.2,2.978,4.2-1.331,4.2-2.978S3296.682,1034.14,3294.361,1034.14Z" transform="translate(-3286.637 -1030.644)" fill="#fff"/>
    </g>
    <path id="Trazado_1680" data-name="Trazado 1680" d="M3045.746,1174.585l-.231-.274c-6.27-7.615-14.105-18.345-16.293-26.731a55.416,55.416,0,0,0-8.294-17.1,73.1,73.1,0,0,0-7.95-9.676s-32.348,23.082-38.713,24.923,5.832,9.638,9.81,19.537c1.369,3.4,3.2,7.789,5.021,12.087l33.8,5.717,16.958,2.865,3.88.656h0l12.246,2.077-2.052-4.811S3050.277,1180.061,3045.746,1174.585Z" transform="translate(-1544.183 -569.569)" fill="#eaeaea"/>
    <g id="Grupo_1741" data-name="Grupo 1741" transform="translate(1428.273 551.231)" clip-path="url(#clip-path-4)">
      <path id="Trazado_1681" data-name="Trazado 1681" d="M3120.07,1088.4s3.613,6.135,3.9,8.25,6,7.4,9.171,16.081-.028,12.567,8.676,20.945,24.7,29.3,25.216,29.385-39.6-77.519-39.6-77.519Z" transform="translate(-3082.211 -1094.583)" fill="#d6d6d6"/>
    </g>
    <path id="Trazado_1683" data-name="Trazado 1683" d="M3223.831,1329.531c-1.092-.131-2.164-.221-3.19-.274-5.527-.3-9.771.444-8.417,1.634,2.119,1.864,11.8,3.988,11.8,3.988s-8.72,3.978-7.024,5.3c.215.172.541.411.936.693l3.88.657h0l12.246,2.077-2.052-4.811S3228.363,1335.007,3223.831,1329.531Z" transform="translate(-1723.575 -725.139)" fill="#d6d6d6"/>
    <path id="Trazado_1684" data-name="Trazado 1684" d="M3242.062,1330.888a42.922,42.922,0,0,0-9.879-1.634c-5.526-.3-9.769.443-8.417,1.634,2.121,1.865,11.8,3.988,11.8,3.988s-8.719,3.978-7.027,5.3c.372.29,1.042.769,1.857,1.352h0l12.246,2.072,11.651,1.97C3252.51,1341.124,3248.4,1332.8,3242.062,1330.888Z" transform="translate(-1732.157 -725.152)" fill="#ffb4b9"/>
    <g id="Grupo_1742" data-name="Grupo 1742" transform="translate(1491.363 604.035)" clip-path="url(#clip-path-5)">
      <path id="Trazado_1685" data-name="Trazado 1685" d="M3214.931,1333.441a92.308,92.308,0,0,1-11.212-2.821l-3.809,11.1,19.04,8.676s-6.345-4.232-6.1-7.789,7.8-6.176,8.51-6.812S3220.855,1334.516,3214.931,1333.441Z" transform="translate(-3205.971 -1330.252)" fill="#f77b82"/>
    </g>
    <path id="Trazado_1687" data-name="Trazado 1687" d="M1392.73,2402.12q7.224,2.978,14.929,5.771l24-60.831h-16.706Z" transform="translate(-365.201 -1488.36)" fill="#ecb789"/>
    <path id="Trazado_1688" data-name="Trazado 1688" d="M3042.67,2347.06l26.7,67.691q7.82-2.524,15.206-5.24l-25.2-62.438Z" transform="translate(-1596.23 -1488.36)" fill="#ecb789"/>
    <rect id="Rectángulo_446" data-name="Rectángulo 446" width="490.012" height="20.176" rx="10.088" transform="translate(1013.62 845.177)" fill="#ecb789"/>
    <rect id="Rectángulo_447" data-name="Rectángulo 447" width="271.256" height="190.914" transform="translate(1125.594 623.513)" fill="#60a1b8"/>
    <rect id="Rectángulo_448" data-name="Rectángulo 448" width="253.765" height="154.827" transform="translate(1134.07 630.269)" fill="#ebeff2"/>
    <g id="Grupo_1745" data-name="Grupo 1745" transform="translate(1134.07 630.269)" clip-path="url(#clip-path-6)">
      <g id="Grupo_1743" data-name="Grupo 1743" transform="translate(58.956 -11.877)" opacity="0.67">
        <path id="Trazado_1689" data-name="Trazado 1689" d="M2046.3,1571.212h48.13l92.222-175.654-34.274-2.477Z" transform="translate(-2046.3 -1393.08)" fill="#fff"/>
      </g>
      <g id="Grupo_1744" data-name="Grupo 1744" transform="translate(149.988 -11.877)" opacity="0.67">
        <path id="Trazado_1690" data-name="Trazado 1690" d="M2401.25,1569.045l112.792-2.116V1395.98l-36.813-2.9Z" transform="translate(-2401.25 -1393.08)" fill="#fff"/>
      </g>
    </g>
    <g id="Grupo_1746" data-name="Grupo 1746" transform="translate(1147.787 649.998)" opacity="0.42">
      <rect id="Rectángulo_450" data-name="Rectángulo 450" width="64.798" height="70.002" transform="translate(0)" fill="#609ca4"/>
    </g>
    <g id="Grupo_1747" data-name="Grupo 1747" transform="translate(1228.616 649.998)" opacity="0.42">
      <rect id="Rectángulo_451" data-name="Rectángulo 451" width="64.798" height="70.002" transform="translate(0)" fill="#609ca4"/>
    </g>
    <g id="Grupo_1748" data-name="Grupo 1748" transform="translate(1309.444 649.998)" opacity="0.42">
      <rect id="Rectángulo_452" data-name="Rectángulo 452" width="64.798" height="70.002" fill="#609ca4"/>
    </g>
    <path id="Trazado_1691" data-name="Trazado 1691" d="M2677.31,2243.72c-7.951-4.773-31.82,0-31.82,0l6.363,24.926,38.185-8.007S2685.265,2248.493,2677.31,2243.72Z" transform="translate(-1299.91 -1407.983)" fill="#ffb4b9"/>
    <path id="Trazado_1692" data-name="Trazado 1692" d="M2705.59,2297.736c-5.3,18.032,22.8,76.9,22.8,76.9s15.9-6.894,16.442-42.427-8.189-47.189-8.189-47.189S2710.894,2279.707,2705.59,2297.736Z" transform="translate(-1344.225 -1441.688)" fill="#ef9c22"/>
    <g id="Grupo_1749" data-name="Grupo 1749" transform="translate(1360.7 842.606)" clip-path="url(#clip-path-7)">
      <path id="Trazado_1693" data-name="Trazado 1693" d="M2668.374,2250.79l-9.874,21.255,6.54,39.373,27.875,45.44s1.693-22.849-7.9-45.981-8.232-38.083,8.012-40.622,26.416,13.26,26.416,13.26l-6.489-32.725Z" transform="translate(-2670.406 -2259.385)" fill="#db8514"/>
    </g>
    <path id="Trazado_1695" data-name="Trazado 1695" d="M2233.97,1921.29h34.474v-23.336l-34.474-5.834Z" transform="translate(-992.821 -1146.497)" fill="#ffb4b9"/>
    <g id="Grupo_1750" data-name="Grupo 1750" transform="translate(1241.149 745.623)" clip-path="url(#clip-path-8)">
      <path id="Trazado_1696" data-name="Trazado 1696" d="M2238.413,1864.325c-2.116-.423-32.64-2.7-32.64-2.7l-.513,15.178s12.413,7.181,22.146,9.1,11.864,5.047,17.578,2.721,6.639-11.692,6.639-11.692S2240.529,1864.748,2238.413,1864.325Z" transform="translate(-2212.623 -1869.449)" fill="#f77b82"/>
    </g>
    <path id="Trazado_1698" data-name="Trazado 1698" d="M2181.9,1563.012s-22.274,1.59-25.457,6.894a8.713,8.713,0,0,0,0,9.546s-25.988,25.987-6.894,44.55c3.711,23.338,22.8,35,32.35,36.064s12.728-2.652,15.9,0,21.212-24.928,25.457-35.533,3.182-35.533,0-43.489S2198.344,1552.4,2181.9,1563.012Z" transform="translate(-924.846 -898.796)" fill="#0e3644"/>
    <path id="Trazado_1699" data-name="Trazado 1699" d="M2209.4,1626.572s-18.548,1.326-21.2,5.742a7.261,7.261,0,0,0,0,7.95s-21.641,21.638-5.742,37.095c3.09,19.43,18.978,29.144,26.928,30.029s10.6-2.208,13.246,0,17.665-20.756,21.2-29.588,2.649-29.586,0-36.21S2223.086,1617.742,2209.4,1626.572Z" transform="translate(-950.209 -946.556)" fill="#051d23"/>
    <path id="Trazado_1700" data-name="Trazado 1700" d="M2080.527,2076.662s-13.787-36.064-20.153-47.73-50.913-21.215-50.913-21.215-5.832-7.424-12.2-11.667-37.654-4.773-49.323,0-8.484,6.894-8.484,6.894c-28.639,1.062-53.565,29.17-64.172,52.5s-23.851,67.886-16.97,83.794,31.819,7.425,31.819,7.425l152.208-13.788s40.306,30.229,55.155,24.926,6.365-36.593,0-45.079S2080.527,2076.662,2080.527,2076.662Z" transform="translate(-712.203 -1224.856)" fill="#f5b952"/>
    <g id="Grupo_1751" data-name="Grupo 1751" transform="translate(1144.208 767.811)" clip-path="url(#clip-path-9)">
      <path id="Trazado_1701" data-name="Trazado 1701" d="M2136.923,2316.177c-22.425-1.993-45.437-66.013-47.356-83.784s-85.087,8.52-115.975,8.1-24.12-25.57-27.929-26-12.269,36.8-16.5,67.835-19.042,39.216-20.312,40.408l2.962,12.618s60.933-9.579,65.714-9.579,103.122,9.579,103.122,9.579h61.672S2159.351,2318.157,2136.923,2316.177Z" transform="translate(-1895.398 -2157.597)" fill="#ef9c22"/>
      <path id="Trazado_1702" data-name="Trazado 1702" d="M2204.553,2031.995c-11.426,1.76-24.344,0-24.344,0s4.032,8.953,20.958,5.145,38.246.944,38.246.944S2215.979,2030.235,2204.553,2031.995Z" transform="translate(-2097.164 -2021.718)" fill="#ef9c22"/>
    </g>
    <path id="Trazado_1704" data-name="Trazado 1704" d="M2145.469,2695.157c-15.388-.513-30.776,0-46.164-.513-5.9,0-12.053-1.539-17.952-1.539-23.308-.513-46.676-.582-70.053-.716.23,1.026.362,1.6.362,1.6,59.53,30.468,138.121,8.32,155.57,2.765-.587,0-1.175-.028-1.759-.054C2158.8,2696.183,2152.137,2695.157,2145.469,2695.157Z" transform="translate(-827.281 -1745.125)" fill="#823f2c"/>
    <path id="Trazado_1705" data-name="Trazado 1705" d="M2142.032,2289.524c-10.531-10.661-172.438-14.8-178.273,3.765-5.332,16.968,8.833,81.789,11.307,92.807,23.372.134,46.746.189,70.053.715,5.9,0,12.053,1.539,17.952,1.539,15.388.513,30.775,0,46.163.513,6.668,0,13.336,1.026,20,1.539.585.026,1.172.041,1.759.054,2.293-.731,3.532-1.174,3.532-1.174S2152.562,2300.182,2142.032,2289.524Z" transform="translate(-791.055 -1438.831)" fill="#823f2c"/>
    <g id="Grupo_1752" data-name="Grupo 1752" transform="translate(1171.514 841.616)" clip-path="url(#clip-path-10)">
      <path id="Trazado_1706" data-name="Trazado 1706" d="M2133.917,2694.83c-5.9,0-12.054-1.539-17.952-1.539-19.337-.436-38.726-.549-58.115-.652,1.315,6.293,2.249,10.341,2.249,10.341,56.147,28.737,132.635,1.326,132.635,1.326s.615-3.042,1.523-7.966a140.007,140.007,0,0,0-14.177-1C2164.693,2694.83,2149.3,2695.343,2133.917,2694.83Z" transform="translate(-2033.414 -2586.927)" fill="#6c3022"/>
      <path id="Trazado_1707" data-name="Trazado 1707" d="M2174.429,2391.931c-8.778-8.889-143.753-12.336-148.615,3.139-3.632,11.559,3.591,49.754,7.478,68.355,19.392.1,38.777.215,58.115.651,5.9,0,12.054,1.539,17.952,1.539,15.388.513,30.776,0,46.164.513a139.427,139.427,0,0,1,14.177,1C2173.283,2447.712,2181.431,2399.02,2174.429,2391.931Z" transform="translate(-2008.857 -2357.713)" fill="#6c3022"/>
    </g>
    <path id="Trazado_1709" data-name="Trazado 1709" d="M1582.1,2175.6c-6.445,1.38-10.92,5.983-10,10.279s6.891,6.668,13.336,5.278,10.92-5.986,10-10.281S1588.538,2174.223,1582.1,2175.6Zm1.972,12.739c-3.98.854-7.671-.605-8.238-3.26s2.2-5.5,6.176-6.35,7.671.605,8.24,3.26S1588.048,2187.489,1584.068,2188.344Z" transform="translate(-498.897 -1358.15)" fill="#bfd0d8"/>
    <path id="Trazado_1710" data-name="Trazado 1710" d="M1476.369,2159s-1.413,27.726,18.917,28.434S1514.2,2159,1514.2,2159Z" transform="translate(-427.585 -1346.195)" fill="#90a6af"/>
    <g id="Grupo_1753" data-name="Grupo 1753" transform="translate(1048.763 812.805)" clip-path="url(#clip-path-11)">
      <path id="Trazado_1711" data-name="Trazado 1711" d="M1506.069,2159s-1.416,27.726,18.914,28.434S1543.9,2159,1543.9,2159Z" transform="translate(-1498.431 -2159)" fill="#bfd0d8"/>
    </g>
    <path id="Trazado_1713" data-name="Trazado 1713" d="M1468.251,2266.434a5.45,5.45,0,0,0,3.124.987h27.519c8.309,0,10.146-9.281,10.146-9.281h-46.4A13.007,13.007,0,0,0,1468.251,2266.434Z" transform="translate(-417.376 -1420.096)" fill="#bfd0d8"/>
    <path id="Trazado_1714" data-name="Trazado 1714" d="M1447.043,1526.52h-79.6a9.533,9.533,0,0,0-9.5,9.5v54.252a9.533,9.533,0,0,0,9.5,9.5h44.148l20,18.209,3.9-18.209h11.541a9.532,9.532,0,0,0,9.5-9.5v-54.252A9.532,9.532,0,0,0,1447.043,1526.52Z" transform="translate(-339.353 -873.578)" fill="#a3d7d8"/>
    <rect id="Rectángulo_453" data-name="Rectángulo 453" width="74.472" height="3.808" rx="1.904" transform="translate(1030.317 664.215)" fill="#fff"/>
    <rect id="Rectángulo_454" data-name="Rectángulo 454" width="74.472" height="3.808" rx="1.904" transform="translate(1030.317 674.344)" fill="#fff"/>
    <rect id="Rectángulo_455" data-name="Rectángulo 455" width="74.472" height="3.808" rx="1.904" transform="translate(1030.317 684.475)" fill="#fff"/>
    <rect id="Rectángulo_456" data-name="Rectángulo 456" width="74.472" height="3.808" rx="1.904" transform="translate(1030.317 694.603)" fill="#fff"/>
    <rect id="Rectángulo_457" data-name="Rectángulo 457" width="74.472" height="3.808" rx="1.904" transform="translate(1030.317 704.734)" fill="#fff"/>
    <circle id="Elipse_144" data-name="Elipse 144" cx="19.568" cy="19.568" r="19.568" transform="translate(1524.832 594.729) rotate(-45)" fill="#fff"/>
    <rect id="Rectángulo_458" data-name="Rectángulo 458" width="16.924" height="7.802" rx="3.75" transform="translate(1548.284 599.062) rotate(-82.06)" fill="#ef8381"/>
    <path id="Trazado_1715" data-name="Trazado 1715" d="M3446.986,1294.133a.513.513,0,0,0-.613.384,6.419,6.419,0,0,1-7.437,4.9c-5.95-.844-5.953-6.535-5.95-6.783a.513.513,0,0,0-1.026-.015c0,.069-.028,6.84,6.832,7.814a9.527,9.527,0,0,0,1.388.1c5.821,0,7.181-5.724,7.2-5.786a.513.513,0,0,0-.39-.613Z" transform="translate(-1887.146 -697.353)" fill="#ef8380"/>
    <path id="Trazado_1716" data-name="Trazado 1716" d="M3454.227,1320.405a.513.513,0,0,0-.58.436l-.582,4.19a.513.513,0,0,0,.436.58h.072a.513.513,0,0,0,.513-.441l.582-4.191A.513.513,0,0,0,3454.227,1320.405Z" transform="translate(-1902.834 -718.495)" fill="#ef8380"/>
    <path id="Trazado_1717" data-name="Trazado 1717" d="M3443.351,1335.313l-10.671-1.488a.518.518,0,1,0-.144,1.026l10.674,1.488a.323.323,0,0,0,.072,0,.514.514,0,0,0,.069-1.026Z" transform="translate(-1887.242 -728.515)" fill="#ef8380"/>
    <g id="Grupo_1754" data-name="Grupo 1754" transform="translate(933.404 452.466)" opacity="0.63">
      <path id="Trazado_1718" data-name="Trazado 1718" d="M1211.444,729.96l-190.6,27.047L1038.3,916.9l48.484-8.194,44.75-7.568,16.037-2.711,17.4-2.942,31.35-5.3,28.552-4.827-1.093-12.649Z" transform="translate(-1020.84 -729.96)" fill="#e9cbec"/>
    </g>
    <path id="Trazado_1719" data-name="Trazado 1719" d="M1389.973,1013.547h0c-9.569-18.929-19.532-36.382-25.213-39.718-16.265-9.546-57.961-.354-57.961-.354s-14.521,3.155-20.886,8.463-13.444,29-16.619,46.33c-2.662,14.511.38,48.043,1.436,58.535l44.75-7.568,16.037-2.711,17.4-2.944,31.35-5.3,28.552-4.827-1.093-12.649C1403.045,1040.5,1396.608,1026.668,1389.973,1013.547Z" transform="translate(-271.38 -456.602)" fill="#50ad8a"/>
    <g id="Grupo_1755" data-name="Grupo 1755" transform="translate(996.853 512.895)" clip-path="url(#clip-path-12)">
      <path id="Trazado_1720" data-name="Trazado 1720" d="M1362.344,1104.547c-.513-6.776,6.722-65.873-19.414-66.437,0,0,15.852,7.476,15.852,28.631s-.195,36.39-.195,36.39-4.36,6.583-7.758,12.885,1.975-.982,7.758-3.547-4.029,8.435-2.367,9.846,9.276-10.1,18.868-9.846a56.353,56.353,0,0,0,15.516-1.439S1362.857,1111.32,1362.344,1104.547Z" transform="translate(-1323.775 -1020.517)" fill="#398e6b"/>
      <path id="Trazado_1721" data-name="Trazado 1721" d="M1655.341,1128.774c-1.975-2.821,5.078-14.832,2.257-18.417s-8.745-10.074-9.592-12.331-4.8-20.876-4.8-20.876l8.463,61.569,3.1,15.162s10.969-1.611,9.592-3.908S1657.316,1131.594,1655.341,1128.774Z" transform="translate(-1547.044 -1049.545)" fill="#398e6b"/>
    </g>
    <path id="Trazado_1723" data-name="Trazado 1723" d="M1409.451,951.24l-4.711,9.807s10.607,28.9,13.79,23.867,12.961-13.523,12.961-13.523,13.554,6.63,16.206,6.894-9.279-23.338-9.279-23.338Z" transform="translate(-374.17 -442.454)" fill="#fff"/>
    <path id="Trazado_1724" data-name="Trazado 1724" d="M1411.849,656.482c-3.447-.795,3.978-3.447,0-4.773s-17.237-11.669-35.266-6.1-14.852,15.424-14.852,15.424c-25.721,20.2,9.017,41.7,9.017,41.7l35.266-27.7s4.1-2.241,11.984-3.357S1415.3,657.277,1411.849,656.482Z" transform="translate(-335.046 -211.146)" fill="#602d35"/>
    <path id="Trazado_1725" data-name="Trazado 1725" d="M1432.2,680.013c-2.652-.613,3.06-2.652,0-3.673s-13.262-8.976-27.134-4.693-11.426,11.869-11.426,11.869c-19.788,15.539,6.925,32.079,6.925,32.079l27.134-21.3a29.6,29.6,0,0,1,9.22-2.583C1442.969,690.851,1434.847,680.625,1432.2,680.013Z" transform="translate(-360.455 -230.786)" fill="#421921"/>
    <path id="Trazado_1726" data-name="Trazado 1726" d="M1442.927,749.493c1.062-4.242,0-14.054,0-14.054-5.037,1.857-10.341-3.534-11.136.972s-13.259-7.6-13.259-.972-12.2,23.595-12.993,20.951-6.9-7.161-10.076-1.326,5.417,12.728,5.417,12.728l1.477,27.575s13.523,9.281,19.091,9.489,5.835-10.828,5.835-10.828a47.125,47.125,0,0,1-3.447-11.138c16.439,3.714,15.388-5.568,15.9-9.546s8.75-11.138,8.75-11.138S1441.868,753.738,1442.927,749.493Z" transform="translate(-366.741 -279.562)" fill="#ffb4b9"/>
    <g id="Grupo_1756" data-name="Grupo 1756" transform="translate(1028.026 453.858)" clip-path="url(#clip-path-13)">
      <path id="Trazado_1727" data-name="Trazado 1727" d="M1473.272,705.371l-29.409-5.5-7.181,7.717-2.962,17.678.79,6.183s12.118-7.881,13.877-15.5c2.844-12.336,10.038,1.7,13.185-1.505,4.1-4.188,12.777.467,14.028-2.936S1473.272,705.371,1473.272,705.371Z" transform="translate(-1423.737 -708.484)" fill="#f77b82"/>
      <path id="Trazado_1728" data-name="Trazado 1728" d="M1410.813,821.132c-1.78,2.667-.021,5.042,2.516,5.814a.836.836,0,0,0,1.057-.99C1413.814,823.569,1412.406,818.75,1410.813,821.132Z" transform="translate(-1406.167 -798.168)" fill="#f77b82"/>
      <path id="Trazado_1729" data-name="Trazado 1729" d="M1474.381,913.071l-3.006-4.1s-9.035-3.724-11.844-5.84,1.057,15.529,17.529,12.208S1474.381,913.071,1474.381,913.071Z" transform="translate(-1442.306 -859.482)" fill="#f77b82"/>
    </g>
    <path id="Trazado_1734" data-name="Trazado 1734" d="M1515.543,874.967c4.073-.705,4.424-4.95,4.424-4.95s-7.437-.531-10.076-1.944S1511.473,875.675,1515.543,874.967Z" transform="translate(-451.942 -379.995)" fill="#823f2c"/>
    <g id="Grupo_1757" data-name="Grupo 1757" transform="translate(1057.129 487.928)" clip-path="url(#clip-path-14)">
      <ellipse id="Elipse_145" data-name="Elipse 145" cx="5.488" cy="3.76" rx="5.488" ry="3.76" transform="translate(-2.449 3.544)" fill="#fff"/>
    </g>
    <path id="Trazado_1736" data-name="Trazado 1736" d="M1519.429,1148.571c.4,4.493-1.777,27.021-2.9,38.111-.382,3.75-.641,6.188-.641,6.188l-.893,11.382,17.4-2.944,31.35-5.3c.444-4.955,1-11.441,1.282-15.975.526-8.248,8.294-38.3,8.417-38.767h0S1534.278,1152.459,1519.429,1148.571Z" transform="translate(-456.47 -584.858)" fill="#eaeaea"/>
    <g id="Grupo_1758" data-name="Grupo 1758" transform="translate(1058.53 556.406)" clip-path="url(#clip-path-15)">
      <path id="Trazado_1737" data-name="Trazado 1737" d="M1523.8,1140.8s30.565,6.065,41.586,0,14.6-10.3,14.6-10.3l-60.51,7.181Z" transform="translate(-1518.324 -1133.257)" fill="#d6d6d6"/>
    </g>
    <path id="Trazado_1739" data-name="Trazado 1739" d="M1530.873,1310.658c-.769-.305-5.709-1.151-12.441-.423-.449.046-.905.1-1.367.169l-1.575,17.637,1.411-.239,17.4-2.942a7.473,7.473,0,0,0-2.877-5.145c.492.1,10.974,2.221,12.356.741S1531.757,1311.012,1530.873,1310.658Z" transform="translate(-456.768 -710.769)" fill="#cecece"/>
    <path id="Trazado_1740" data-name="Trazado 1740" d="M1482.481,1317.934c-.769-.308-5.712-1.152-12.441-.426-.987.108-2.005.256-3.06.426-5.086.874-10.841,11.687-14.511,19.855l16.037-2.711,17.4-2.944a7.378,7.378,0,0,0-2.88-5.129c.495.1,10.974,2.221,12.359.741S1483.364,1318.288,1482.481,1317.934Z" transform="translate(-409.78 -716.23)" fill="#ffb4b9"/>
    <g id="Grupo_1759" data-name="Grupo 1759" transform="translate(1042.689 600.991)" clip-path="url(#clip-path-16)">
      <path id="Trazado_1741" data-name="Trazado 1741" d="M1569.763,1346.936c-5.9,1.047-22.569-6.971-20.2-1.867s4.675,9.44,4.675,9.44l9.2,4.36S1575.662,1345.889,1569.763,1346.936Z" transform="translate(-1524.49 -1336.652)" fill="#f77b82"/>
    </g>
    <circle id="Elipse_146" data-name="Elipse 146" cx="19.568" cy="19.568" r="19.568" transform="translate(963.108 599.627) rotate(-45)" fill="#fff"/>
    <rect id="Rectángulo_459" data-name="Rectángulo 459" width="7.802" height="16.924" rx="3.75" transform="translate(984.925 588.285) rotate(-7.94)" fill="#ef8381"/>
    <path id="Trazado_1743" data-name="Trazado 1743" d="M1229.3,1311.63a.513.513,0,0,0-.513.513c0,.241,0,5.937-5.95,6.783a6.415,6.415,0,0,1-7.437-4.9.513.513,0,0,0-1,.226c0,.062,1.375,5.788,7.2,5.788a9.959,9.959,0,0,0,1.39-.1c6.858-.975,6.832-7.748,6.83-7.814A.513.513,0,0,0,1229.3,1311.63Z" transform="translate(-231.351 -711.957)" fill="#ef8380"/>
    <path id="Trazado_1744" data-name="Trazado 1744" d="M1248.162,1340.3a.518.518,0,1,0-1.026.141l.585,4.191a.513.513,0,0,0,.513.441h.072a.513.513,0,0,0,.438-.58Z" transform="translate(-255.692 -733.05)" fill="#ef8380"/>
    <path id="Trazado_1745" data-name="Trazado 1745" d="M1239.771,1353.3l-10.671,1.49a.514.514,0,0,0,.069,1.026h.072l10.674-1.49a.518.518,0,0,0-.144-1.026Z" transform="translate(-241.929 -743.081)" fill="#ef8380"/>
    <g id="Grupo_1760" data-name="Grupo 1760" transform="translate(1173.245 449.89)" opacity="0.63">
      <rect id="Rectángulo_460" data-name="Rectángulo 460" width="207.174" height="154.681" fill="#ecaf9f"/>
    </g>
    <path id="Trazado_1746" data-name="Trazado 1746" d="M2317.114,917.46l-1.787.115-33.846,2.18-2.7.174.511,3.932,12.331,95.2h37.852l-11.795-96.995Z" transform="translate(-1026.335 -417.527)" fill="#f4b952"/>
    <g id="Grupo_1761" data-name="Grupo 1761" transform="translate(1252.445 499.933)" clip-path="url(#clip-path-17)">
      <path id="Trazado_1747" data-name="Trazado 1747" d="M2302.043,973.489c-33.243-10.258-45.963-65.729-45.963-65.729s-3.819,85.756-3.534,88.567,1.69,22.569,1.69,22.569,64.037-3.95,65.729-4.232,7.335-4.514,7.335-4.514S2335.286,983.735,2302.043,973.489Z" transform="translate(-2259.263 -910.248)" fill="#eaa93f"/>
    </g>
    <path id="Trazado_1749" data-name="Trazado 1749" d="M2275.256,598.229c-5.776-10.343-18.663-13.259-31.868-14.321s-16.893,7.95-16.893,7.95c-29.711,7.025-14.275,47.464-12.346,50.911s3.216,9.415,0,12.595c8.874-.528,8.1-4.375,8.1-4.375a5.964,5.964,0,0,1-.641,4.375,12.379,12.379,0,0,0,9.13-5.434s1.8,1.193.644,4.639c6.561.256,26.849-4.773,26.849-4.773s9.291,4.639,14.436,2.254c-1.539-.133-3.213-3.049-3.213-3.049s7.845,2.783,12.6-1.723C2274.61,647.819,2281.039,608.572,2275.256,598.229Z" transform="translate(-973.961 -166.419)" fill="#722217"/>
    <path id="Trazado_1750" data-name="Trazado 1750" d="M2295.82,629.662c-4.711-8.433-15.224-10.812-25.993-11.677s-13.777,6.491-13.777,6.491c-24.233,5.727-11.643,38.711-10.071,41.521s2.623,7.679,0,10.274c7.24-.433,6.609-3.57,6.609-3.57a4.887,4.887,0,0,1-.513,3.57,10.074,10.074,0,0,0,7.437-4.434s1.467.972.513,3.785c5.35.215,21.9-3.893,21.9-3.893s7.579,3.783,11.774,1.836c-1.259-.108-2.621-2.485-2.621-2.485s6.412,2.27,10.279-1.405C2295.284,670.106,2300.529,638.1,2295.82,629.662Z" transform="translate(-998.429 -191.769)" fill="#59160f"/>
    <path id="Trazado_1751" data-name="Trazado 1751" d="M2303.767,689.355c-.531-5.835,0-19.091,0-19.091-6.1,10.341-40.219-7.286-38.626-2.159s-3.36,21.517-3.36,21.517-6.009-1.226-6.188,5.3,9.9,7.066,9.9,7.066,2.475,14.849,1.416,18.383-2.121,4.95-14.319,12.905c37.654,25.811,50.205-4.065,50.205-4.065a113.6,113.6,0,0,0-11.669-3.183c-6.54-1.413-5.3-5.129-6.186-11.313C2298.374,717.9,2304.3,695.189,2303.767,689.355Z" transform="translate(-1006.797 -228.375)" fill="#fcdccd"/>
    <g id="Grupo_1762" data-name="Grupo 1762" transform="translate(1245.793 438.765)" clip-path="url(#clip-path-18)">
      <path id="Trazado_1752" data-name="Trazado 1752" d="M2285.214,635.53l-10.085,2.539v21.3l3.411,6.74s5.686-14.716,5.686-17.9,31.965,8.609,36.3-1.467S2285.214,635.53,2285.214,635.53Z" transform="translate(-2269.349 -643.631)" fill="#efad9a"/>
      <path id="Trazado_1753" data-name="Trazado 1753" d="M2278.2,768.147c-1.046,2.118,2.188,5.683,4.532,3.334a1.147,1.147,0,0,0,0-1.6C2281.539,768.642,2279.059,766.406,2278.2,768.147Z" transform="translate(-2271.483 -741.762)" fill="#efad9a"/>
      <path id="Trazado_1754" data-name="Trazado 1754" d="M2330.676,831.473c-2.921-3.173,3.749,12.695,10.569,12.272s1.231-7.15,1.231-7.15S2333.595,834.648,2330.676,831.473Z" transform="translate(-2310.126 -789.01)" fill="#efad9a"/>
    </g>
    <path id="Trazado_1757" data-name="Trazado 1757" d="M2367.066,796.829c-3.149,0,2.888,6.509,6.481,5.04s2.875-6.3,2.875-6.3A66.458,66.458,0,0,1,2367.066,796.829Z" transform="translate(-1091.341 -323.862)" fill="#823f2c"/>
    <g id="Grupo_1763" data-name="Grupo 1763" transform="translate(1274.845 471.708)" clip-path="url(#clip-path-19)">
      <path id="Trazado_1758" data-name="Trazado 1758" d="M2364.319,806.29c-3.042,0-5.509,1.516-5.509,3.385s2.467,3.385,5.509,3.385,5.506-1.516,5.506-3.385S2367.36,806.29,2364.319,806.29Z" transform="translate(-2360.702 -803.541)" fill="#fff"/>
    </g>
    <path id="Trazado_1765" data-name="Trazado 1765" d="M2170.8,914.7c-.418-2.18-.785-4.126-1.087-5.776-.706-3.791-1.082-6.03-1.082-6.03s-25.662,14.342-29.2,20-11.315,61.521-10.961,72.625,9.9,12.718,9.9,12.718h49.161c0-9.166-.769-28.421-6.2-47.864C2176.738,943.921,2173.009,926.076,2170.8,914.7Z" transform="translate(-914.219 -406.643)" fill="#db543a"/>
    <g id="Grupo_1764" data-name="Grupo 1764" transform="translate(1214.245 496.247)" clip-path="url(#clip-path-20)">
      <path id="Trazado_1766" data-name="Trazado 1766" d="M2213.07,1057.167c-.423-4.857-6.561-17.15-7.194-28.573s-9.945-23.484-9.945-23.484,3.385,9.943,5.714,14.6,2.326,10.789,3.808,20.945,6.135,22.428,1.282,21.368-11.425,0-8.253,1.49,14.6,8.666,13.336,8.666-6.77-2.752-12.485-2.539,5.078,5.5,14.68,6.348,25.944,10.579,25.944,10.579-8.04-6.56-16.5-8.886S2213.493,1062.017,2213.07,1057.167Z" transform="translate(-2178.627 -978.887)" fill="#c13725"/>
    </g>
    <path id="Trazado_1768" data-name="Trazado 1768" d="M2419.38,900.69h0s.184,1.649.5,4.416c.185,1.677.418,3.755.677,6.132h0c1.369,12.405,3.56,32.717,4.493,43.95,1.2,14.362,2.36,43.032,2.682,51.4h42.437c5.468-5.019,9.286-11.682,10.038-16.491,2.475-15.867-14.8-63.975-21.922-71.774C2451.907,911.354,2436.722,901.262,2419.38,900.69Z" transform="translate(-1131.302 -404.991)" fill="#db543a"/>
    <g id="Grupo_1765" data-name="Grupo 1765" transform="translate(1288.068 495.704)" clip-path="url(#clip-path-21)">
      <path id="Trazado_1769" data-name="Trazado 1769" d="M2520.17,1043.18c-5.414,1.834-9.576,6.363-10.771,6.814s6.925-10.32,9.374-12.841-4.07-1.177-8.243,1.539-4.188-10.4-6.411-20.422-4.406-15.742-3.894-20.925.144-15.675.144-15.675-4.409,14.583-.936,25.485,2.113,24.574,3.447,29.262,4.691,17.673-2.39,22.859-12.259,14.177-12.259,14.177,11.8-14.911,20.479-19.117S2525.581,1041.344,2520.17,1043.18Z" transform="translate(-2470.562 -960.907)" fill="#c13725"/>
    </g>
    <path id="Trazado_1771" data-name="Trazado 1771" d="M2275.685,1174.06l-9.315,35.794h82.381l9.061-33.976-1.887-1.818Z" transform="translate(-1017.299 -609.212)" fill="#60a1b8"/>
    <g id="Grupo_1766" data-name="Grupo 1766" transform="translate(1249.071 564.848)" clip-path="url(#clip-path-22)">
      <path id="Trazado_1772" data-name="Trazado 1772" d="M2273.807,1154.47l-8.633,13.177-3.244,29.055h2.68c.141-.423,10-35.261,10-35.261H2356l-3.516-5.5Z" transform="translate(-2263.069 -1159.494)" fill="#4b8ea0"/>
    </g>
    <circle id="Elipse_147" data-name="Elipse 147" cx="19.568" cy="19.568" r="19.568" transform="translate(1253.31 557.574) rotate(-13.28)" fill="#fff"/>
    <rect id="Rectángulo_461" data-name="Rectángulo 461" width="7.802" height="16.924" rx="3.75" transform="translate(1272.633 560.039)" fill="#ef8381"/>
    <path id="Trazado_1774" data-name="Trazado 1774" d="M2357.656,1206.089a.513.513,0,0,0-.572.446,6.718,6.718,0,0,1-6.829,5.9h-.026a6.422,6.422,0,0,1-6.668-5.875.515.515,0,1,0-1.026.085c0,.069.648,6.817,7.694,6.817h.028c6.924-.018,7.837-6.729,7.845-6.8a.513.513,0,0,0-.446-.574Z" transform="translate(-1073.722 -632.987)" fill="#ef8380"/>
    <path id="Trazado_1775" data-name="Trazado 1775" d="M2372.7,1230.83a.513.513,0,0,0-.513.513v4.232a.513.513,0,0,0,1.026,0v-4.232A.513.513,0,0,0,2372.7,1230.83Z" transform="translate(-1095.774 -651.486)" fill="#ef8380"/>
    <path id="Trazado_1776" data-name="Trazado 1776" d="M2362.6,1247.33h-10.771a.513.513,0,1,0,0,1.026H2362.6a.513.513,0,1,0,0-1.026Z" transform="translate(-1080.258 -663.802)" fill="#ef8380"/>
    <g id="Grupo_1767" data-name="Grupo 1767" transform="translate(903.245 495.859)" clip-path="url(#clip-path-23)">
      <path id="Trazado_1777" data-name="Trazado 1777" d="M3307.332,2437.137a.516.516,0,0,0-.2.7,27.526,27.526,0,0,1,2.988,18.8,24.527,24.527,0,0,1-2.965,7.848.511.511,0,0,0,.425.8.508.508,0,0,0,.421-.229,24.988,24.988,0,0,0,3.1-8.163,28.548,28.548,0,0,0-3.079-19.545.507.507,0,0,0-.691-.205Z" transform="translate(-2696.392 -2051.147)" fill="#398e6b"/>
      <path id="Trazado_1778" data-name="Trazado 1778" d="M3419.405,1715.57c-20.639,26.726-7.8,64.157-7.8,64.157,51.423-1.072,81.843-53.285,81.843-53.285l-22.434-1.359,26.921-14.052s7.179-28.537,7.179-53C3486.714,1655.775,3440.046,1688.844,3419.405,1715.57Z" transform="translate(-2771.427 -1471.82)" fill="#50ad8a"/>
      <path id="Trazado_1779" data-name="Trazado 1779" d="M3416.107,2261.334c-11.9,9.189-21.7,26.829-27.828,40.008a247.858,247.858,0,0,0-10.538,26.634.517.517,0,0,0,.034.392.512.512,0,0,0,.3.253.535.535,0,0,0,.152.023.508.508,0,0,0,.485-.356,245.281,245.281,0,0,1,10.493-26.518c6.076-13.08,15.781-30.558,27.52-39.619a.516.516,0,0,0,.095-.719A.5.5,0,0,0,3416.107,2261.334Z" transform="translate(-2749.094 -1920.4)" fill="#398e6b"/>
      <path id="Trazado_1780" data-name="Trazado 1780" d="M3465.032,1765.915c-20.981,9.864-37.852,26.523-50.12,49.518-9.809,18.37-16.724,40.8-20.56,66.665a350.583,350.583,0,0,0-1.738,83.658.51.51,0,0,0,.508.449h.064a.508.508,0,0,0,.338-.2.516.516,0,0,0,.1-.379,348.987,348.987,0,0,1,1.74-83.4c3.811-25.744,10.7-48.056,20.451-66.316,12.171-22.792,28.875-39.3,49.65-49.067a.515.515,0,0,0,.093-.9.5.5,0,0,0-.522-.028Z" transform="translate(-2758.935 -1552.074)" fill="#398e6b"/>
      <path id="Trazado_1781" data-name="Trazado 1781" d="M3296.886,2122.337c-.289-8.7-.541-16.214-1-21.361-1.054-11.987-4.006-16.462-6.293-18.106a4.223,4.223,0,0,0-3.3-.918.515.515,0,0,0-.367.627.51.51,0,0,0,.621.371,3.368,3.368,0,0,1,2.527.79c2.1,1.539,4.807,5.8,5.823,17.329.45,5.129.7,12.618.993,21.3.867,25.916,2.058,61.405,9.865,72.715a.507.507,0,0,0,.417.218.485.485,0,0,0,.29-.092.516.516,0,0,0,.127-.713C3298.934,2183.437,3297.75,2148.122,3296.886,2122.337Z" transform="translate(-2680.611 -1787.06)" fill="#398e6b"/>
      <path id="Trazado_1782" data-name="Trazado 1782" d="M3909.65,2389.171a9.047,9.047,0,0,0,1.766-3.811q-2.106,2.68-4.156,5.385A5.127,5.127,0,0,0,3909.65,2389.171Z" transform="translate(-3144.109 -2012.696)" fill="#398e6b"/>
      <path id="Trazado_1783" data-name="Trazado 1783" d="M3585.415,2168.8c-36.346.906-54.465,22.4-54.465,22.4,16.879-9.746,56.26,14.285,56.26,14.285s28.273,27.772,39.339,24.231q2.05-2.706,4.156-5.386C3634.325,2209.165,3618.338,2167.984,3585.415,2168.8Z" transform="translate(-2863.398 -1851.671)" fill="#398e6b"/>
      <path id="Trazado_1784" data-name="Trazado 1784" d="M3898.845,2355.149c-4.1,5.039-7.947,10.225-11.786,15.349,15.063-2.236,20.486-16.67,18.2-21.569C3903.218,2351.025,3900.931,2352.882,3898.845,2355.149Z" transform="translate(-3129.041 -1985.609)" fill="#50ad8a"/>
      <path id="Trazado_1785" data-name="Trazado 1785" d="M3615.478,2250.936c-13.908,10.417-29.613-18.122-57.884-30.352s-50.7,11.779-50.7,11.779c60.126-12.23,41.282,23.553,78.524,37.6,7.113,2.68,13.1,3.262,18.055,2.526,3.839-5.129,7.682-10.31,11.785-15.349,2.085-2.267,4.372-4.124,6.412-6.219C3620.765,2248.992,3618.664,2248.551,3615.478,2250.936Z" transform="translate(-2845.451 -1887.597)" fill="#50ad8a"/>
      <path id="Trazado_1786" data-name="Trazado 1786" d="M3039.406,1760.328c-26.929-14.947-64.167-33.068-64.167-33.068s35,51.187,48.461,57.984,32.756,33.479,32.756,33.479S3066.33,1775.278,3039.406,1760.328Z" transform="translate(-2448.863 -1523.375)" fill="#398e6b"/>
      <path id="Trazado_1787" data-name="Trazado 1787" d="M3027.381,1770.382c-32.457-9.146-52.2-43.122-52.2-43.122s-1.793,34.879,28.27,52.1,38.14,42.045,52.948,39.367C3056.4,1818.723,3059.837,1779.53,3027.381,1770.382Z" transform="translate(-2448.803 -1523.375)" fill="#50ad8a"/>
      <path id="Trazado_1788" data-name="Trazado 1788" d="M3051.19,2050.49c12.115,21.525,26.675,48.882,62.028,45.5l-1.9-2.455S3107.285,2057.289,3051.19,2050.49Z" transform="translate(-2505.519 -1763.708)" fill="#50ad8a"/>
      <path id="Trazado_1789" data-name="Trazado 1789" d="M3276.327,2220.5c-2.337-12.5-9.453-23.982-15.014-31.414a109.16,109.16,0,0,0-11.618-13.262.5.5,0,0,0-.709.04.517.517,0,0,0,.024.717c.218.2,21.914,20.542,26.319,44.111,4.448,23.81,17.862,49.716,18,49.972a.5.5,0,0,0,.686.215.515.515,0,0,0,.211-.692C3294.082,2269.926,3280.737,2244.157,3276.327,2220.5Z" transform="translate(-2652.967 -1856.803)" fill="#398e6b"/>
      <path id="Trazado_1790" data-name="Trazado 1790" d="M3069.271,2280.33a16.7,16.7,0,0,0-.412,2.016A4.568,4.568,0,0,0,3069.271,2280.33Z" transform="translate(-2518.7 -1934.603)" fill="#398e6b"/>
      <path id="Trazado_1791" data-name="Trazado 1791" d="M2983.716,2252.654a30.68,30.68,0,0,0-2.729,6.85,4.565,4.565,0,0,1-.412,2.016,16.779,16.779,0,0,1,.412-2.016c-.071-2.052-1.763-4.873-10.733-4.586-13.909.451-19.744,2.719-19.744,2.719s35.9,24.008,53.857,21.286,37.345,21.287,37.345,21.287S3058.651,2247.671,2983.716,2252.654Z" transform="translate(-2430.416 -1913.777)" fill="#398e6b"/>
      <path id="Trazado_1792" data-name="Trazado 1792" d="M3000.768,2280.739c-26.027,7.694-50.257-7.678-50.257-7.678s21.54,19.479,54.294,24.913c32.244,5.35,36.765,17.285,36.9,17.657C3041.458,2314.94,3026.578,2273.119,3000.768,2280.739Z" transform="translate(-2430.416 -1929.197)" fill="#50ad8a"/>
      <path id="Trazado_1793" data-name="Trazado 1793" d="M3309.47,2439Z" transform="translate(-2698.184 -2052.58)" fill="#50ad8a"/>
      <path id="Trazado_1794" data-name="Trazado 1794" d="M3309.47,2439Z" transform="translate(-2698.184 -2052.58)" fill="#50ad8a"/>
      <path id="Trazado_1795" data-name="Trazado 1795" d="M3251.159,2685.379c.747,5.75.676,10.259-.866,11.978L3244.31,2704s62.82,5.737,72.989,0,0-8.156,0-8.156l6.145-28.406a240.6,240.6,0,0,1-52.932,15.064C3263.94,2683.484,3257.523,2684.448,3251.159,2685.379Z" transform="translate(-2649.578 -2222.433)" fill="#823f2c"/>
      <path id="Trazado_1796" data-name="Trazado 1796" d="M3294.763,2498.8c-10.769-10.569-97.22-6.342-99.913,3.021l8.384,10.259s8.892,26.762,11.038,43.288c6.364-.931,12.781-1.9,19.353-2.875a240.607,240.607,0,0,0,52.933-15.065l5.224-24.141S3305.532,2509.371,3294.763,2498.8Z" transform="translate(-2612.682 -2092.432)" fill="#823f2c"/>
    </g>
    <path id="Trazado_1798" data-name="Trazado 1798" d="M2531.972,360h-56.953a6.819,6.819,0,0,0-6.8,6.8v38.818a6.819,6.819,0,0,0,6.8,6.8h8.258l2.793,13.034,14.313-13.034h31.588a6.819,6.819,0,0,0,6.8-6.8V366.8A6.819,6.819,0,0,0,2531.972,360Z" transform="translate(-1167.804 0)" fill="#6e6ae7"/>
    <rect id="Rectángulo_462" data-name="Rectángulo 462" width="48.028" height="3.385" rx="1.693" transform="translate(1311.639 367.402)" fill="#fff"/>
    <rect id="Rectángulo_463" data-name="Rectángulo 463" width="48.028" height="3.385" rx="1.693" transform="translate(1311.639 377.134)" fill="#fff"/>
    <rect id="Rectángulo_464" data-name="Rectángulo 464" width="48.028" height="3.385" rx="1.693" transform="translate(1311.639 386.867)" fill="#fff"/>
    <rect id="Rectángulo_465" data-name="Rectángulo 465" width="48.028" height="3.385" rx="1.693" transform="translate(1311.639 396.6)" fill="#fff"/>
    <path id="Trazado_1799" data-name="Trazado 1799" d="M3031.989,443.41h-56.95a6.82,6.82,0,0,0-6.8,6.8v38.816a6.823,6.823,0,0,0,6.8,6.8h31.586l14.313,13.033,2.792-13.033h8.258a6.825,6.825,0,0,0,6.8-6.8V450.211A6.822,6.822,0,0,0,3031.989,443.41Z" transform="translate(-1540.925 -62.018)" fill="#6e6ae7"/>
    <rect id="Rectángulo_466" data-name="Rectángulo 466" width="48.028" height="3.385" rx="1.693" transform="translate(1438.643 391.522)" fill="#fff"/>
    <rect id="Rectángulo_467" data-name="Rectángulo 467" width="48.028" height="3.385" rx="1.693" transform="translate(1438.643 401.255)" fill="#fff"/>
    <rect id="Rectángulo_468" data-name="Rectángulo 468" width="48.028" height="3.385" rx="1.693" transform="translate(1438.643 410.988)" fill="#fff"/>
    <rect id="Rectángulo_469" data-name="Rectángulo 469" width="48.028" height="3.385" rx="1.693" transform="translate(1438.643 420.718)" fill="#fff"/>
  </g>
</svg>
