<svg xmlns="http://www.w3.org/2000/svg" width="764.092" height="499.74" viewBox="0 0 764.092 499.74">
  <g id="Grupo_1831" data-name="Grupo 1831" transform="translate(-823.331 -746)">
    <path id="Trazado_1800" data-name="Trazado 1800" d="M880.791,928.179c-49.219,67.5-63.7,177.271-17.106,248.463,46.092,70.433,133.839,75.426,257.423,80.488,181.506,7.435,403.786,16.54,450.6-103.672,42.075-108.054-69.778-289.372-207.774-340.762-71.255-26.535-134.841-12.3-262.013,16.185C985.044,855.055,924.171,868.687,880.791,928.179Z" transform="translate(-10.795 -47.291)" fill="#0089ff" opacity="0.02"/>
    <g id="Grupo_1777" data-name="Grupo 1777" transform="translate(823.331 1013.003)">
      <g id="Grupo_1776" data-name="Grupo 1776">
        <g id="Grupo_1774" data-name="Grupo 1774">
          <g id="Grupo_1769" data-name="Grupo 1769" transform="translate(0 57.586)">
            <path id="Trazado_1801" data-name="Trazado 1801" d="M875.819,4061.488c-13.5-3.614-19.853-16.463-22.659-22.135-7.158-14.468-1.356-17.98-6.939-34.317-6.5-19.013-16.106-19.385-20.795-38.188-.422-1.692-5.784-23.96,2.493-28.353,5.895-3.129,15.929,4.875,19.73,7.923,19.094,15.307,24.788,39.691,28.667,56.623,3.435,14.994,3.314,23.436,9.881,39.87a145.979,145.979,0,0,0,8.321,17.391A31.223,31.223,0,0,1,875.819,4061.488Z" transform="translate(-823.331 -3937.781)" fill="#00c1b9"/>
            <g id="Grupo_1768" data-name="Grupo 1768" transform="translate(16.499 25.088)" opacity="0.48">
              <path id="Trazado_1802" data-name="Trazado 1802" d="M1036.868,4283.295a.316.316,0,0,1-.24-.054c-14.567-10.4-22.822-34.974-29.573-59.983-6.9-25.564-21.229-38.1-21.373-38.227a.315.315,0,0,1,.411-.479c.145.125,14.617,12.777,21.572,38.542,6.72,24.9,14.925,49.353,29.331,59.635a.316.316,0,0,1-.126.567Z" transform="translate(-985.571 -4184.476)" fill="#fff"/>
            </g>
          </g>
          <g id="Grupo_1771" data-name="Grupo 1771" transform="translate(70.325 38.367)">
            <path id="Trazado_1803" data-name="Trazado 1803" d="M1537.145,3892.193c16.584-2.834,25.634-17.535,29.628-24.024,10.19-16.554,3.623-21.409,12.132-40.38,9.9-22.076,21.466-21.456,29.177-43.48.694-1.982,9.6-28.087.16-34.274-6.721-4.406-19.641,4.076-24.538,7.308-24.6,16.233-34.131,44.84-40.663,64.711-5.784,17.6-6.577,27.734-16.277,46.71a175.764,175.764,0,0,1-11.91,19.928C1519.151,3890.736,1527.411,3893.856,1537.145,3892.193Z" transform="translate(-1514.854 -3748.792)" fill="#00c1b9"/>
            <g id="Grupo_1770" data-name="Grupo 1770" transform="translate(3.636 29.11)" opacity="0.48">
              <path id="Trazado_1804" data-name="Trazado 1804" d="M1550.887,4147.871a.377.377,0,0,0,.294-.037c18.622-10.848,31.25-39.4,42.124-68.64,11.114-29.887,29.688-43.331,29.874-43.464a.38.38,0,0,0-.439-.619c-.188.134-18.946,13.7-30.147,43.818-10.824,29.106-23.378,57.52-41.794,68.248a.379.379,0,0,0,.089.693Z" transform="translate(-1550.61 -4035.041)" fill="#fff"/>
            </g>
          </g>
          <g id="Grupo_1773" data-name="Grupo 1773" transform="translate(50.801)">
            <path id="Trazado_1805" data-name="Trazado 1805" d="M1355.687,3545.857c14.785-11.037,16.293-29.907,16.959-38.237,1.7-21.248-7.136-22.716-8.284-45.486-1.336-26.5,10.267-31.658,6.817-57.014-.31-2.281-4.631-32.218-16.932-33.555-8.761-.953-17.151,13.774-20.322,19.372-15.928,28.118-10.979,60.812-7.45,83.477,3.125,20.072,7.4,30.367,7.392,53.737a192.718,192.718,0,0,1-1.7,25.4C1337.386,3553.406,1347.009,3552.335,1355.687,3545.857Z" transform="translate(-1322.872 -3371.521)" fill="#00dbcb"/>
            <g id="Grupo_1772" data-name="Grupo 1772" transform="translate(13.639 35.893)" opacity="0.48">
              <path id="Trazado_1806" data-name="Trazado 1806" d="M1457.487,3870.651a.417.417,0,0,0,.269-.183c12.779-19.88,10.877-54.063,6.918-88.042-4.047-34.732,7.391-57.123,7.507-57.345a.416.416,0,1,0-.738-.386c-.117.224-11.675,22.825-7.6,57.828,3.941,33.825,5.846,67.836-6.791,87.5a.416.416,0,0,0,.432.633Z" transform="translate(-1456.988 -3724.472)" fill="#fff"/>
            </g>
          </g>
        </g>
        <g id="Grupo_1775" data-name="Grupo 1775" transform="translate(41.324 172.397)">
          <path id="Trazado_1807" data-name="Trazado 1807" d="M1295.451,5066.751v28.273a32.059,32.059,0,0,1-32.066,32.066h-1.634a32.04,32.04,0,0,1-27.141-14.98,31.633,31.633,0,0,1-3.006-6.131,31.962,31.962,0,0,1-1.922-10.955v-28.273Z" transform="translate(-1229.682 -5066.751)" fill="#435899"/>
        </g>
      </g>
      <path id="Trazado_1808" data-name="Trazado 1808" d="M1312.434,5157.778v19.016a32.06,32.06,0,0,1-32.066,32.066h-1.634a32.04,32.04,0,0,1-27.141-14.98,31.637,31.637,0,0,1-3.006-6.131,102.131,102.131,0,0,0,20.68-4.275C1287.455,5177.706,1301.715,5167.691,1312.434,5157.778Z" transform="translate(-1205.34 -4976.124)" fill="#282828" opacity="0.06"/>
      <path id="Trazado_1809" data-name="Trazado 1809" d="M1282.761,5066.751a88.846,88.846,0,0,1-23.15,13.868,105.306,105.306,0,0,1-29.929,7.172v-21.04Z" transform="translate(-1188.358 -4894.354)" fill="#fff" opacity="0.06"/>
    </g>
    <g id="Grupo_1787" data-name="Grupo 1787" transform="translate(1178.695 1071.631)">
      <g id="Grupo_1786" data-name="Grupo 1786">
        <g id="Grupo_1784" data-name="Grupo 1784">
          <g id="Grupo_1779" data-name="Grupo 1779" transform="translate(0 42.283)">
            <path id="Trazado_1810" data-name="Trazado 1810" d="M4356.271,4454.643c-9.91-2.654-14.577-12.088-16.637-16.252-5.256-10.624-1-13.2-5.095-25.2-4.771-13.96-11.827-14.234-15.27-28.04-.31-1.242-4.247-17.593,1.831-20.819,4.328-2.3,11.7,3.581,14.487,5.818,14.02,11.239,18.2,29.144,21.048,41.576,2.522,11.009,2.434,17.208,7.255,29.275a107.228,107.228,0,0,0,6.11,12.77A22.928,22.928,0,0,1,4356.271,4454.643Z" transform="translate(-4317.73 -4363.811)" fill="#00c1b9"/>
            <g id="Grupo_1778" data-name="Grupo 1778" transform="translate(12.115 18.421)" opacity="0.48">
              <path id="Trazado_1811" data-name="Trazado 1811" d="M4474.522,4617.507a.231.231,0,0,1-.176-.039c-10.7-7.634-16.758-25.68-21.715-44.043-5.066-18.771-15.587-27.979-15.693-28.069a.231.231,0,1,1,.3-.351c.107.091,10.733,9.382,15.839,28.3,4.935,18.281,10.959,36.237,21.537,43.787a.231.231,0,0,1,.053.323A.227.227,0,0,1,4474.522,4617.507Z" transform="translate(-4436.857 -4544.949)" fill="#fff"/>
            </g>
          </g>
          <g id="Grupo_1781" data-name="Grupo 1781" transform="translate(51.637 28.171)">
            <path id="Trazado_1812" data-name="Trazado 1812" d="M4841.856,4330.336c12.177-2.081,18.822-12.875,21.754-17.64,7.482-12.154,2.661-15.719,8.908-29.649,7.271-16.209,15.761-15.753,21.423-31.926.509-1.455,7.046-20.623.118-25.166-4.934-3.236-14.422,2.993-18.017,5.366-18.06,11.92-25.062,32.924-29.858,47.515-4.247,12.921-4.829,20.364-11.951,34.3a129.156,129.156,0,0,1-8.746,14.633A27.6,27.6,0,0,0,4841.856,4330.336Z" transform="translate(-4825.489 -4225.042)" fill="#00c1b9"/>
            <g id="Grupo_1780" data-name="Grupo 1780" transform="translate(2.67 21.374)" opacity="0.48">
              <path id="Trazado_1813" data-name="Trazado 1813" d="M4851.946,4518.071a.276.276,0,0,0,.216-.028c13.673-7.965,22.945-28.93,30.929-50.4,8.161-21.944,21.8-31.815,21.936-31.913a.279.279,0,1,0-.323-.455c-.138.1-13.911,10.059-22.136,32.174-7.947,21.372-17.165,42.235-30.687,50.112a.279.279,0,0,0-.1.382A.282.282,0,0,0,4851.946,4518.071Z" transform="translate(-4851.743 -4435.224)" fill="#fff"/>
            </g>
          </g>
          <g id="Grupo_1783" data-name="Grupo 1783" transform="translate(37.301)">
            <path id="Trazado_1814" data-name="Trazado 1814" d="M4708.619,4076.035c10.855-8.1,11.963-21.96,12.452-28.076,1.248-15.6-5.239-16.679-6.083-33.4-.981-19.457,7.539-23.245,5.006-41.863-.228-1.675-3.4-23.656-12.433-24.638-6.433-.7-12.593,10.114-14.922,14.224-11.695,20.646-8.061,44.652-5.47,61.294,2.294,14.738,5.437,22.3,5.428,39.456a141.51,141.51,0,0,1-1.246,18.652A30.274,30.274,0,0,0,4708.619,4076.035Z" transform="translate(-4684.524 -3948.026)" fill="#00dbcb"/>
            <g id="Grupo_1782" data-name="Grupo 1782" transform="translate(10.015 26.355)" opacity="0.48">
              <path id="Trazado_1815" data-name="Trazado 1815" d="M4783.366,4314.519a.306.306,0,0,0,.2-.135c9.383-14.6,7.986-39.7,5.08-64.646-2.972-25.5,5.427-41.943,5.512-42.106a.306.306,0,0,0-.542-.284c-.086.166-8.573,16.76-5.578,42.461,2.895,24.836,4.293,49.809-4.986,64.244a.306.306,0,0,0,.317.465Z" transform="translate(-4783 -4207.185)" fill="#fff"/>
            </g>
          </g>
        </g>
        <g id="Grupo_1785" data-name="Grupo 1785" transform="translate(30.343 126.584)">
          <path id="Trazado_1816" data-name="Trazado 1816" d="M4664.39,5192.768v20.76a23.54,23.54,0,0,1-23.545,23.545h-1.2a23.527,23.527,0,0,1-19.929-11,23.177,23.177,0,0,1-2.207-4.5,23.457,23.457,0,0,1-1.412-8.044v-20.76Z" transform="translate(-4616.098 -5192.768)" fill="#435899"/>
        </g>
      </g>
      <path id="Trazado_1817" data-name="Trazado 1817" d="M4676.86,5259.605v13.963a23.541,23.541,0,0,1-23.545,23.544h-1.2a23.525,23.525,0,0,1-19.928-11,23.252,23.252,0,0,1-2.207-4.5,74.917,74.917,0,0,0,15.185-3.14A84.349,84.349,0,0,0,4676.86,5259.605Z" transform="translate(-4598.225 -5126.224)" fill="#282828" opacity="0.06"/>
      <path id="Trazado_1818" data-name="Trazado 1818" d="M4655.072,5192.768a65.251,65.251,0,0,1-17,10.182,77.309,77.309,0,0,1-21.976,5.267v-15.449Z" transform="translate(-4585.756 -5066.184)" fill="#fff" opacity="0.06"/>
    </g>
    <g id="Grupo_1790" data-name="Grupo 1790" transform="translate(1462.183 1015.002)">
      <path id="Trazado_1819" data-name="Trazado 1819" d="M7469.671,3428.175l9.263,36.761h-14.183l-12.157-21.42Z" transform="translate(-7417.28 -3424.412)" fill="#0089ff"/>
      <path id="Trazado_1820" data-name="Trazado 1820" d="M7152.818,3464.935h-47.471l4.921-36.761h47.47Z" transform="translate(-7105.347 -3424.412)" fill="#85c2ff"/>
      <path id="Trazado_1821" data-name="Trazado 1821" d="M7439.08,3401.415h-4.341a.861.861,0,0,1-.853-.975l.759-5.674a.861.861,0,0,1,.853-.747h4.341a.861.861,0,0,1,.853.975l-.759,5.674A.861.861,0,0,1,7439.08,3401.415Z" transform="translate(-7400.468 -3393.73)" fill="#0089ff"/>
      <path id="Trazado_1822" data-name="Trazado 1822" d="M7259.764,3398.569h-4.34a.861.861,0,0,1-.854-.975l.76-5.674a.86.86,0,0,1,.852-.747h4.34a.862.862,0,0,1,.854.975l-.76,5.674A.861.861,0,0,1,7259.764,3398.569Z" transform="translate(-7239.388 -3391.173)" fill="#0089ff"/>
      <g id="Grupo_1789" data-name="Grupo 1789" transform="translate(5.044 10.71)">
        <g id="Grupo_1788" data-name="Grupo 1788">
          <path id="Trazado_1823" data-name="Trazado 1823" d="M7473.862,3503.881h-7.814a.861.861,0,0,1-.853-.975l.759-5.674a.861.861,0,0,1,.854-.747h7.814a.861.861,0,0,1,.853.975l-.759,5.674A.861.861,0,0,1,7473.862,3503.881Z" transform="translate(-7433.636 -3496.485)" fill="#fff" opacity="0.57"/>
          <path id="Trazado_1824" data-name="Trazado 1824" d="M7331.547,3506.728h-7.813a.86.86,0,0,1-.853-.975l.759-5.674a.86.86,0,0,1,.853-.746h7.814a.86.86,0,0,1,.853.975l-.759,5.675A.861.861,0,0,1,7331.547,3506.728Z" transform="translate(-7305.795 -3499.043)" fill="#fff" opacity="0.57"/>
          <path id="Trazado_1825" data-name="Trazado 1825" d="M7192.079,3506.728h-7.813a.861.861,0,0,1-.853-.975l.759-5.674a.861.861,0,0,1,.854-.746h7.813a.861.861,0,0,1,.854.975l-.759,5.675A.862.862,0,0,1,7192.079,3506.728Z" transform="translate(-7180.511 -3499.043)" fill="#fff" opacity="0.57"/>
          <path id="Trazado_1826" data-name="Trazado 1826" d="M7445.4,3643.35h-7.813a.861.861,0,0,1-.854-.975l.76-5.675a.861.861,0,0,1,.854-.747h7.813a.861.861,0,0,1,.854.975l-.76,5.675A.861.861,0,0,1,7445.4,3643.35Z" transform="translate(-7408.067 -3621.77)" fill="#fff" opacity="0.57"/>
          <path id="Trazado_1827" data-name="Trazado 1827" d="M7303.085,3646.2h-7.813a.861.861,0,0,1-.854-.976l.759-5.674a.862.862,0,0,1,.854-.747h7.813a.86.86,0,0,1,.853.975l-.759,5.674A.861.861,0,0,1,7303.085,3646.2Z" transform="translate(-7280.227 -3624.326)" fill="#fff" opacity="0.57"/>
          <path id="Trazado_1828" data-name="Trazado 1828" d="M7163.617,3646.2H7155.8a.862.862,0,0,1-.853-.976l.76-5.674a.861.861,0,0,1,.854-.747h7.813a.86.86,0,0,1,.853.975l-.759,5.674A.862.862,0,0,1,7163.617,3646.2Z" transform="translate(-7154.942 -3624.326)" fill="#fff" opacity="0.57"/>
        </g>
      </g>
    </g>
    <g id="Grupo_1792" data-name="Grupo 1792" transform="translate(1403.205 1055.464)">
      <path id="Rectángulo_470" data-name="Rectángulo 470" d="M16.417,0H118.982A16.417,16.417,0,0,1,135.4,16.417V171.839a16.416,16.416,0,0,1-16.416,16.416H16.416A16.416,16.416,0,0,1,0,171.839V16.417A16.417,16.417,0,0,1,16.417,0Z" transform="translate(19.188 0)" fill="#a1dbff"/>
      <g id="Grupo_1791" data-name="Grupo 1791" transform="translate(0 0)">
        <path id="Rectángulo_471" data-name="Rectángulo 471" d="M16.417,0H113.19a16.416,16.416,0,0,1,16.416,16.416V171.839a16.416,16.416,0,0,1-16.416,16.416H16.416A16.416,16.416,0,0,1,0,171.839V16.417A16.417,16.417,0,0,1,16.417,0Z" fill="#caedff"/>
        <rect id="Rectángulo_472" data-name="Rectángulo 472" width="102.092" height="69.231" rx="12.244" transform="translate(11.585 16.505)" fill="#fff"/>
        <rect id="Rectángulo_473" data-name="Rectángulo 473" width="19.55" height="9.65" rx="4.825" transform="translate(50.684 12.309)" fill="#e1f4ff"/>
        <rect id="Rectángulo_474" data-name="Rectángulo 474" width="102.092" height="69.231" rx="12.244" transform="translate(11.585 106.715)" fill="#fff"/>
        <rect id="Rectángulo_475" data-name="Rectángulo 475" width="19.55" height="9.65" rx="4.825" transform="translate(50.684 102.519)" fill="#e1f4ff"/>
      </g>
    </g>
    <g id="Grupo_1798" data-name="Grupo 1798" transform="translate(999.56 796.903)">
      <path id="Trazado_1829" data-name="Trazado 1829" d="M2969.431,1256.18v283.555a9.642,9.642,0,0,1-9.641,9.641h-393.9a9.643,9.643,0,0,1-9.641-9.641V1256.18a9.642,9.642,0,0,1,9.641-9.641h393.9a9.656,9.656,0,0,1,9.641,9.641Z" transform="translate(-2556.247 -1246.539)" fill="#d7e9ff"/>
      <rect id="Rectángulo_476" data-name="Rectángulo 476" width="97.31" height="85.432" rx="9.563" transform="translate(41.438 170.864)" fill="#0089ff" opacity="0.88"/>
      <g id="Grupo_1796" data-name="Grupo 1796" transform="translate(37.784 37.919)" opacity="0.89">
        <g id="Grupo_1793" data-name="Grupo 1793">
          <path id="Trazado_1830" data-name="Trazado 1830" d="M3016.413,1671.95a36.091,36.091,0,1,1-36.091-36.091v-16.447a52.538,52.538,0,1,0,52.538,52.538Z" transform="translate(-2927.784 -1619.412)" fill="#0089ff"/>
        </g>
        <g id="Grupo_1795" data-name="Grupo 1795" transform="translate(52.538)" opacity="0.5">
          <g id="Grupo_1794" data-name="Grupo 1794">
            <path id="Trazado_1831" data-name="Trazado 1831" d="M3496.945,1671.95H3480.5a36.132,36.132,0,0,0-36.091-36.091v-16.447A52.6,52.6,0,0,1,3496.945,1671.95Z" transform="translate(-3444.407 -1619.412)" fill="#0089ff"/>
          </g>
        </g>
      </g>
      <rect id="Rectángulo_477" data-name="Rectángulo 477" width="195.533" height="6.396" rx="3.048" transform="translate(171.642 60.305)" fill="#0089ff"/>
      <rect id="Rectángulo_478" data-name="Rectángulo 478" width="170.863" height="6.396" rx="3.048" transform="translate(171.642 87.717)" fill="#0089ff" opacity="0.5"/>
      <rect id="Rectángulo_479" data-name="Rectángulo 479" width="151.675" height="6.396" rx="3.048" transform="translate(171.642 116.498)" fill="#0089ff" opacity="0.31"/>
      <rect id="Rectángulo_480" data-name="Rectángulo 480" width="195.533" height="6.396" rx="3.134" transform="translate(174.84 180.001)" fill="#0089ff"/>
      <rect id="Rectángulo_481" data-name="Rectángulo 481" width="170.863" height="6.396" rx="3.134" transform="translate(174.84 207.412)" fill="#0089ff" opacity="0.65"/>
      <rect id="Rectángulo_482" data-name="Rectángulo 482" width="151.675" height="6.396" rx="3.134" transform="translate(174.84 236.194)" fill="#0089ff" opacity="0.47"/>
      <g id="Grupo_1797" data-name="Grupo 1797" transform="translate(60.827 191.422)">
        <rect id="Rectángulo_483" data-name="Rectángulo 483" width="14.66" height="34.775" rx="3.47" transform="translate(0 10.91)" fill="#fff"/>
        <rect id="Rectángulo_484" data-name="Rectángulo 484" width="14.66" height="45.685" rx="3.47" transform="translate(21.138)" fill="#fff"/>
        <rect id="Rectángulo_485" data-name="Rectángulo 485" width="14.66" height="22.502" rx="3.47" transform="translate(42.958 22.843)" fill="#fff"/>
      </g>
      <path id="Trazado_1832" data-name="Trazado 1832" d="M2966.153,1248.945A1743.962,1743.962,0,0,0,2775.9,1387.5c-97.292,81.568-125.212,123.449-200.252,148.291-6.228,2.063-12.655,3.965-19.238,5.7a9.673,9.673,0,0,1-.16-1.747V1256.18a9.642,9.642,0,0,1,9.641-9.641h393.9A9.576,9.576,0,0,1,2966.153,1248.945Z" transform="translate(-2556.247 -1246.539)" fill="#fff" opacity="0.23"/>
    </g>
    <g id="Grupo_1808" data-name="Grupo 1808" transform="translate(1363.945 1132.621)">
      <path id="Trazado_1833" data-name="Trazado 1833" d="M6269.859,4581.849v76.2H6146.237v-76.2a34.046,34.046,0,0,1,1.58-10.282c.06-.2.125-.4.19-.589a34.106,34.106,0,0,1,32.319-23.218h55.444a33.907,33.907,0,0,1,19.525,6.145c.162.109.324.227.48.343A34.028,34.028,0,0,1,6269.859,4581.849Z" transform="translate(-6145.537 -4547.76)" fill="#455998"/>
      <g id="Grupo_1807" data-name="Grupo 1807" opacity="0.34">
        <g id="Grupo_1799" data-name="Grupo 1799" transform="translate(0.701)">
          <path id="Trazado_1834" data-name="Trazado 1834" d="M6201.221,4547.76a51.918,51.918,0,0,0-4.273,6.956c-5.951,11.446-10.206,26.211-23.485,31.246-6.677,2.529-14.458,2.654-21.472,1.862q-2.9-.327-5.753-.941v-.614a58.725,58.725,0,0,0,10.739,1.3c7.215.206,15.093-.545,21.193-4.743,5.664-3.9,9.376-9.963,12.358-16.018,3.054-6.2,5.858-13.244,9.962-19.049Z" transform="translate(-6146.237 -4547.76)" fill="#fff"/>
        </g>
        <g id="Grupo_1800" data-name="Grupo 1800" transform="translate(23.716 72.321)">
          <path id="Trazado_1835" data-name="Trazado 1835" d="M6473.161,5266.282v.6c-18.583-10.553-41.647-8.076-61.625-3.074a55.229,55.229,0,0,0-15.542,6.052,50.38,50.38,0,0,0-11.873,10.338,87.942,87.942,0,0,0-10.892,16.689h-.674c3.975-7.64,8.557-14.948,14.766-20.992a45.508,45.508,0,0,1,12.677-8.847,78.935,78.935,0,0,1,16.5-5.005c11.845-2.554,24.13-4.077,36.218-2.457A58.768,58.768,0,0,1,6473.161,5266.282Z" transform="translate(-6372.555 -5258.916)" fill="#fff"/>
        </g>
        <g id="Grupo_1801" data-name="Grupo 1801" transform="translate(51.463 95.823)">
          <path id="Trazado_1836" data-name="Trazado 1836" d="M6718.254,5499.782v.7c-.215-.145-.428-.278-.642-.416-12.629-7.955-27.844-10.589-42.565-8.977-7.619.836-16.354,2.359-22.752,6.843a23.89,23.89,0,0,0-6.21,6.553h-.691a24.621,24.621,0,0,1,7.77-7.846c6.689-4.1,15.291-5.531,22.987-6.27a71.355,71.355,0,0,1,24.566,1.786A60.537,60.537,0,0,1,6718.254,5499.782Z" transform="translate(-6645.394 -5490.018)" fill="#fff"/>
        </g>
        <g id="Grupo_1802" data-name="Grupo 1802" transform="translate(71.246)">
          <path id="Trazado_1837" data-name="Trazado 1837" d="M6893.006,4605.159v.6c-9.514.84-19.3-.808-28.335-3.753-7.87-2.569-15.5-6.69-20.377-13.579-4.861-6.86-5.418-14.693-2.868-22.547,1.967-6.067,5.171-11.889,6.512-18.123h.614c-1.3,6.092-4.355,11.792-6.347,17.7-2.7,8.008-2.283,15.93,2.8,22.919,5.224,7.187,13.489,11.2,21.811,13.659A71.311,71.311,0,0,0,6893.006,4605.159Z" transform="translate(-6839.93 -4547.76)" fill="#fff"/>
        </g>
        <g id="Grupo_1803" data-name="Grupo 1803" transform="translate(100.477 6.145)">
          <path id="Trazado_1838" data-name="Trazado 1838" d="M7151.21,4644.149v.623c-2.416-.081-4.795-.328-6.989-.537-5.769-.55-12.124-.893-15.024-6.674-5.151-10.265,1.6-20.563,7.45-29.378.161.109.324.227.481.344-5.438,8.112-11.518,17.206-8.137,26.971,1.131,3.256,3.253,5.825,6.638,6.808a49.39,49.39,0,0,0,9.357,1.4C7146.948,4643.871,7149.064,4644.073,7151.21,4644.149Z" transform="translate(-7127.364 -4608.182)" fill="#fff"/>
        </g>
        <g id="Grupo_1804" data-name="Grupo 1804" transform="translate(0 50.519)">
          <path id="Trazado_1839" data-name="Trazado 1839" d="M6175.791,5064.052c-1.075,4.371-3.878,8.616-6.125,12.463a51.963,51.963,0,0,1-8.525,11.231c-6.06,5.871-13.505,10.29-21.1,13.994v-.683c.473-.234.945-.473,1.414-.71,7.481-3.822,14.943-8.367,20.737-14.54a55.554,55.554,0,0,0,7.671-10.864c1.984-3.515,4.565-7.393,5.417-11.38,1.794-8.359-7.8-14.847-14.624-17.069a26.048,26.048,0,0,0-20.616,1.685c-.084.04-.166.089-.247.133a.3.3,0,0,1-.307-.525c.181-.1.368-.206.553-.3a27.055,27.055,0,0,1,23.581-.493C6169.977,5049.819,6177.713,5056.238,6175.791,5064.052Z" transform="translate(-6139.344 -5044.53)" fill="#fff"/>
        </g>
        <g id="Grupo_1805" data-name="Grupo 1805" transform="translate(0.701 65.529)">
          <path id="Trazado_1840" data-name="Trazado 1840" d="M6156.249,5199.4a25.315,25.315,0,0,1-1.778,7.38c-1.535,3.422-4.835,5.773-8.233,7.721v-.768a46.571,46.571,0,0,0,4.012-2.755c3.846-2.97,5.6-8.339,5.494-13.138-.125-5.47-5.487-5.753-9.506-4.033v-.75c2.788-1.22,6.117-1.443,8.439.6C6156.338,5195.111,6156.483,5197.336,6156.249,5199.4Z" transform="translate(-6146.237 -5192.126)" fill="#fff"/>
        </g>
        <g id="Grupo_1806" data-name="Grupo 1806" transform="translate(2.281)">
          <path id="Trazado_1841" data-name="Trazado 1841" d="M6197.081,4547.76c-3.354,7.765-7.68,14.936-15.32,19.4a33.563,33.563,0,0,1-19.989,4.407c.06-.2.125-.4.189-.589a32.939,32.939,0,0,0,19.493-4.339c7.454-4.352,11.692-11.32,14.972-18.879Z" transform="translate(-6161.771 -4547.76)" fill="#fff"/>
        </g>
      </g>
    </g>
    <g id="Grupo_1810" data-name="Grupo 1810" transform="translate(1246.683 920.121)">
      <g id="Grupo_1809" data-name="Grupo 1809" transform="translate(157.864 39.614)">
        <path id="Trazado_1842" data-name="Trazado 1842" d="M6566.119,2866.829c-.682,2.21-6.7,8.394-12.445,9.5-9.75,1.882-13.447-2.757-14.648-5.712-.98-2.411-.218-2.669,1.65-4.454a11.14,11.14,0,0,0,2.7-4.46c1.841-5.4.918-12.139.918-12.139l18.3-1.853a85.262,85.262,0,0,0,.314,8.6c.061.639.124,1.3.2,1.979A17.993,17.993,0,0,0,6566.119,2866.829Z" transform="translate(-6538.597 -2847.714)" fill="#ffcbbb"/>
        <path id="Trazado_1843" data-name="Trazado 1843" d="M6593.5,2855.3c-3.555,2.219-12.091,9.668-20.813,9.176,3.563-5.874,2.2-14.891,2.2-14.891l18.3-1.853A68.865,68.865,0,0,0,6593.5,2855.3Z" transform="translate(-6569.221 -2847.73)" fill="#ca826a" opacity="0.51"/>
      </g>
      <path id="Trazado_1844" data-name="Trazado 1844" d="M5474.121,5430.008l-.036,15.257-40-.095a3.535,3.535,0,0,1-3.527-3.544h0a3.536,3.536,0,0,1,3.017-3.49l14.634-2.171,8.973-6Z" transform="translate(-5385.378 -5127.75)" fill="#0089ff"/>
      <path id="Trazado_1845" data-name="Trazado 1845" d="M5747.368,4129.939c-113.5-3.753-104.944-19.228-100.261,131.405l20.531.049s16.093-57,14.755-81.268a206.321,206.321,0,0,1,33.859-1.877c26.33.851,37.922-17.741,36.035-38.605C5751.777,4134,5750.35,4130.038,5747.368,4129.939Z" transform="translate(-5577.825 -3957.874)" fill="#0d1e54"/>
      <path id="Trazado_1846" data-name="Trazado 1846" d="M6036.392,4208.537s-21.508,2.627-21.86,44.249h6.087Z" transform="translate(-5909.963 -4030.534)" fill="#282828"/>
      <path id="Trazado_1847" data-name="Trazado 1847" d="M5015.495,3338.169s-18.99-.82-27.948-9.075c-3.887-3.582,1.446-11.062,12.131-6.034,7.294,3.432,8.314,2.563,6.113,0-3.654-4.255,1.12-3.628,11.609,2.666Z" transform="translate(-4986.278 -3232.662)" fill="#ffcbbb"/>
      <path id="Trazado_1848" data-name="Trazado 1848" d="M5403.721,3092.788s-.578,34.114-75.641,43.032c-45.594,5.417-69.178-8.791-69.178-8.791l1.659-17.677s33.937,12.633,58.7,5.243c9.549-2.85,14.006-3.92,34.7-19.629S5395.067,3080.635,5403.721,3092.788Z" transform="translate(-5231.177 -3019.843)" fill="#0089ff"/>
      <path id="Trazado_1849" data-name="Trazado 1849" d="M6812,3024.657" transform="translate(-6626.337 -2967.049)" fill="#2aa5a2"/>
      <path id="Trazado_1850" data-name="Trazado 1850" d="M6344.039,3094.247a250.948,250.948,0,0,1,1.12,26.384s-20.942,20.113-54.112,19.889c-11.736-.067-23.518-12.5-29.408-16.708.269,0,3.651-1.635,2.038-81.638.179-40.2,9.362-33.753,26.138-39.262V2999.4a2.074,2.074,0,0,1,2.061-2.083h23.652a2.093,2.093,0,0,1,2.083,2.083v1.836c.851.246,5.778,1.747,18.858,5.935C6356.133,3013.483,6341.911,3071.939,6344.039,3094.247Z" transform="translate(-6131.94 -2942.485)" fill="#0089ff"/>
      <path id="Trazado_1851" data-name="Trazado 1851" d="M6233.454,3312.464l5.626-25.965-.554,24.41Z" transform="translate(-6106.623 -3202.264)" fill="#282828" opacity="0.34"/>
      <path id="Trazado_1852" data-name="Trazado 1852" d="M6482.691,3371.594s-10.88,23.593-14.275,26.392-12.979,7.556-22.439,6.666l30.661,22.106s22-5.527,34.309-25.735l.957-11.6Z" transform="translate(-6297.532 -3278.705)" fill="#282828" opacity="0.34"/>
      <path id="Trazado_1853" data-name="Trazado 1853" d="M5768.341,3600.609s-18.918-1.838-27.421-10.562c-3.688-3.785,2.038-10.969,12.438-5.374,7.1,3.819,8.164,3.006,6.1.328-3.421-4.445,1.313-3.563,11.448,3.285Z" transform="translate(-5663.168 -3467.95)" fill="#ffcbbb"/>
      <path id="Trazado_1854" data-name="Trazado 1854" d="M6101.342,3103.2c10.58-4.306,21.84,5.141,19.931,16.4-2.226,13.123-5.73,63.321-47.727,66.036-45.818,2.962-68.607-14.731-68.607-14.731l2.605-17.562s32.9,12.953,58.335,8.386c11.583-2.079,12.442-8.072,20.624-32.191C6091.373,3115.193,6092.375,3106.852,6101.342,3103.2Z" transform="translate(-5901.346 -3036.653)" fill="#0089ff"/>
      <path id="Trazado_1855" data-name="Trazado 1855" d="M5865.564,5480l-.036,15.258-40-.095a3.536,3.536,0,0,1-3.528-3.545h0a3.537,3.537,0,0,1,3.017-3.49l14.634-2.171,8.973-6Z" transform="translate(-5737.014 -5172.658)" fill="#0089ff"/>
      <path id="Trazado_1856" data-name="Trazado 1856" d="M6146.216,4176.545c-113.5-3.753-108.583-18.838-103.9,131.794l20.531.048s16.093-57,14.754-81.267a206.333,206.333,0,0,1,33.86-1.877c26.33.851,38.066-15.62,36.179-36.485C6147.13,4183.117,6147.811,4179.714,6146.216,4176.545Z" transform="translate(-5933.225 -3999.785)" fill="#0d1e54"/>
      <path id="Trazado_1857" data-name="Trazado 1857" d="M6826.223,2890.9" transform="translate(-6639.109 -2846.892)" fill="#f89fa1"/>
      <path id="Trazado_1858" data-name="Trazado 1858" d="M6507.956,2602.666l-2.333,16.891s-2.8-14.529-.84-19.755S6507.956,2602.666,6507.956,2602.666Z" transform="translate(-6349.733 -2583.821)" fill="#373362"/>
      <path id="Trazado_1859" data-name="Trazado 1859" d="M6777.985,2620.194s4.048-2.121,2.787-22.149h-5.695Z" transform="translate(-6593.165 -2583.821)" fill="#373362"/>
      <path id="Trazado_1860" data-name="Trazado 1860" d="M6533.657,2650.188h0a14.458,14.458,0,0,1-14.465-14.465v-20.391h28.93v20.391A14.465,14.465,0,0,1,6533.657,2650.188Z" transform="translate(-6363.302 -2599.35)" fill="#ffcbbb"/>
      <circle id="Elipse_148" data-name="Elipse 148" cx="4.619" cy="4.619" r="4.619" transform="translate(179.267 26.107)" fill="#ffcbbb"/>
      <circle id="Elipse_149" data-name="Elipse 149" cx="4.619" cy="4.619" r="4.619" transform="translate(152.624 26.107)" fill="#ffcbbb"/>
      <path id="Trazado_1861" data-name="Trazado 1861" d="M6525.375,2477.968s-9.528,3.84-18.308-2.207a11.907,11.907,0,0,1-13.637,0s-3.6-1.814-2.8-8.466,8.275-5.846,8.772-3.427c0,0,1.078-6.249,9.354-5.644s8.051,6.45,8.051,6.45,5.991-.393,8.48,1.814C6527.46,2468.415,6529.639,2470.923,6525.375,2477.968Z" transform="translate(-6337.54 -2458.182)" fill="#373362"/>
    </g>
    <g id="Grupo_1815" data-name="Grupo 1815" transform="translate(1338.615 752.287)">
      <path id="Trazado_1862" data-name="Trazado 1862" d="M6108.2,1050.441v90.8a6.51,6.51,0,0,1-6.511,6.511H5896.779a6.508,6.508,0,0,1-6.511-6.511v-90.8a6.515,6.515,0,0,1,6.511-6.515h204.906A6.513,6.513,0,0,1,6108.2,1050.441Z" transform="translate(-5890.268 -1019.915)" fill="#ffd10c"/>
      <g id="Grupo_1811" data-name="Grupo 1811" transform="translate(22.105 51.08)">
        <rect id="Rectángulo_486" data-name="Rectángulo 486" width="17.416" height="42.181" rx="3.47" transform="translate(0 13.233)" fill="#fff"/>
        <rect id="Rectángulo_487" data-name="Rectángulo 487" width="17.416" height="55.414" rx="3.47" transform="translate(25.111)" fill="#fff"/>
        <rect id="Rectángulo_488" data-name="Rectángulo 488" width="17.416" height="27.293" rx="3.47" transform="translate(51.032 27.707)" fill="#fff"/>
      </g>
      <g id="Grupo_1812" data-name="Grupo 1812" transform="translate(102.821 51.888)">
        <rect id="Rectángulo_489" data-name="Rectángulo 489" width="17.416" height="42.181" rx="3.47" transform="translate(0 13.233)" fill="#fff"/>
        <rect id="Rectángulo_490" data-name="Rectángulo 490" width="17.416" height="55.414" rx="3.47" transform="translate(25.111)" fill="#fff"/>
        <rect id="Rectángulo_491" data-name="Rectángulo 491" width="17.416" height="27.293" rx="3.47" transform="translate(51.032 27.707)" fill="#fff"/>
        <rect id="Rectángulo_492" data-name="Rectángulo 492" width="17.416" height="41.669" rx="3.47" transform="translate(79.915 13.332)" fill="#fff"/>
      </g>
      <path id="Trazado_1863" data-name="Trazado 1863" d="M6108.2,1050.441v6.3c-8.266,3.493-14.741,5.936-17.167,6.851-53.232,20.077-61.435,7.467-105.123,23.983-52.6,19.881-66.707,47.961-93.687,58.317a6.5,6.5,0,0,1-1.95-4.649v-90.8a6.515,6.515,0,0,1,6.511-6.515h204.906A6.513,6.513,0,0,1,6108.2,1050.441Z" transform="translate(-5890.268 -1019.915)" fill="#fff" opacity="0.13"/>
      <g id="Grupo_1814" data-name="Grupo 1814" transform="translate(181.391 0)">
        <circle id="Elipse_150" data-name="Elipse 150" cx="23.836" cy="23.836" r="23.836" transform="translate(0 33.709) rotate(-45)" fill="#0089ff"/>
        <g id="Grupo_1813" data-name="Grupo 1813" transform="translate(22.551 25.629)">
          <path id="Trazado_1864" data-name="Trazado 1864" d="M7904.315,1075.652a2.374,2.374,0,0,1-1.681-.7l-6.254-6.255a2.376,2.376,0,0,1,3.36-3.36l4.868,4.868,14.734-9.967a2.376,2.376,0,0,1,2.663,3.936l-16.359,11.066A2.366,2.366,0,0,1,7904.315,1075.652Z" transform="translate(-7895.684 -1059.834)" fill="#fff"/>
        </g>
      </g>
    </g>
    <g id="Grupo_1820" data-name="Grupo 1820" transform="translate(858.848 746)">
      <path id="Trazado_1865" data-name="Trazado 1865" d="M1382.253,750.589V821.4a4.589,4.589,0,0,1-4.589,4.589H1177.172a4.592,4.592,0,0,1-4.589-4.589V750.589a4.589,4.589,0,0,1,4.589-4.589h200.492a4.661,4.661,0,0,1,1.387.212A4.593,4.593,0,0,1,1382.253,750.589Z" transform="translate(-1172.584 -746)" fill="#00c1b9"/>
      <rect id="Rectángulo_493" data-name="Rectángulo 493" width="119.986" height="2.424" rx="1.212" transform="translate(73.121 27.472)" fill="#fff"/>
      <rect id="Rectángulo_494" data-name="Rectángulo 494" width="113.118" height="2.424" rx="1.212" transform="translate(73.525 40.399)" fill="#fff" opacity="0.61"/>
      <rect id="Rectángulo_495" data-name="Rectángulo 495" width="109.886" height="2.424" rx="1.212" transform="translate(73.525 54.539)" fill="#fff" opacity="0.42"/>
      <g id="Grupo_1819" data-name="Grupo 1819" transform="translate(16.967 18.582)" opacity="0.89">
        <g id="Grupo_1816" data-name="Grupo 1816">
          <path id="Trazado_1866" data-name="Trazado 1866" d="M1378.273,951.752a15.818,15.818,0,1,1-15.816-15.816v-7.211a23.029,23.029,0,0,0,0,46.058c.6,0,1.191-.024,1.783-.068a23.075,23.075,0,0,0,21.244-22.963Z" transform="translate(-1339.429 -928.725)" fill="#fff"/>
        </g>
        <g id="Grupo_1818" data-name="Grupo 1818" transform="translate(23.026 0.001)" opacity="0.5">
          <g id="Grupo_1817" data-name="Grupo 1817">
            <path id="Trazado_1867" data-name="Trazado 1867" d="M1588.88,951.767h-7.209a15.837,15.837,0,0,0-15.819-15.819v-7.209A23.054,23.054,0,0,1,1588.88,951.767Z" transform="translate(-1565.852 -928.739)" fill="#fff"/>
          </g>
        </g>
      </g>
    </g>
    <g id="Grupo_1822" data-name="Grupo 1822" transform="translate(925.337 796.903)">
      <path id="Trazado_1868" data-name="Trazado 1868" d="M2633.5,5476.531v15.717h41.2a3.642,3.642,0,0,0,3.643-3.643h0a3.644,3.644,0,0,0-3.1-3.6l-15.069-2.272-9.229-6.2Z" transform="translate(-2551.418 -5046.361)" fill="#ff686f"/>
      <path id="Trazado_1869" data-name="Trazado 1869" d="M1929.159,5476.531v15.717h41.2a3.642,3.642,0,0,0,3.643-3.643h0a3.643,3.643,0,0,0-3.1-3.6l-15.069-2.272-9.229-6.2Z" transform="translate(-1918.707 -5046.361)" fill="#ff686f"/>
      <path id="Trazado_1870" data-name="Trazado 1870" d="M2319.206,1690.929" transform="translate(-2269.088 -1645.737)" fill="#f89fa1"/>
      <g id="Grupo_1821" data-name="Grupo 1821" transform="translate(51.969 40.719)">
        <path id="Trazado_1871" data-name="Trazado 1871" d="M2337.408,1666.638c.7,2.277,6.9,8.647,12.821,9.789,10.045,1.938,13.852-2.84,15.089-5.884,1.009-2.484.224-2.749-1.7-4.588a11.482,11.482,0,0,1-2.778-4.595c-1.9-5.566-.945-12.505-.945-12.505l-18.854-1.908a87.543,87.543,0,0,1-.324,8.859c-.063.658-.128,1.342-.209,2.038A18.527,18.527,0,0,1,2337.408,1666.638Z" transform="translate(-2337.408 -1646.947)" fill="#ffcbbb"/>
        <path id="Trazado_1872" data-name="Trazado 1872" d="M2370.243,1654.761c3.662,2.286,12.455,9.959,21.44,9.453-3.671-6.051-2.263-15.34-2.263-15.34l-18.854-1.909A70.745,70.745,0,0,1,2370.243,1654.761Z" transform="translate(-2366.904 -1646.963)" fill="#ca826a" opacity="0.51"/>
      </g>
      <path id="Trazado_1873" data-name="Trazado 1873" d="M2621.951,1395.463l2.4,17.4s2.884-14.967.865-20.35S2621.951,1395.463,2621.951,1395.463Z" transform="translate(-2541.045 -1376.042)" fill="#0d1e54"/>
      <path id="Trazado_1874" data-name="Trazado 1874" d="M2324.965,1413.518s-4.169-2.185-2.871-22.816h5.866Z" transform="translate(-2271.457 -1376.042)" fill="#0d1e54"/>
      <path id="Trazado_1875" data-name="Trazado 1875" d="M2382.35,1408.5v21a14.9,14.9,0,0,1-29.809,0v-21Z" transform="translate(-2299.033 -1392.026)" fill="#ffcbbb"/>
      <circle id="Elipse_151" data-name="Elipse 151" cx="4.759" cy="4.759" r="4.759" transform="translate(49.71 26.901)" fill="#ffcbbb"/>
      <circle id="Elipse_152" data-name="Elipse 152" cx="4.759" cy="4.759" r="4.759" transform="translate(77.156 26.901)" fill="#ffcbbb"/>
      <path id="Trazado_1876" data-name="Trazado 1876" d="M2334.928,1261.861a5.506,5.506,0,0,1-2.261,2.792c-.484.3-.946.577-1.407.808a12.2,12.2,0,0,1-12.644-.808,20.657,20.657,0,0,1-14.789,3.276c-.346-.046-.669-.115-.969-.161a17.366,17.366,0,0,1-3.115-.831c-4.384-7.268-2.146-9.852.092-11.836,2.561-2.261,8.744-1.869,8.744-1.869a5.926,5.926,0,0,1,1.638-3.968c1.177-1.269,3.184-2.423,6.645-2.676,8.537-.623,9.644,5.814,9.644,5.814.508-2.492,8.213-3.322,9.044,3.53A11.383,11.383,0,0,1,2334.928,1261.861Z" transform="translate(-2249.351 -1246.545)" fill="#0d1e54"/>
      <path id="Trazado_1877" data-name="Trazado 1877" d="M2334.928,1285.878a5.507,5.507,0,0,1-2.261,2.792v18.738c0,8.164-6.3,15.279-14.457,15.517a14.9,14.9,0,0,1-15.352-14.9v-16.243a17.366,17.366,0,0,1-3.115-.831c-4.384-7.268-2.146-9.852.092-11.836,2.561-2.261,8.744-1.869,8.744-1.869a5.926,5.926,0,0,1,1.638-3.968l-4.707,13.751-1.684,4.914s-.254,12.5,2.03,16.081c4.476,7.01,10,6.932,18.678,5.1a8.625,8.625,0,0,0,6.724-8.487v-19.411Z" transform="translate(-2249.351 -1270.562)" fill="#0d1e54"/>
      <path id="Trazado_1878" data-name="Trazado 1878" d="M2518.319,3109.026s1.154,86.9-4.037,242.062h-21.149s-16.91-70.946-15.473-95.94-.086-146.122-.086-146.122Z" transform="translate(-2411.35 -2919.62)" fill="#0d1e54"/>
      <path id="Trazado_1879" data-name="Trazado 1879" d="M2000.682,3109.026s-11.92,96.133-18.457,122.665-30.378,119.4-30.378,119.4h-22.687s3.869-77.612,13.1-119.142c5.191-41.529,5.667-83.567,13.12-122.921Z" transform="translate(-1918.707 -2919.62)" fill="#0d1e54"/>
      <path id="Trazado_1880" data-name="Trazado 1880" d="M2484.443,3669.874l8.256-54.167h6.624l-14.88,80.968Z" transform="translate(-2417.522 -3374.774)" fill="#282828" opacity="0.56"/>
      <path id="Trazado_1881" data-name="Trazado 1881" d="M3388.7,2765.718s19.078,4.4,30.241-1.332c4.844-2.488,1.6-11.38-10.386-9.324-8.184,1.4-8.958.26-6.069-1.679,4.8-3.22-.115-3.91-12.258-.543Z" transform="translate(-3229.817 -2597.662)" fill="#ffcbbb"/>
      <path id="Trazado_1882" data-name="Trazado 1882" d="M2340.728,1826.113" transform="translate(-2288.422 -1767.174)" fill="#2aa5a2"/>
      <path id="Trazado_1883" data-name="Trazado 1883" d="M2743.8,1890.744s24.37,3.606,27.254,35.618c1.43,15.873,2.435,27.916,3.084,36.026A14.049,14.049,0,0,0,2787.6,1975.3l24.4.953v20.765s-32.4,3.736-44.7-2.019-19.9-14.132-21.918-38.645S2739.621,1905.307,2743.8,1890.744Z" transform="translate(-2648.802 -1825.232)" fill="#ff686f"/>
      <path id="Trazado_1884" data-name="Trazado 1884" d="M2149.481,1945.776s-8.171-27.106-6.441-113.049c-.175-39.538-12.181-36.667-27.982-41.836-1.521-.5.347-3.511-1.308-4.153l-23.773-1.51a1.85,1.85,0,0,0-1.966,2.017,5.1,5.1,0,0,1-.414,2.931c-.551.941-10.944,3.741-19.54,6.5-20.255,6.5-.565,67.3-2.757,90.281-1.44,15.1-6.044,53.846-6.044,53.846s26.77,17.7,60.949,17.472C2132.314,1958.195,2143.425,1950.1,2149.481,1945.776Z" transform="translate(-2035.18 -1730.443)" fill="#ff686f"/>
      <path id="Trazado_1885" data-name="Trazado 1885" d="M2010.926,3346.027s1.768,19.5,10.7,28.317c3.875,3.825,11.313-2.027,5.619-12.777-3.886-7.337-3.042-8.43-.3-6.29,4.556,3.553,3.679-1.329-3.308-11.815Z" transform="translate(-1992.159 -3130.215)" fill="#ffcbbb"/>
      <path id="Trazado_1886" data-name="Trazado 1886" d="M1861.209,1895.21s-34.825,4.738-34.825,82.606c0,47.3,17.4,69.7,17.4,69.7l17.881-3.845s-17.047-33.18-12.5-59.41c1.755-10.115,2.307-14.8,15.862-37.876S1874.693,1902.585,1861.209,1895.21Z" transform="translate(-1826.384 -1829.244)" fill="#ff686f"/>
      <path id="Trazado_1887" data-name="Trazado 1887" d="M2109.834,2363.907l12.953-23.92-11.7,35.719S2110.462,2368.082,2109.834,2363.907Z" transform="translate(-2081.009 -2228.789)" fill="#282828" opacity="0.34"/>
      <path id="Trazado_1888" data-name="Trazado 1888" d="M2881.573,2392.026s-2.235-38.33-.711-52.039l5.2,55.509Z" transform="translate(-2773.149 -2228.789)" fill="#282828" opacity="0.34"/>
    </g>
    <path id="Trazado_1889" data-name="Trazado 1889" d="M1379.052,746.212c-30.154,9.341-56.267,18.754-78.022,27.26q-3.136,1.223-6.148,2.422-10.636,4.233-19.745,8.078-2.908,1.223-5.724,2.426-2.872,1.223-5.652,2.426c-13.274,5.74-24.986,11.064-35.674,15.788-4.765,2.11-9.325,4.1-13.726,5.96-14.793,6.235-27.812,10.968-40.842,13.6a4.557,4.557,0,0,1-.935-2.774V750.589a4.589,4.589,0,0,1,4.589-4.589h200.492A4.661,4.661,0,0,1,1379.052,746.212Z" transform="translate(-313.736)" fill="#fff" opacity="0.13"/>
    <g id="Grupo_1824" data-name="Grupo 1824" transform="translate(851.632 867.51)">
      <circle id="Elipse_153" data-name="Elipse 153" cx="24.182" cy="24.182" r="24.182" fill="#0089ff"/>
      <g id="Grupo_1823" data-name="Grupo 1823" transform="translate(12.862 15.985)">
        <path id="Trazado_1890" data-name="Trazado 1890" d="M1236.854,2114.079a2.408,2.408,0,0,1-1.705-.706l-6.345-6.346a2.41,2.41,0,0,1,3.409-3.408l4.938,4.938,14.948-10.112a2.41,2.41,0,1,1,2.7,3.993l-16.6,11.227A2.4,2.4,0,0,1,1236.854,2114.079Z" transform="translate(-1228.097 -2098.031)" fill="#fff"/>
      </g>
    </g>
    <g id="Grupo_1826" data-name="Grupo 1826" transform="translate(851.481 939.457)">
      <circle id="Elipse_154" data-name="Elipse 154" cx="24.182" cy="24.182" r="24.182" fill="#ffd10c"/>
      <g id="Grupo_1825" data-name="Grupo 1825" transform="translate(12.862 15.985)">
        <path id="Trazado_1891" data-name="Trazado 1891" d="M1235.376,2821.555a2.408,2.408,0,0,1-1.705-.706l-6.345-6.346a2.41,2.41,0,0,1,3.409-3.408l4.939,4.938,14.948-10.112a2.41,2.41,0,1,1,2.7,3.993l-16.6,11.227A2.4,2.4,0,0,1,1235.376,2821.555Z" transform="translate(-1226.619 -2805.507)" fill="#fff"/>
      </g>
    </g>
    <g id="Grupo_1828" data-name="Grupo 1828" transform="translate(1450.976 886.632)">
      <circle id="Elipse_155" data-name="Elipse 155" cx="21.384" cy="21.384" r="21.384" transform="translate(0 30.242) rotate(-45)" fill="#0089ff"/>
      <g id="Grupo_1827" data-name="Grupo 1827" transform="translate(20.231 22.993)">
        <path id="Trazado_1892" data-name="Trazado 1892" d="M7201.83,2369.165a2.132,2.132,0,0,1-1.509-.624l-5.611-5.611a2.132,2.132,0,0,1,3.015-3.014l4.366,4.367,13.219-8.942a2.131,2.131,0,1,1,2.388,3.531l-14.676,9.928A2.124,2.124,0,0,1,7201.83,2369.165Z" transform="translate(-7194.086 -2354.974)" fill="#fff"/>
      </g>
    </g>
    <g id="Grupo_1830" data-name="Grupo 1830" transform="translate(1474.223 956.245)">
      <circle id="Elipse_156" data-name="Elipse 156" cx="21.384" cy="21.384" r="21.384" fill="#ffd10c"/>
      <g id="Grupo_1829" data-name="Grupo 1829" transform="translate(11.374 14.135)">
        <path id="Trazado_1893" data-name="Trazado 1893" d="M7343.324,2966.589a2.131,2.131,0,0,1-1.509-.625l-5.611-5.612a2.132,2.132,0,0,1,3.015-3.014l4.366,4.367,13.219-8.942a2.131,2.131,0,1,1,2.389,3.531l-14.676,9.928A2.126,2.126,0,0,1,7343.324,2966.589Z" transform="translate(-7335.581 -2952.398)" fill="#fff"/>
      </g>
    </g>
  </g>
</svg>
